{"glyphs":{"0":{"ha":783,"x_min":56,"x_max":726,"o":"m 392 -12 q 216 53 292 -12 q 98 234 140 118 q 56 505 56 351 q 98 775 56 659 q 216 957 140 892 q 392 1022 292 1022 q 567 957 492 1022 q 684 775 642 892 q 726 505 726 659 q 684 234 726 351 q 567 53 642 118 q 392 -12 492 -12 m 392 20 q 550 80 482 20 q 657 250 618 141 q 695 505 695 359 q 657 760 695 650 q 550 930 618 869 q 392 991 482 991 q 233 930 302 991 q 126 760 164 869 q 87 505 87 650 q 126 250 87 359 q 233 80 164 141 q 392 20 302 20 z "},"1":{"ha":442,"x_min":65,"x_max":319,"o":"m 319 1010 l 319 0 l 288 0 l 288 980 l 286 980 l 65 829 l 65 866 l 275 1010 l 319 1010 z "},"2":{"ha":771,"x_min":77,"x_max":694,"o":"m 77 0 l 77 30 l 425 391 q 549 532 503 473 q 616 641 595 591 q 636 743 636 691 q 603 872 636 816 q 511 960 570 928 q 374 993 452 993 q 238 960 298 993 q 146 871 179 927 q 113 743 113 814 l 81 743 q 119 887 81 823 q 222 987 156 950 q 374 1024 289 1024 q 527 987 460 1024 q 630 888 593 951 q 667 743 667 825 q 646 632 667 686 q 577 517 625 579 q 450 372 530 456 l 123 33 l 123 31 l 694 31 l 694 0 l 77 0 z "},"3":{"ha":753,"x_min":61,"x_max":697,"o":"m 379 -14 q 217 21 289 -14 q 103 115 145 55 q 61 252 61 176 l 92 252 q 130 131 92 184 q 233 48 168 78 q 379 18 298 18 q 530 51 466 18 q 630 139 594 83 q 666 262 666 195 q 625 390 666 335 q 512 474 584 444 q 347 505 440 505 l 332 505 l 332 537 l 347 537 q 493 565 429 537 q 596 644 558 593 q 634 765 634 695 q 602 882 634 830 q 511 963 569 933 q 378 993 454 993 q 243 963 302 993 q 151 880 184 933 q 117 758 117 827 l 85 758 q 124 896 86 836 q 228 990 161 956 q 378 1024 294 1024 q 527 990 462 1024 q 628 898 591 956 q 665 765 665 840 q 610 611 665 677 q 458 523 555 546 l 458 522 q 585 470 531 507 q 668 380 639 433 q 697 262 697 326 q 657 122 697 184 q 545 23 616 60 q 379 -14 473 -14 z "},"4":{"ha":809,"x_min":57,"x_max":753,"o":"m 57 275 l 57 298 l 561 1010 l 590 1010 l 590 966 l 569 966 l 102 308 l 102 307 l 753 307 l 753 275 l 57 275 m 569 0 l 569 285 l 569 294 l 569 1010 l 601 1010 l 601 0 l 569 0 z "},"5":{"ha":720,"x_min":56,"x_max":664,"o":"m 341 -14 q 192 21 256 -14 q 92 115 128 55 q 56 252 56 176 l 87 252 q 119 131 87 184 q 208 48 151 78 q 341 18 264 18 q 493 57 428 18 q 596 163 559 96 q 633 313 633 230 q 596 466 633 400 q 495 569 559 532 q 349 606 431 606 q 204 572 271 606 q 110 479 138 538 l 77 481 l 127 1010 l 644 1010 l 644 979 l 155 979 l 113 538 l 115 538 q 207 606 146 575 q 349 637 267 637 q 474 614 416 637 q 574 547 531 590 q 640 444 616 503 q 664 313 664 385 q 623 146 664 220 q 509 29 581 72 q 341 -14 436 -14 z "},"6":{"ha":738,"x_min":56,"x_max":682,"o":"m 378 -12 q 250 18 309 -12 q 148 105 191 47 q 80 252 104 164 q 56 459 56 340 q 73 662 56 562 q 127 843 90 762 q 229 973 165 924 q 387 1022 293 1022 q 520 991 462 1022 q 616 905 579 960 q 661 776 653 850 l 629 776 q 552 931 617 872 q 387 991 487 991 q 225 928 293 991 q 121 738 157 865 q 87 420 85 612 l 88 420 q 143 522 102 477 q 244 593 184 567 q 371 619 303 619 q 527 578 456 619 q 639 466 597 537 q 682 304 682 395 q 643 149 682 220 q 537 33 605 77 q 378 -12 469 -12 m 378 20 q 518 58 456 20 q 615 162 580 97 q 650 304 650 227 q 613 448 650 384 q 513 550 576 513 q 370 588 450 588 q 254 564 307 588 q 162 497 200 539 q 109 402 125 456 q 105 289 93 348 q 162 140 124 200 q 255 50 201 80 q 378 20 310 20 z "},"7":{"ha":726,"x_min":51,"x_max":675,"o":"m 152 0 l 640 978 l 640 979 l 51 979 l 51 1010 l 675 1010 l 675 978 l 186 0 l 152 0 z "},"8":{"ha":745,"x_min":56,"x_max":688,"o":"m 372 -12 q 213 25 286 -12 q 99 123 141 62 q 56 260 56 184 q 87 380 56 325 q 170 472 117 435 q 290 522 223 510 l 290 522 q 142 616 195 549 q 90 768 90 684 q 128 897 90 840 q 230 988 166 954 q 372 1022 294 1022 q 513 988 449 1022 q 616 898 578 955 q 655 768 655 840 q 603 616 655 685 q 455 522 551 548 l 455 522 q 574 473 522 511 q 658 380 627 435 q 688 260 688 325 q 646 123 688 184 q 531 25 603 62 q 372 -12 460 -12 m 372 20 q 516 52 452 20 q 619 139 581 84 q 656 261 656 194 q 619 385 656 330 q 516 473 581 440 q 372 506 452 506 q 228 473 292 506 q 125 385 163 440 q 87 261 87 330 q 125 139 87 194 q 228 52 163 84 q 372 20 292 20 m 372 536 q 499 567 442 536 q 590 651 556 598 q 624 768 624 703 q 590 882 624 831 q 499 961 556 932 q 372 991 442 991 q 245 961 302 991 q 155 882 189 932 q 121 768 121 831 q 155 651 121 703 q 245 567 189 598 q 372 536 302 536 z "},"9":{"ha":738,"x_min":56,"x_max":682,"o":"m 350 -12 q 218 20 277 -12 q 122 106 159 51 q 77 235 85 161 l 108 235 q 186 79 120 139 q 350 20 252 20 q 513 83 445 20 q 617 272 581 146 q 651 591 653 399 l 650 591 q 595 489 636 534 q 494 417 553 444 q 367 391 435 391 q 211 433 282 391 q 98 545 140 474 q 56 707 56 616 q 94 862 56 791 q 201 978 132 934 q 360 1022 270 1022 q 488 993 429 1022 q 590 905 547 964 q 657 759 633 847 q 682 551 682 671 q 665 349 682 449 q 611 168 648 250 q 509 37 573 86 q 350 -12 445 -12 m 367 422 q 484 447 430 422 q 575 513 538 471 q 629 609 613 555 q 633 722 645 663 q 576 871 614 812 q 483 961 537 930 q 360 991 428 991 q 219 952 281 991 q 122 849 157 913 q 87 707 87 785 q 124 563 87 627 q 225 460 161 498 q 367 422 289 422 z "},"\u0000":{"ha":814,"x_min":0,"x_max":0,"o":""},"A":{"ha":840,"x_min":20,"x_max":819,"o":"m 20 0 l 398 1010 l 441 1010 l 819 0 l 786 0 l 493 783 q 453 891 473 837 q 413 1000 433 945 l 425 1000 q 386 891 406 945 q 345 783 366 837 l 54 0 l 20 0 m 170 334 l 170 365 l 670 365 l 670 334 l 170 334 z "},"Ä":{"ha":840,"x_min":20,"x_max":819,"o":"m 20 0 l 398 1010 l 441 1010 l 819 0 l 786 0 l 493 783 q 453 891 473 837 q 413 1000 433 945 l 425 1000 q 386 891 406 945 q 345 783 366 837 l 54 0 l 20 0 m 170 334 l 170 365 l 670 365 l 670 334 l 170 334 m 557 1194 q 534 1203 544 1194 q 525 1226 525 1213 q 534 1248 525 1239 q 557 1257 544 1257 q 579 1248 570 1257 q 589 1226 589 1239 q 579 1203 589 1213 q 557 1194 570 1194 m 283 1194 q 260 1203 270 1194 q 251 1226 251 1213 q 260 1248 251 1239 q 283 1257 270 1257 q 306 1248 296 1257 q 315 1226 315 1239 q 306 1203 315 1213 q 283 1194 296 1194 z "},"Ã":{"ha":840,"x_min":20,"x_max":819,"o":"m 20 0 l 398 1010 l 441 1010 l 819 0 l 786 0 l 493 783 q 453 891 473 837 q 413 1000 433 945 l 425 1000 q 386 891 406 945 q 345 783 366 837 l 54 0 l 20 0 m 170 334 l 170 365 l 670 365 l 670 334 l 170 334 m 507 1170 q 458 1182 479 1170 q 419 1210 437 1194 q 383 1238 401 1225 q 341 1250 365 1250 q 287 1230 308 1250 q 262 1175 266 1210 l 231 1175 q 264 1251 235 1221 q 336 1281 292 1281 q 390 1269 368 1281 q 429 1241 412 1257 q 464 1213 447 1225 q 502 1201 481 1201 q 550 1218 531 1201 q 576 1274 568 1235 l 608 1274 q 573 1198 600 1225 q 507 1170 546 1170 z "},"À":{"ha":840,"x_min":20,"x_max":819,"o":"m 20 0 l 398 1010 l 441 1010 l 819 0 l 786 0 l 493 783 q 453 891 473 837 q 413 1000 433 945 l 425 1000 q 386 891 406 945 q 345 783 366 837 l 54 0 l 20 0 m 170 334 l 170 365 l 670 365 l 670 334 l 170 334 m 408 1107 l 314 1305 l 353 1305 l 439 1107 l 408 1107 z "},"Á":{"ha":840,"x_min":20,"x_max":819,"o":"m 20 0 l 398 1010 l 441 1010 l 819 0 l 786 0 l 493 783 q 453 891 473 837 q 413 1000 433 945 l 425 1000 q 386 891 406 945 q 345 783 366 837 l 54 0 l 20 0 m 170 334 l 170 365 l 670 365 l 670 334 l 170 334 m 404 1107 l 490 1305 l 526 1305 l 433 1107 l 404 1107 z "},"Â":{"ha":840,"x_min":20,"x_max":819,"o":"m 20 0 l 398 1010 l 441 1010 l 819 0 l 786 0 l 493 783 q 453 891 473 837 q 413 1000 433 945 l 425 1000 q 386 891 406 945 q 345 783 366 837 l 54 0 l 20 0 m 170 334 l 170 365 l 670 365 l 670 334 l 170 334 m 273 1133 l 233 1133 l 233 1134 l 406 1320 l 431 1320 l 606 1134 l 606 1133 l 567 1133 l 419 1291 l 273 1133 z "},"Å":{"ha":840,"x_min":20,"x_max":819,"o":"m 20 0 l 398 1010 l 441 1010 l 819 0 l 786 0 l 493 783 q 453 891 473 837 q 413 1000 433 945 l 425 1000 q 386 891 406 945 q 345 783 366 837 l 54 0 l 20 0 m 170 334 l 170 365 l 670 365 l 670 334 l 170 334 m 420 1121 q 366 1135 391 1121 q 327 1173 342 1149 q 313 1226 313 1197 q 327 1278 313 1255 q 366 1316 342 1302 q 420 1331 390 1331 q 474 1316 450 1331 q 512 1278 498 1302 q 527 1225 527 1255 q 513 1173 527 1197 q 474 1135 498 1149 q 420 1121 450 1121 m 420 1152 q 474 1174 452 1152 q 496 1226 496 1196 q 474 1278 496 1257 q 420 1299 452 1299 q 366 1278 389 1299 q 344 1226 344 1257 q 366 1174 344 1196 q 420 1152 388 1152 z "},"Ǻ":{"ha":840,"x_min":20,"x_max":819,"o":"m 20 0 l 398 1010 l 441 1010 l 819 0 l 786 0 l 493 783 q 453 891 473 837 q 413 1000 433 945 l 425 1000 q 386 891 406 945 q 345 783 366 837 l 54 0 l 20 0 m 170 334 l 170 365 l 670 365 l 670 334 l 170 334 m 406 1373 l 485 1468 l 524 1468 l 437 1373 l 406 1373 m 420 1121 q 366 1135 391 1121 q 327 1173 342 1149 q 313 1226 313 1197 q 327 1278 313 1255 q 366 1316 342 1302 q 420 1331 390 1331 q 474 1316 450 1331 q 512 1278 498 1302 q 527 1225 527 1255 q 513 1173 527 1197 q 474 1135 498 1149 q 420 1121 450 1121 m 420 1152 q 474 1174 452 1152 q 496 1226 496 1196 q 474 1278 496 1257 q 420 1299 452 1299 q 366 1278 389 1299 q 344 1226 344 1257 q 366 1174 344 1196 q 420 1152 388 1152 z "},"":{"ha":840,"x_min":20,"x_max":819,"o":"m 20 0 l 398 1010 l 441 1010 l 819 0 l 786 0 l 493 783 q 453 891 473 837 q 413 1000 433 945 l 425 1000 q 386 891 406 945 q 345 783 366 837 l 54 0 l 20 0 m 170 334 l 170 365 l 670 365 l 670 334 l 170 334 m 420 1121 q 366 1135 391 1121 q 327 1173 342 1149 q 313 1226 313 1197 q 327 1278 313 1255 q 366 1316 342 1302 q 420 1331 390 1331 q 474 1316 450 1331 q 512 1278 498 1302 q 527 1225 527 1255 q 513 1173 527 1197 q 474 1135 498 1149 q 420 1121 450 1121 m 420 1152 q 474 1174 452 1152 q 496 1226 496 1196 q 474 1278 496 1257 q 420 1299 452 1299 q 366 1278 389 1299 q 344 1226 344 1257 q 366 1174 344 1196 q 420 1152 388 1152 m 788 -285 q 692 -255 723 -285 q 661 -180 661 -226 q 696 -83 661 -129 q 798 18 732 -37 l 819 0 q 724 -96 755 -54 q 692 -180 692 -137 q 713 -233 692 -212 q 788 -254 734 -254 q 802 -253 795 -254 q 815 -252 808 -252 l 818 -283 q 803 -284 810 -283 q 788 -285 796 -285 z "},"Ā":{"ha":840,"x_min":20,"x_max":819,"o":"m 20 0 l 398 1010 l 441 1010 l 819 0 l 786 0 l 493 783 q 453 891 473 837 q 413 1000 433 945 l 425 1000 q 386 891 406 945 q 345 783 366 837 l 54 0 l 20 0 m 170 334 l 170 365 l 670 365 l 670 334 l 170 334 m 578 1241 l 578 1210 l 262 1210 l 262 1241 l 578 1241 z "},"Ă":{"ha":840,"x_min":20,"x_max":819,"o":"m 20 0 l 398 1010 l 441 1010 l 819 0 l 786 0 l 493 783 q 453 891 473 837 q 413 1000 433 945 l 425 1000 q 386 891 406 945 q 345 783 366 837 l 54 0 l 20 0 m 170 334 l 170 365 l 670 365 l 670 334 l 170 334 m 420 1125 q 330 1149 370 1125 q 266 1214 290 1173 q 242 1303 242 1254 l 273 1303 q 316 1198 273 1241 q 420 1156 359 1156 q 523 1198 480 1156 q 566 1303 566 1241 l 597 1303 q 574 1214 597 1254 q 510 1149 550 1173 q 420 1125 470 1125 z "},"Ą":{"ha":840,"x_min":20,"x_max":819,"o":"m 20 0 l 398 1010 l 441 1010 l 819 0 l 786 0 l 493 783 q 453 891 473 837 q 413 1000 433 945 l 425 1000 q 386 891 406 945 q 345 783 366 837 l 54 0 l 20 0 m 170 334 l 170 365 l 670 365 l 670 334 l 170 334 m 788 -285 q 692 -255 723 -285 q 661 -180 661 -226 q 696 -83 661 -129 q 798 18 732 -37 l 819 0 q 724 -96 755 -54 q 692 -180 692 -137 q 713 -233 692 -212 q 788 -254 734 -254 q 802 -253 795 -254 q 815 -252 808 -252 l 818 -283 q 803 -284 810 -283 q 788 -285 796 -285 z "},"Ǎ":{"ha":840,"x_min":20,"x_max":819,"o":"m 20 0 l 398 1010 l 441 1010 l 819 0 l 786 0 l 493 783 q 453 891 473 837 q 413 1000 433 945 l 425 1000 q 386 891 406 945 q 345 783 366 837 l 54 0 l 20 0 m 170 334 l 170 365 l 670 365 l 670 334 l 170 334 m 273 1318 l 419 1161 l 567 1318 l 606 1318 l 606 1317 l 431 1132 l 406 1132 l 233 1317 l 233 1318 l 273 1318 z "},"Ǟ":{"ha":840,"x_min":20,"x_max":819,"o":"m 20 0 l 398 1010 l 441 1010 l 819 0 l 786 0 l 493 783 q 453 891 473 837 q 413 1000 433 945 l 425 1000 q 386 891 406 945 q 345 783 366 837 l 54 0 l 20 0 m 170 334 l 170 365 l 670 365 l 670 334 l 170 334 m 560 1163 q 537 1173 547 1163 q 528 1196 528 1182 q 537 1218 528 1208 q 560 1227 547 1227 q 582 1218 573 1227 q 591 1196 591 1208 q 582 1173 591 1182 q 560 1163 573 1163 m 286 1163 q 263 1173 273 1163 q 254 1196 254 1182 q 263 1218 254 1208 q 286 1227 273 1227 q 308 1218 299 1227 q 317 1196 317 1208 q 308 1173 317 1182 q 286 1163 299 1163 m 578 1390 l 578 1358 l 262 1358 l 262 1390 l 578 1390 z "},"Ǡ":{"ha":840,"x_min":20,"x_max":819,"o":"m 20 0 l 398 1010 l 441 1010 l 819 0 l 786 0 l 493 783 q 453 891 473 837 q 413 1000 433 945 l 425 1000 q 386 891 406 945 q 345 783 366 837 l 54 0 l 20 0 m 170 334 l 170 365 l 670 365 l 670 334 l 170 334 m 420 1163 q 397 1173 407 1163 q 388 1195 388 1182 q 397 1218 388 1208 q 420 1227 407 1227 q 443 1218 433 1227 q 452 1195 452 1208 q 443 1173 452 1182 q 420 1163 433 1163 m 577 1390 l 577 1358 l 262 1358 l 262 1390 l 577 1390 z "},"Ȁ":{"ha":840,"x_min":20,"x_max":819,"o":"m 20 0 l 398 1010 l 441 1010 l 819 0 l 786 0 l 493 783 q 453 891 473 837 q 413 1000 433 945 l 425 1000 q 386 891 406 945 q 345 783 366 837 l 54 0 l 20 0 m 170 334 l 170 365 l 670 365 l 670 334 l 170 334 m 483 1107 l 399 1305 l 436 1305 l 513 1107 l 483 1107 m 332 1107 l 229 1305 l 267 1305 l 363 1107 l 332 1107 z "},"Ȃ":{"ha":840,"x_min":20,"x_max":819,"o":"m 20 0 l 398 1010 l 441 1010 l 819 0 l 786 0 l 493 783 q 453 891 473 837 q 413 1000 433 945 l 425 1000 q 386 891 406 945 q 345 783 366 837 l 54 0 l 20 0 m 170 334 l 170 365 l 670 365 l 670 334 l 170 334 m 420 1295 q 510 1274 469 1295 q 574 1216 551 1253 q 597 1133 597 1179 l 567 1133 q 524 1227 567 1189 q 420 1266 481 1266 q 316 1227 359 1266 q 273 1133 273 1189 l 242 1133 q 266 1215 242 1179 q 330 1274 290 1252 q 420 1295 370 1295 z "},"Ȧ":{"ha":840,"x_min":20,"x_max":819,"o":"m 20 0 l 398 1010 l 441 1010 l 819 0 l 786 0 l 493 783 q 453 891 473 837 q 413 1000 433 945 l 425 1000 q 386 891 406 945 q 345 783 366 837 l 54 0 l 20 0 m 170 334 l 170 365 l 670 365 l 670 334 l 170 334 m 420 1194 q 397 1203 407 1194 q 388 1226 388 1213 q 397 1248 388 1239 q 420 1257 407 1257 q 443 1248 433 1257 q 452 1226 452 1239 q 443 1203 452 1213 q 420 1194 433 1194 z "},"Ḁ":{"ha":840,"x_min":20,"x_max":819,"o":"m 20 0 l 398 1010 l 441 1010 l 819 0 l 786 0 l 493 783 q 453 891 473 837 q 413 1000 433 945 l 425 1000 q 386 891 406 945 q 345 783 366 837 l 54 0 l 20 0 m 170 334 l 170 365 l 670 365 l 670 334 l 170 334 m 420 -315 q 366 -300 391 -315 q 327 -262 342 -286 q 313 -210 313 -239 q 327 -157 313 -181 q 366 -119 342 -134 q 420 -105 391 -105 q 474 -119 450 -105 q 513 -157 498 -134 q 527 -210 527 -181 q 513 -262 527 -238 q 474 -300 498 -286 q 420 -315 450 -315 m 420 -283 q 474 -262 452 -283 q 496 -210 496 -240 q 474 -158 496 -179 q 420 -136 452 -136 q 366 -158 389 -136 q 344 -210 344 -179 q 366 -262 344 -240 q 420 -283 389 -283 z "},"Ạ":{"ha":840,"x_min":20,"x_max":819,"o":"m 20 0 l 398 1010 l 441 1010 l 819 0 l 786 0 l 493 783 q 453 891 473 837 q 413 1000 433 945 l 425 1000 q 386 891 406 945 q 345 783 366 837 l 54 0 l 20 0 m 170 334 l 170 365 l 670 365 l 670 334 l 170 334 m 420 -242 q 397 -233 407 -242 q 388 -210 388 -223 q 397 -188 388 -197 q 420 -178 407 -178 q 443 -188 433 -178 q 452 -210 452 -197 q 443 -233 452 -223 q 420 -242 433 -242 z "},"Ả":{"ha":840,"x_min":20,"x_max":819,"o":"m 20 0 l 398 1010 l 441 1010 l 819 0 l 786 0 l 493 783 q 453 891 473 837 q 413 1000 433 945 l 425 1000 q 386 891 406 945 q 345 783 366 837 l 54 0 l 20 0 m 170 334 l 170 365 l 670 365 l 670 334 l 170 334 m 435 1107 l 404 1107 l 439 1185 q 455 1254 461 1234 q 400 1275 449 1275 l 329 1275 l 329 1305 l 400 1305 q 454 1296 434 1305 q 482 1269 475 1286 q 485 1228 489 1252 q 467 1175 481 1204 l 435 1107 z "},"Ấ":{"ha":840,"x_min":20,"x_max":819,"o":"m 20 0 l 398 1010 l 441 1010 l 819 0 l 786 0 l 493 783 q 453 891 473 837 q 413 1000 433 945 l 425 1000 q 386 891 406 945 q 345 783 366 837 l 54 0 l 20 0 m 170 334 l 170 365 l 670 365 l 670 334 l 170 334 m 273 1102 l 233 1102 l 233 1103 l 406 1289 l 431 1289 l 606 1103 l 606 1102 l 567 1102 l 419 1259 l 273 1102 m 522 1314 l 648 1500 l 687 1500 l 556 1314 l 522 1314 z "},"Ầ":{"ha":840,"x_min":20,"x_max":819,"o":"m 20 0 l 398 1010 l 441 1010 l 819 0 l 786 0 l 493 783 q 453 891 473 837 q 413 1000 433 945 l 425 1000 q 386 891 406 945 q 345 783 366 837 l 54 0 l 20 0 m 170 334 l 170 365 l 670 365 l 670 334 l 170 334 m 273 1102 l 233 1102 l 233 1103 l 406 1289 l 431 1289 l 606 1103 l 606 1102 l 567 1102 l 419 1259 l 273 1102 m 572 1314 l 441 1500 l 480 1500 l 606 1314 l 572 1314 z "},"Ẩ":{"ha":840,"x_min":20,"x_max":819,"o":"m 20 0 l 398 1010 l 441 1010 l 819 0 l 786 0 l 493 783 q 453 891 473 837 q 413 1000 433 945 l 425 1000 q 386 891 406 945 q 345 783 366 837 l 54 0 l 20 0 m 170 334 l 170 365 l 670 365 l 670 334 l 170 334 m 273 1102 l 233 1102 l 233 1103 l 406 1289 l 431 1289 l 606 1103 l 606 1102 l 567 1102 l 419 1259 l 273 1102 m 549 1314 l 515 1314 l 559 1379 q 578 1446 587 1423 q 521 1469 570 1469 l 450 1469 l 450 1500 l 521 1500 q 589 1482 566 1500 q 612 1435 612 1465 q 587 1369 612 1406 l 549 1314 z "},"Ẫ":{"ha":840,"x_min":20,"x_max":819,"o":"m 20 0 l 398 1010 l 441 1010 l 819 0 l 786 0 l 493 783 q 453 891 473 837 q 413 1000 433 945 l 425 1000 q 386 891 406 945 q 345 783 366 837 l 54 0 l 20 0 m 170 334 l 170 365 l 670 365 l 670 334 l 170 334 m 273 1102 l 234 1102 l 234 1103 l 407 1289 l 432 1289 l 606 1103 l 606 1102 l 567 1102 l 419 1259 l 273 1102 m 507 1362 q 458 1375 479 1362 q 419 1402 437 1387 q 383 1430 401 1418 q 341 1442 365 1442 q 287 1422 308 1442 q 262 1367 266 1402 l 231 1367 q 264 1443 235 1413 q 336 1474 292 1474 q 390 1461 368 1474 q 429 1434 412 1449 q 464 1406 447 1418 q 502 1394 481 1394 q 550 1411 531 1394 q 576 1466 568 1428 l 608 1466 q 573 1390 600 1418 q 507 1362 546 1362 z "},"Ậ":{"ha":840,"x_min":20,"x_max":819,"o":"m 20 0 l 398 1010 l 441 1010 l 819 0 l 786 0 l 493 783 q 453 891 473 837 q 413 1000 433 945 l 425 1000 q 386 891 406 945 q 345 783 366 837 l 54 0 l 20 0 m 170 334 l 170 365 l 670 365 l 670 334 l 170 334 m 273 1133 l 233 1133 l 233 1134 l 406 1320 l 431 1320 l 606 1134 l 606 1133 l 567 1133 l 419 1291 l 273 1133 m 420 -242 q 397 -233 407 -242 q 388 -210 388 -223 q 397 -188 388 -197 q 420 -178 407 -178 q 443 -188 433 -178 q 452 -210 452 -197 q 443 -233 452 -223 q 420 -242 433 -242 z "},"Ắ":{"ha":840,"x_min":20,"x_max":819,"o":"m 20 0 l 398 1010 l 441 1010 l 819 0 l 786 0 l 493 783 q 453 891 473 837 q 413 1000 433 945 l 425 1000 q 386 891 406 945 q 345 783 366 837 l 54 0 l 20 0 m 170 334 l 170 365 l 670 365 l 670 334 l 170 334 m 420 1099 q 330 1123 370 1099 q 266 1187 290 1147 q 242 1276 242 1227 l 273 1276 q 316 1172 273 1215 q 420 1130 359 1130 q 523 1172 480 1130 q 566 1276 566 1215 l 597 1276 q 574 1187 597 1227 q 510 1123 550 1147 q 420 1099 470 1099 m 399 1314 l 524 1500 l 564 1500 l 433 1314 l 399 1314 z "},"Ằ":{"ha":840,"x_min":20,"x_max":819,"o":"m 20 0 l 398 1010 l 441 1010 l 819 0 l 786 0 l 493 783 q 453 891 473 837 q 413 1000 433 945 l 425 1000 q 386 891 406 945 q 345 783 366 837 l 54 0 l 20 0 m 170 334 l 170 365 l 670 365 l 670 334 l 170 334 m 420 1099 q 330 1123 370 1099 q 266 1187 290 1147 q 242 1276 242 1227 l 273 1276 q 316 1172 273 1215 q 420 1130 359 1130 q 523 1172 480 1130 q 566 1276 566 1215 l 597 1276 q 574 1187 597 1227 q 510 1123 550 1147 q 420 1099 470 1099 m 441 1314 l 407 1314 l 275 1500 l 315 1500 l 441 1314 z "},"Ẳ":{"ha":840,"x_min":20,"x_max":819,"o":"m 20 0 l 398 1010 l 441 1010 l 819 0 l 786 0 l 493 783 q 453 891 473 837 q 413 1000 433 945 l 425 1000 q 386 891 406 945 q 345 783 366 837 l 54 0 l 20 0 m 170 334 l 170 365 l 670 365 l 670 334 l 170 334 m 420 1099 q 330 1123 370 1099 q 266 1187 290 1147 q 242 1276 242 1227 l 273 1276 q 316 1172 273 1215 q 420 1130 359 1130 q 523 1172 480 1130 q 566 1276 566 1215 l 597 1276 q 574 1187 597 1227 q 510 1123 550 1147 q 420 1099 470 1099 m 435 1314 l 402 1314 l 446 1379 q 465 1446 474 1423 q 408 1469 456 1469 l 336 1469 l 336 1500 l 408 1500 q 476 1482 453 1500 q 499 1435 500 1465 q 473 1369 499 1406 l 435 1314 z "},"Ẵ":{"ha":840,"x_min":20,"x_max":819,"o":"m 20 0 l 398 1010 l 441 1010 l 819 0 l 786 0 l 493 783 q 453 891 473 837 q 413 1000 433 945 l 425 1000 q 386 891 406 945 q 345 783 366 837 l 54 0 l 20 0 m 170 334 l 170 365 l 670 365 l 670 334 l 170 334 m 420 1102 q 330 1126 370 1102 q 266 1191 290 1150 q 242 1280 242 1231 l 273 1280 q 316 1175 273 1218 q 420 1133 359 1133 q 523 1175 480 1133 q 566 1280 566 1218 l 597 1280 q 574 1191 597 1231 q 510 1126 550 1150 q 420 1102 470 1102 m 518 1363 q 469 1375 490 1363 q 430 1403 448 1388 q 394 1431 412 1419 q 352 1443 376 1443 q 298 1423 319 1443 q 273 1368 277 1403 l 242 1368 q 275 1444 246 1414 q 347 1474 303 1474 q 400 1462 378 1474 q 440 1434 422 1450 q 475 1407 458 1419 q 513 1394 492 1394 q 561 1411 542 1394 q 587 1467 579 1428 l 619 1467 q 584 1391 611 1419 q 518 1363 557 1363 z "},"Ặ":{"ha":840,"x_min":20,"x_max":819,"o":"m 20 0 l 398 1010 l 441 1010 l 819 0 l 786 0 l 493 783 q 453 891 473 837 q 413 1000 433 945 l 425 1000 q 386 891 406 945 q 345 783 366 837 l 54 0 l 20 0 m 170 334 l 170 365 l 670 365 l 670 334 l 170 334 m 420 1125 q 330 1149 370 1125 q 266 1214 290 1173 q 242 1303 242 1254 l 273 1303 q 316 1198 273 1241 q 420 1156 359 1156 q 523 1198 480 1156 q 566 1303 566 1241 l 597 1303 q 574 1214 597 1254 q 510 1149 550 1173 q 420 1125 470 1125 m 420 -242 q 397 -233 407 -242 q 388 -210 388 -223 q 397 -188 388 -197 q 420 -178 407 -178 q 443 -188 433 -178 q 452 -210 452 -197 q 443 -233 452 -223 q 420 -242 433 -242 z "},"Α":{"ha":840,"x_min":20,"x_max":819,"o":"m 20 0 l 398 1010 l 441 1010 l 819 0 l 786 0 l 493 783 q 453 891 473 837 q 413 1000 433 945 l 425 1000 q 386 891 406 945 q 345 783 366 837 l 54 0 l 20 0 m 170 334 l 170 365 l 670 365 l 670 334 l 170 334 z "},"Ά":{"ha":840,"x_min":20,"x_max":819,"o":"m 20 0 l 398 1010 l 441 1010 l 819 0 l 786 0 l 493 783 q 453 891 473 837 q 413 1000 433 945 l 425 1000 q 386 891 406 945 q 345 783 366 837 l 54 0 l 20 0 m 170 334 l 170 365 l 670 365 l 670 334 l 170 334 m 201 812 l 227 1010 l 260 1010 l 229 812 l 201 812 z "},"Ἀ":{"ha":870,"x_min":51,"x_max":850,"o":"m 51 0 l 429 1010 l 471 1010 l 850 0 l 817 0 l 524 783 q 483 891 503 837 q 444 1000 463 945 l 456 1000 q 416 891 436 945 q 376 783 396 837 l 84 0 l 51 0 m 201 334 l 201 365 l 701 365 l 701 334 l 201 334 m 158 809 l 147 809 l 147 840 l 158 840 q 222 861 198 840 q 247 912 247 881 q 222 963 247 944 q 158 983 198 983 l 125 983 l 125 1014 l 158 1014 q 244 986 211 1014 q 278 912 278 958 q 244 838 278 867 q 158 809 211 809 z "},"Ἁ":{"ha":870,"x_min":51,"x_max":850,"o":"m 51 0 l 429 1010 l 471 1010 l 850 0 l 817 0 l 524 783 q 483 891 503 837 q 444 1000 463 945 l 456 1000 q 416 891 436 945 q 376 783 396 837 l 84 0 l 51 0 m 201 334 l 201 365 l 701 365 l 701 334 l 201 334 m 237 808 q 151 837 184 808 q 117 911 117 865 q 151 985 117 957 q 237 1013 184 1013 l 270 1013 l 270 981 l 237 981 q 173 962 198 981 q 149 911 149 943 q 173 859 149 880 q 237 839 198 839 l 248 839 l 248 808 l 237 808 z "},"Ἂ":{"ha":950,"x_min":51,"x_max":930,"o":"m 131 0 l 509 1010 l 551 1010 l 930 0 l 897 0 l 604 783 q 563 891 583 837 q 524 1000 543 945 l 536 1000 q 496 891 516 945 q 456 783 476 837 l 164 0 l 131 0 m 281 334 l 281 365 l 781 365 l 781 334 l 281 334 m 83 808 l 73 808 l 73 839 l 83 839 q 148 859 123 839 q 172 911 172 880 q 148 962 172 943 q 83 981 123 981 l 51 981 l 51 1013 l 83 1013 q 170 985 136 1013 q 203 911 203 957 q 170 837 203 865 q 83 808 136 808 m 302 812 l 275 812 l 243 1010 l 277 1010 l 302 812 z "},"Ἃ":{"ha":953,"x_min":51,"x_max":932,"o":"m 133 0 l 511 1010 l 553 1010 l 932 0 l 899 0 l 606 783 q 565 891 585 837 q 526 1000 545 945 l 538 1000 q 498 891 518 945 q 458 783 478 837 l 166 0 l 133 0 m 283 334 l 283 365 l 783 365 l 783 334 l 283 334 m 171 808 q 84 837 118 808 q 51 911 51 865 q 84 985 51 957 q 171 1013 118 1013 l 203 1013 l 203 981 l 171 981 q 107 962 132 981 q 82 911 82 943 q 107 859 82 880 q 171 839 132 839 l 182 839 l 182 808 l 171 808 m 324 812 l 297 812 l 264 1010 l 298 1010 l 324 812 z "},"Ἄ":{"ha":946,"x_min":51,"x_max":926,"o":"m 126 0 l 504 1010 l 547 1010 l 925 0 l 892 0 l 599 783 q 558 891 578 837 q 519 1000 538 945 l 531 1000 q 491 891 511 945 q 451 783 471 837 l 159 0 l 126 0 m 276 334 l 276 365 l 776 365 l 776 334 l 276 334 m 83 808 l 73 808 l 73 839 l 83 839 q 148 859 123 839 q 172 911 172 880 q 148 962 172 943 q 83 981 123 981 l 51 981 l 51 1013 l 83 1013 q 170 985 136 1013 q 203 911 203 957 q 170 837 203 865 q 83 808 136 808 m 283 812 l 309 1010 l 342 1010 l 311 812 l 283 812 z "},"Ἅ":{"ha":947,"x_min":51,"x_max":926,"o":"m 127 0 l 505 1010 l 548 1010 l 926 0 l 893 0 l 600 783 q 560 891 580 837 q 520 1000 540 945 l 532 1000 q 493 891 513 945 q 452 783 473 837 l 161 0 l 127 0 m 277 334 l 277 365 l 777 365 l 777 334 l 277 334 m 171 808 q 84 837 118 808 q 51 911 51 865 q 84 985 51 957 q 171 1013 118 1013 l 203 1013 l 203 981 l 171 981 q 107 962 132 981 q 82 911 82 943 q 107 859 82 880 q 171 839 132 839 l 182 839 l 182 808 l 171 808 m 285 812 l 311 1010 l 345 1010 l 313 812 l 285 812 z "},"Ἆ":{"ha":915,"x_min":51,"x_max":894,"o":"m 95 0 l 473 1010 l 515 1010 l 894 0 l 861 0 l 568 783 q 527 891 547 837 q 488 1000 507 945 l 500 1000 q 460 891 480 945 q 420 783 440 837 l 128 0 l 95 0 m 245 334 l 245 365 l 745 365 l 745 334 l 245 334 m 195 806 l 184 806 l 184 837 l 195 837 q 260 857 235 837 q 284 909 284 878 q 260 960 284 941 q 195 979 235 979 l 163 979 l 163 1010 l 195 1010 q 282 983 248 1010 q 315 909 315 955 q 282 834 315 863 q 195 806 248 806 m 327 1078 q 277 1090 298 1078 q 239 1118 256 1103 q 203 1146 221 1134 q 161 1158 184 1158 q 106 1138 127 1158 q 82 1083 85 1118 l 51 1083 q 83 1159 55 1129 q 155 1190 112 1190 q 209 1177 187 1190 q 249 1149 231 1165 q 283 1122 267 1134 q 321 1109 300 1109 q 369 1126 351 1109 q 396 1182 388 1143 l 428 1182 q 393 1106 420 1134 q 327 1078 366 1078 z "},"Ἇ":{"ha":914,"x_min":51,"x_max":894,"o":"m 94 0 l 472 1010 l 515 1010 l 893 0 l 860 0 l 567 783 q 527 891 547 837 q 487 1000 507 945 l 499 1000 q 459 891 479 945 q 419 783 439 837 l 127 0 l 94 0 m 244 334 l 244 365 l 744 365 l 744 334 l 244 334 m 283 806 q 196 834 230 806 q 163 909 163 863 q 196 983 163 955 q 283 1010 230 1010 l 315 1010 l 315 979 l 283 979 q 219 960 243 979 q 194 909 194 941 q 219 857 194 878 q 283 837 243 837 l 294 837 l 294 806 l 283 806 m 327 1078 q 277 1090 298 1078 q 239 1118 256 1103 q 203 1146 221 1134 q 161 1158 184 1158 q 106 1138 127 1158 q 82 1083 85 1118 l 51 1083 q 83 1159 55 1129 q 155 1190 112 1190 q 209 1177 187 1190 q 249 1149 231 1165 q 283 1122 267 1134 q 321 1109 300 1109 q 369 1126 351 1109 q 396 1182 388 1143 l 428 1182 q 393 1106 420 1134 q 327 1078 366 1078 z "},"Ᾰ":{"ha":840,"x_min":20,"x_max":819,"o":"m 20 0 l 398 1010 l 441 1010 l 819 0 l 786 0 l 493 783 q 453 891 473 837 q 413 1000 433 945 l 425 1000 q 386 891 406 945 q 345 783 366 837 l 54 0 l 20 0 m 170 334 l 170 365 l 670 365 l 670 334 l 170 334 m 420 1125 q 330 1149 370 1125 q 266 1214 290 1173 q 242 1303 242 1254 l 273 1303 q 316 1198 273 1241 q 420 1156 359 1156 q 523 1198 480 1156 q 566 1303 566 1241 l 597 1303 q 574 1214 597 1254 q 510 1149 550 1173 q 420 1125 470 1125 z "},"Ᾱ":{"ha":840,"x_min":20,"x_max":819,"o":"m 20 0 l 398 1010 l 441 1010 l 819 0 l 786 0 l 493 783 q 453 891 473 837 q 413 1000 433 945 l 425 1000 q 386 891 406 945 q 345 783 366 837 l 54 0 l 20 0 m 170 334 l 170 365 l 670 365 l 670 334 l 170 334 m 578 1241 l 578 1210 l 262 1210 l 262 1241 l 578 1241 z "},"Ὰ":{"ha":840,"x_min":20,"x_max":819,"o":"m 20 0 l 398 1010 l 441 1010 l 819 0 l 786 0 l 493 783 q 453 891 473 837 q 413 1000 433 945 l 425 1000 q 386 891 406 945 q 345 783 366 837 l 54 0 l 20 0 m 170 334 l 170 365 l 670 365 l 670 334 l 170 334 m 191 817 l 163 817 l 130 1015 l 164 1015 l 191 817 z "},"Ⱥ":{"ha":840,"x_min":20,"x_max":819,"o":"m 637 1138 l 187 -129 l 153 -129 l 604 1138 l 637 1138 m 20 0 l 398 1010 l 441 1010 l 819 0 l 786 0 l 493 783 q 453 891 473 837 q 413 1000 433 945 l 425 1000 q 386 891 406 945 q 345 783 366 837 l 54 0 l 20 0 m 170 334 l 170 365 l 670 365 l 670 334 l 170 334 z "},"Ά":{"ha":870,"x_min":51,"x_max":850,"o":"m 51 0 l 429 1010 l 471 1010 l 850 0 l 817 0 l 524 783 q 483 891 503 837 q 444 1000 463 945 l 456 1000 q 416 891 436 945 q 376 783 396 837 l 84 0 l 51 0 m 201 334 l 201 365 l 701 365 l 701 334 l 201 334 m 231 812 l 258 1010 l 291 1010 l 259 812 l 231 812 z "},"А":{"ha":840,"x_min":20,"x_max":819,"o":"m 20 0 l 398 1010 l 441 1010 l 819 0 l 786 0 l 493 783 q 453 891 473 837 q 413 1000 433 945 l 425 1000 q 386 891 406 945 q 345 783 366 837 l 54 0 l 20 0 m 170 334 l 170 365 l 670 365 l 670 334 l 170 334 z "},"Ӑ":{"ha":840,"x_min":20,"x_max":819,"o":"m 20 0 l 398 1010 l 441 1010 l 819 0 l 786 0 l 493 783 q 453 891 473 837 q 413 1000 433 945 l 425 1000 q 386 891 406 945 q 345 783 366 837 l 54 0 l 20 0 m 170 334 l 170 365 l 670 365 l 670 334 l 170 334 m 420 1125 q 330 1149 370 1125 q 266 1214 290 1173 q 242 1303 242 1254 l 273 1303 q 316 1198 273 1241 q 420 1156 359 1156 q 523 1198 480 1156 q 566 1303 566 1241 l 597 1303 q 574 1214 597 1254 q 510 1149 550 1173 q 420 1125 470 1125 z "},"Ӓ":{"ha":840,"x_min":20,"x_max":819,"o":"m 20 0 l 398 1010 l 441 1010 l 819 0 l 786 0 l 493 783 q 453 891 473 837 q 413 1000 433 945 l 425 1000 q 386 891 406 945 q 345 783 366 837 l 54 0 l 20 0 m 170 334 l 170 365 l 670 365 l 670 334 l 170 334 m 557 1194 q 534 1203 544 1194 q 525 1226 525 1213 q 534 1248 525 1239 q 557 1257 544 1257 q 579 1248 570 1257 q 589 1226 589 1239 q 579 1203 589 1213 q 557 1194 570 1194 m 283 1194 q 260 1203 270 1194 q 251 1226 251 1213 q 260 1248 251 1239 q 283 1257 270 1257 q 306 1248 296 1257 q 315 1226 315 1239 q 306 1203 315 1213 q 283 1194 296 1194 z "},"ᾈ":{"ha":870,"x_min":51,"x_max":850,"o":"m 51 0 l 429 1010 l 471 1010 l 850 0 l 817 0 l 524 783 q 483 891 503 837 q 444 1000 463 945 l 456 1000 q 416 891 436 945 q 376 783 396 837 l 84 0 l 51 0 m 201 334 l 201 365 l 701 365 l 701 334 l 201 334 m 509 -286 q 456 -264 477 -286 q 435 -210 435 -243 l 435 -73 l 466 -73 l 466 -210 q 478 -244 466 -231 q 511 -257 490 -257 q 520 -257 515 -257 q 530 -256 526 -256 l 532 -286 q 521 -286 527 -286 q 509 -286 515 -286 m 158 809 l 147 809 l 147 840 l 158 840 q 222 861 198 840 q 247 912 247 881 q 222 963 247 944 q 158 983 198 983 l 125 983 l 125 1014 l 158 1014 q 244 986 211 1014 q 278 912 278 958 q 244 838 278 867 q 158 809 211 809 z "},"ᾉ":{"ha":870,"x_min":51,"x_max":850,"o":"m 51 0 l 429 1010 l 471 1010 l 850 0 l 817 0 l 524 783 q 483 891 503 837 q 444 1000 463 945 l 456 1000 q 416 891 436 945 q 376 783 396 837 l 84 0 l 51 0 m 201 334 l 201 365 l 701 365 l 701 334 l 201 334 m 509 -286 q 456 -264 477 -286 q 435 -210 435 -243 l 435 -73 l 466 -73 l 466 -210 q 478 -244 466 -231 q 511 -257 490 -257 q 520 -257 515 -257 q 530 -256 526 -256 l 532 -286 q 521 -286 527 -286 q 509 -286 515 -286 m 237 808 q 151 837 184 808 q 117 911 117 865 q 151 985 117 957 q 237 1013 184 1013 l 270 1013 l 270 981 l 237 981 q 173 962 198 981 q 149 911 149 943 q 173 859 149 880 q 237 839 198 839 l 248 839 l 248 808 l 237 808 z "},"ᾊ":{"ha":950,"x_min":51,"x_max":930,"o":"m 131 0 l 509 1010 l 551 1010 l 930 0 l 897 0 l 604 783 q 563 891 583 837 q 524 1000 543 945 l 536 1000 q 496 891 516 945 q 456 783 476 837 l 164 0 l 131 0 m 281 334 l 281 365 l 781 365 l 781 334 l 281 334 m 589 -286 q 536 -264 557 -286 q 515 -210 515 -243 l 515 -73 l 546 -73 l 546 -210 q 558 -244 546 -231 q 591 -257 570 -257 q 601 -257 595 -257 q 610 -256 606 -256 l 612 -286 q 601 -286 607 -286 q 589 -286 595 -286 m 83 808 l 73 808 l 73 839 l 83 839 q 148 859 123 839 q 172 911 172 880 q 148 962 172 943 q 83 981 123 981 l 51 981 l 51 1013 l 83 1013 q 170 985 136 1013 q 203 911 203 957 q 170 837 203 865 q 83 808 136 808 m 302 812 l 275 812 l 243 1010 l 277 1010 l 302 812 z "},"ᾋ":{"ha":953,"x_min":51,"x_max":932,"o":"m 133 0 l 511 1010 l 553 1010 l 932 0 l 899 0 l 606 783 q 565 891 585 837 q 526 1000 545 945 l 538 1000 q 498 891 518 945 q 458 783 478 837 l 166 0 l 133 0 m 283 334 l 283 365 l 783 365 l 783 334 l 283 334 m 591 -286 q 538 -264 559 -286 q 517 -210 517 -243 l 517 -73 l 548 -73 l 548 -210 q 560 -244 548 -231 q 593 -257 572 -257 q 603 -257 597 -257 q 612 -256 608 -256 l 614 -286 q 603 -286 609 -286 q 591 -286 597 -286 m 171 808 q 84 837 118 808 q 51 911 51 865 q 84 985 51 957 q 171 1013 118 1013 l 203 1013 l 203 981 l 171 981 q 107 962 132 981 q 82 911 82 943 q 107 859 82 880 q 171 839 132 839 l 182 839 l 182 808 l 171 808 m 324 812 l 297 812 l 264 1010 l 298 1010 l 324 812 z "},"ᾌ":{"ha":946,"x_min":51,"x_max":926,"o":"m 126 0 l 504 1010 l 547 1010 l 925 0 l 892 0 l 599 783 q 558 891 578 837 q 519 1000 538 945 l 531 1000 q 491 891 511 945 q 451 783 471 837 l 159 0 l 126 0 m 276 334 l 276 365 l 776 365 l 776 334 l 276 334 m 83 808 l 73 808 l 73 839 l 83 839 q 148 859 123 839 q 172 911 172 880 q 148 962 172 943 q 83 981 123 981 l 51 981 l 51 1013 l 83 1013 q 170 985 136 1013 q 203 911 203 957 q 170 837 203 865 q 83 808 136 808 m 283 812 l 309 1010 l 342 1010 l 311 812 l 283 812 m 584 -286 q 531 -264 552 -286 q 510 -210 510 -243 l 510 -73 l 541 -73 l 541 -210 q 553 -244 541 -231 q 586 -257 566 -257 q 596 -257 591 -257 q 606 -256 601 -256 l 607 -286 q 596 -286 602 -286 q 584 -286 590 -286 z "},"ᾍ":{"ha":947,"x_min":51,"x_max":926,"o":"m 127 0 l 505 1010 l 548 1010 l 926 0 l 893 0 l 600 783 q 560 891 580 837 q 520 1000 540 945 l 532 1000 q 493 891 513 945 q 452 783 473 837 l 161 0 l 127 0 m 277 334 l 277 365 l 777 365 l 777 334 l 277 334 m 585 -286 q 532 -264 553 -286 q 511 -210 511 -243 l 511 -73 l 543 -73 l 543 -210 q 555 -244 543 -231 q 587 -257 567 -257 q 597 -257 592 -257 q 607 -256 602 -256 l 608 -286 q 597 -286 604 -286 q 585 -286 591 -286 m 171 808 q 84 837 118 808 q 51 911 51 865 q 84 985 51 957 q 171 1013 118 1013 l 203 1013 l 203 981 l 171 981 q 107 962 132 981 q 82 911 82 943 q 107 859 82 880 q 171 839 132 839 l 182 839 l 182 808 l 171 808 m 285 812 l 311 1010 l 345 1010 l 313 812 l 285 812 z "},"ᾎ":{"ha":915,"x_min":51,"x_max":894,"o":"m 95 0 l 473 1010 l 515 1010 l 894 0 l 861 0 l 568 783 q 527 891 547 837 q 488 1000 507 945 l 500 1000 q 460 891 480 945 q 420 783 440 837 l 128 0 l 95 0 m 245 334 l 245 365 l 745 365 l 745 334 l 245 334 m 195 806 l 184 806 l 184 837 l 195 837 q 260 857 235 837 q 284 909 284 878 q 260 960 284 941 q 195 979 235 979 l 163 979 l 163 1010 l 195 1010 q 282 983 248 1010 q 315 909 315 955 q 282 834 315 863 q 195 806 248 806 m 327 1078 q 277 1090 298 1078 q 239 1118 256 1103 q 203 1146 221 1134 q 161 1158 184 1158 q 106 1138 127 1158 q 82 1083 85 1118 l 51 1083 q 83 1159 55 1129 q 155 1190 112 1190 q 209 1177 187 1190 q 249 1149 231 1165 q 283 1122 267 1134 q 321 1109 300 1109 q 369 1126 351 1109 q 396 1182 388 1143 l 428 1182 q 393 1106 420 1134 q 327 1078 366 1078 m 553 -286 q 500 -264 521 -286 q 479 -210 479 -243 l 479 -73 l 510 -73 l 510 -210 q 522 -244 510 -231 q 555 -257 534 -257 q 565 -257 559 -257 q 574 -256 570 -256 l 576 -286 q 565 -286 571 -286 q 553 -286 559 -286 z "},"ᾏ":{"ha":914,"x_min":51,"x_max":894,"o":"m 94 0 l 472 1010 l 515 1010 l 893 0 l 860 0 l 567 783 q 527 891 547 837 q 487 1000 507 945 l 499 1000 q 459 891 479 945 q 419 783 439 837 l 127 0 l 94 0 m 244 334 l 244 365 l 744 365 l 744 334 l 244 334 m 552 -286 q 499 -264 520 -286 q 478 -210 478 -243 l 478 -73 l 509 -73 l 509 -210 q 522 -244 509 -231 q 554 -257 534 -257 q 564 -257 559 -257 q 574 -256 569 -256 l 575 -286 q 564 -286 570 -286 q 552 -286 558 -286 m 283 806 q 196 834 230 806 q 163 909 163 863 q 196 983 163 955 q 283 1010 230 1010 l 315 1010 l 315 979 l 283 979 q 219 960 243 979 q 194 909 194 941 q 219 857 194 878 q 283 837 243 837 l 294 837 l 294 806 l 283 806 m 327 1078 q 277 1090 298 1078 q 239 1118 256 1103 q 203 1146 221 1134 q 161 1158 184 1158 q 106 1138 127 1158 q 82 1083 85 1118 l 51 1083 q 83 1159 55 1129 q 155 1190 112 1190 q 209 1177 187 1190 q 249 1149 231 1165 q 283 1122 267 1134 q 321 1109 300 1109 q 369 1126 351 1109 q 396 1182 388 1143 l 428 1182 q 393 1106 420 1134 q 327 1078 366 1078 z "},"ᾼ":{"ha":840,"x_min":20,"x_max":819,"o":"m 20 0 l 398 1010 l 441 1010 l 819 0 l 786 0 l 493 783 q 453 891 473 837 q 413 1000 433 945 l 425 1000 q 386 891 406 945 q 345 783 366 837 l 54 0 l 20 0 m 170 334 l 170 365 l 670 365 l 670 334 l 170 334 m 478 -286 q 425 -264 446 -286 q 404 -210 404 -243 l 404 -73 l 435 -73 l 435 -210 q 448 -244 435 -231 q 480 -257 460 -257 q 490 -257 485 -257 q 500 -256 495 -256 l 501 -286 q 490 -286 496 -286 q 478 -286 484 -286 z "},"Λ":{"ha":840,"x_min":20,"x_max":819,"o":"m 20 0 l 398 1010 l 441 1010 l 819 0 l 786 0 l 493 783 q 453 891 473 837 q 413 1000 433 945 l 425 1000 q 386 891 406 945 q 345 783 366 837 l 54 0 l 20 0 z "},"Æ":{"ha":1267,"x_min":20,"x_max":1206,"o":"m 20 0 l 536 1010 l 1191 1010 l 1191 979 l 685 979 l 685 521 l 1162 521 l 1162 490 l 685 490 l 685 31 l 1206 31 l 1206 0 l 654 0 l 654 979 l 555 979 l 56 0 l 20 0 m 217 342 l 217 373 l 670 373 l 670 342 l 217 342 z "},"Ǣ":{"ha":1267,"x_min":20,"x_max":1206,"o":"m 20 0 l 536 1010 l 1191 1010 l 1191 979 l 685 979 l 685 521 l 1162 521 l 1162 490 l 685 490 l 685 31 l 1206 31 l 1206 0 l 654 0 l 654 979 l 555 979 l 56 0 l 20 0 m 217 342 l 217 373 l 670 373 l 670 342 l 217 342 m 984 1241 l 984 1210 l 669 1210 l 669 1241 l 984 1241 z "},"Ǽ":{"ha":1267,"x_min":20,"x_max":1206,"o":"m 20 0 l 536 1010 l 1191 1010 l 1191 979 l 685 979 l 685 521 l 1162 521 l 1162 490 l 685 490 l 685 31 l 1206 31 l 1206 0 l 654 0 l 654 979 l 555 979 l 56 0 l 20 0 m 217 342 l 217 373 l 670 373 l 670 342 l 217 342 m 810 1107 l 896 1305 l 932 1305 l 839 1107 l 810 1107 z "},"Ӕ":{"ha":1267,"x_min":20,"x_max":1206,"o":"m 20 0 l 536 1010 l 1191 1010 l 1191 979 l 685 979 l 685 521 l 1162 521 l 1162 490 l 685 490 l 685 31 l 1206 31 l 1206 0 l 654 0 l 654 979 l 555 979 l 56 0 l 20 0 m 217 342 l 217 373 l 670 373 l 670 342 l 217 342 z "},"B":{"ha":849,"x_min":123,"x_max":773,"o":"m 123 0 l 123 1010 l 438 1010 q 593 980 527 1010 q 697 891 660 949 q 734 754 734 833 q 710 645 734 694 q 648 563 687 596 q 560 515 608 529 l 560 513 q 663 473 614 505 q 742 389 711 441 q 773 267 773 336 q 736 127 773 187 q 633 34 700 67 q 472 0 566 0 l 123 0 m 155 31 l 472 31 q 670 97 597 31 q 742 267 742 162 q 704 390 742 338 q 605 470 667 442 q 472 498 543 498 l 155 498 l 155 31 m 155 529 l 472 529 q 593 560 541 529 q 674 643 645 591 q 703 754 703 694 q 629 920 703 861 q 438 979 556 979 l 155 979 l 155 529 z "},"Ḃ":{"ha":849,"x_min":123,"x_max":773,"o":"m 123 0 l 123 1010 l 438 1010 q 593 980 527 1010 q 697 891 660 949 q 734 754 734 833 q 710 645 734 694 q 648 563 687 596 q 560 515 608 529 l 560 513 q 663 473 614 505 q 742 389 711 441 q 773 267 773 336 q 736 127 773 187 q 633 34 700 67 q 472 0 566 0 l 123 0 m 155 31 l 472 31 q 670 97 597 31 q 742 267 742 162 q 704 390 742 338 q 605 470 667 442 q 472 498 543 498 l 155 498 l 155 31 m 155 529 l 472 529 q 593 560 541 529 q 674 643 645 591 q 703 754 703 694 q 629 920 703 861 q 438 979 556 979 l 155 979 l 155 529 m 400 1188 q 377 1198 387 1188 q 368 1221 368 1207 q 377 1243 368 1234 q 400 1252 387 1252 q 422 1243 413 1252 q 431 1221 431 1234 q 422 1198 431 1207 q 400 1188 413 1188 z "},"Ḅ":{"ha":849,"x_min":123,"x_max":773,"o":"m 123 0 l 123 1010 l 438 1010 q 593 980 527 1010 q 697 891 660 949 q 734 754 734 833 q 710 645 734 694 q 648 563 687 596 q 560 515 608 529 l 560 513 q 663 473 614 505 q 742 389 711 441 q 773 267 773 336 q 736 127 773 187 q 633 34 700 67 q 472 0 566 0 l 123 0 m 155 31 l 472 31 q 670 97 597 31 q 742 267 742 162 q 704 390 742 338 q 605 470 667 442 q 472 498 543 498 l 155 498 l 155 31 m 155 529 l 472 529 q 593 560 541 529 q 674 643 645 591 q 703 754 703 694 q 629 920 703 861 q 438 979 556 979 l 155 979 l 155 529 m 412 -242 q 389 -233 399 -242 q 380 -210 380 -223 q 389 -188 380 -197 q 412 -178 399 -178 q 434 -188 425 -178 q 444 -210 444 -197 q 434 -233 444 -223 q 412 -242 425 -242 z "},"Ḇ":{"ha":849,"x_min":123,"x_max":773,"o":"m 123 0 l 123 1010 l 438 1010 q 593 980 527 1010 q 697 891 660 949 q 734 754 734 833 q 710 645 734 694 q 648 563 687 596 q 560 515 608 529 l 560 513 q 663 473 614 505 q 742 389 711 441 q 773 267 773 336 q 736 127 773 187 q 633 34 700 67 q 472 0 566 0 l 123 0 m 155 31 l 472 31 q 670 97 597 31 q 742 267 742 162 q 704 390 742 338 q 605 470 667 442 q 472 498 543 498 l 155 498 l 155 31 m 155 529 l 472 529 q 593 560 541 529 q 674 643 645 591 q 703 754 703 694 q 629 920 703 861 q 438 979 556 979 l 155 979 l 155 529 m 570 -195 l 570 -226 l 254 -226 l 254 -195 l 570 -195 z "},"Ƀ":{"ha":849,"x_min":14,"x_max":773,"o":"m 123 0 l 123 1010 l 438 1010 q 593 980 527 1010 q 697 891 660 949 q 734 754 734 833 q 710 645 734 694 q 648 563 687 596 q 560 515 608 529 l 560 513 q 663 473 614 505 q 742 389 711 441 q 773 267 773 336 q 736 127 773 187 q 633 34 700 67 q 472 0 566 0 l 123 0 m 155 31 l 472 31 q 670 97 597 31 q 742 267 742 162 q 704 390 742 338 q 605 470 667 442 q 472 498 543 498 l 155 498 l 155 31 m 155 529 l 472 529 q 593 560 541 529 q 674 643 645 591 q 703 754 703 694 q 629 920 703 861 q 438 979 556 979 l 155 979 l 155 529 m 14 250 l 14 279 l 300 279 l 300 250 l 14 250 z "},"Ɓ":{"ha":958,"x_min":24,"x_max":882,"o":"m 24 758 l 24 868 q 59 974 24 937 q 157 1010 93 1010 l 232 1010 l 232 979 l 160 979 q 81 952 106 979 q 56 868 56 925 l 56 758 l 24 758 m 232 0 l 232 1010 l 547 1010 q 702 980 635 1010 q 805 891 768 949 q 842 754 842 833 q 819 645 842 694 q 756 563 795 596 q 669 515 717 529 l 669 513 q 771 473 722 505 q 851 389 820 441 q 882 267 882 336 q 845 127 882 187 q 741 34 808 67 q 581 0 674 0 l 232 0 m 263 31 l 581 31 q 778 97 706 31 q 850 267 850 162 q 813 390 850 338 q 713 470 775 442 q 581 498 652 498 l 263 498 l 263 31 m 263 529 l 581 529 q 702 560 650 529 q 782 643 753 591 q 811 754 811 694 q 738 920 811 861 q 547 979 665 979 l 263 979 l 263 529 z "},"В":{"ha":849,"x_min":123,"x_max":773,"o":"m 123 0 l 123 1010 l 438 1010 q 593 980 527 1010 q 697 891 660 949 q 734 754 734 833 q 710 645 734 694 q 648 563 687 596 q 560 515 608 529 l 560 513 q 663 473 614 505 q 742 389 711 441 q 773 267 773 336 q 736 127 773 187 q 633 34 700 67 q 472 0 566 0 l 123 0 m 155 31 l 472 31 q 670 97 597 31 q 742 267 742 162 q 704 390 742 338 q 605 470 667 442 q 472 498 543 498 l 155 498 l 155 31 m 155 529 l 472 529 q 593 560 541 529 q 674 643 645 591 q 703 754 703 694 q 629 920 703 861 q 438 979 556 979 l 155 979 l 155 529 z "},"Β":{"ha":849,"x_min":123,"x_max":773,"o":"m 123 0 l 123 1010 l 438 1010 q 593 980 527 1010 q 697 891 660 949 q 734 754 734 833 q 710 645 734 694 q 648 563 687 596 q 560 515 608 529 l 560 513 q 663 473 614 505 q 742 389 711 441 q 773 267 773 336 q 736 127 773 187 q 633 34 700 67 q 472 0 566 0 l 123 0 m 155 31 l 472 31 q 670 97 597 31 q 742 267 742 162 q 704 390 742 338 q 605 470 667 442 q 472 498 543 498 l 155 498 l 155 31 m 155 529 l 472 529 q 593 560 541 529 q 674 643 645 591 q 703 754 703 694 q 629 920 703 861 q 438 979 556 979 l 155 979 l 155 529 z "},"C":{"ha":936,"x_min":66,"x_max":872,"o":"m 486 -12 q 267 53 361 -12 q 119 234 172 118 q 66 505 66 350 q 119 776 66 660 q 267 957 172 892 q 486 1022 361 1022 q 643 992 574 1022 q 759 912 711 962 q 834 806 806 863 q 872 694 863 749 l 840 694 q 803 799 830 747 q 731 895 776 851 q 626 964 687 938 q 486 991 564 991 q 294 935 382 991 q 152 770 205 878 q 98 505 98 662 q 152 238 98 346 q 294 75 205 130 q 486 20 382 20 q 626 46 564 20 q 731 116 687 73 q 803 212 775 160 q 840 316 830 264 l 872 316 q 834 205 863 262 q 759 99 806 149 q 643 19 711 50 q 486 -12 574 -12 z "},"Ƈ":{"ha":936,"x_min":66,"x_max":1015,"o":"m 841 694 l 841 1002 q 872 1104 841 1072 q 966 1137 903 1137 q 989 1137 975 1137 q 1015 1137 1003 1137 l 1015 1105 q 988 1105 1002 1105 q 966 1105 975 1105 q 895 1082 917 1105 q 872 1002 872 1058 l 872 694 l 841 694 m 486 -12 q 267 53 361 -12 q 119 234 172 118 q 66 505 66 350 q 119 776 66 660 q 267 957 172 892 q 486 1022 361 1022 q 643 992 574 1022 q 759 912 711 962 q 834 806 806 863 q 872 694 863 749 l 840 694 q 803 799 830 747 q 731 895 776 851 q 626 964 687 938 q 486 991 564 991 q 294 935 382 991 q 152 770 205 878 q 98 505 98 662 q 152 238 98 346 q 294 75 205 130 q 486 20 382 20 q 626 46 564 20 q 731 116 687 73 q 803 212 775 160 q 840 316 830 264 l 872 316 q 834 205 863 262 q 759 99 806 149 q 643 19 711 50 q 486 -12 574 -12 z "},"Ç":{"ha":936,"x_min":66,"x_max":872,"o":"m 486 -12 q 267 53 361 -12 q 119 234 172 118 q 66 505 66 350 q 119 776 66 660 q 267 957 172 892 q 486 1022 361 1022 q 643 992 574 1022 q 759 912 711 962 q 834 806 806 863 q 872 694 863 749 l 840 694 q 803 799 830 747 q 731 895 776 851 q 626 964 687 938 q 486 991 564 991 q 294 935 382 991 q 152 770 205 878 q 98 505 98 662 q 152 238 98 346 q 294 75 205 130 q 486 20 382 20 q 626 46 564 20 q 731 116 687 73 q 803 212 775 160 q 840 316 830 264 l 872 316 q 834 205 863 262 q 759 99 806 149 q 643 19 711 50 q 486 -12 574 -12 m 423 -283 l 423 -252 l 490 -252 q 557 -232 533 -252 q 581 -177 581 -212 q 557 -122 581 -142 q 485 -101 533 -101 l 445 -101 l 472 12 l 501 12 l 501 0 l 484 -70 q 578 -100 545 -71 q 612 -177 612 -128 q 579 -255 612 -226 q 490 -283 546 -283 l 423 -283 z "},"Ć":{"ha":936,"x_min":66,"x_max":872,"o":"m 486 -12 q 267 53 361 -12 q 119 234 172 118 q 66 505 66 350 q 119 776 66 660 q 267 957 172 892 q 486 1022 361 1022 q 643 992 574 1022 q 759 912 711 962 q 834 806 806 863 q 872 694 863 749 l 840 694 q 803 799 830 747 q 731 895 776 851 q 626 964 687 938 q 486 991 564 991 q 294 935 382 991 q 152 770 205 878 q 98 505 98 662 q 152 238 98 346 q 294 75 205 130 q 486 20 382 20 q 626 46 564 20 q 731 116 687 73 q 803 212 775 160 q 840 316 830 264 l 872 316 q 834 205 863 262 q 759 99 806 149 q 643 19 711 50 q 486 -12 574 -12 m 469 1107 l 555 1305 l 591 1305 l 498 1107 l 469 1107 z "},"Ĉ":{"ha":936,"x_min":66,"x_max":872,"o":"m 486 -12 q 267 53 361 -12 q 119 234 172 118 q 66 505 66 350 q 119 776 66 660 q 267 957 172 892 q 486 1022 361 1022 q 643 992 574 1022 q 759 912 711 962 q 834 806 806 863 q 872 694 863 749 l 840 694 q 803 799 830 747 q 731 895 776 851 q 626 964 687 938 q 486 991 564 991 q 294 935 382 991 q 152 770 205 878 q 98 505 98 662 q 152 238 98 346 q 294 75 205 130 q 486 20 382 20 q 626 46 564 20 q 731 116 687 73 q 803 212 775 160 q 840 316 830 264 l 872 316 q 834 205 863 262 q 759 99 806 149 q 643 19 711 50 q 486 -12 574 -12 m 338 1133 l 299 1133 l 299 1134 l 472 1320 l 497 1320 l 671 1134 l 671 1133 l 633 1133 l 485 1291 l 338 1133 z "},"Ċ":{"ha":936,"x_min":66,"x_max":872,"o":"m 486 -12 q 267 53 361 -12 q 119 234 172 118 q 66 505 66 350 q 119 776 66 660 q 267 957 172 892 q 486 1022 361 1022 q 643 992 574 1022 q 759 912 711 962 q 834 806 806 863 q 872 694 863 749 l 840 694 q 803 799 830 747 q 731 895 776 851 q 626 964 687 938 q 486 991 564 991 q 294 935 382 991 q 152 770 205 878 q 98 505 98 662 q 152 238 98 346 q 294 75 205 130 q 486 20 382 20 q 626 46 564 20 q 731 116 687 73 q 803 212 775 160 q 840 316 830 264 l 872 316 q 834 205 863 262 q 759 99 806 149 q 643 19 711 50 q 486 -12 574 -12 m 486 1194 q 463 1203 473 1194 q 454 1226 454 1213 q 463 1248 454 1239 q 486 1257 473 1257 q 508 1248 499 1257 q 517 1226 517 1239 q 508 1203 517 1213 q 486 1194 499 1194 z "},"Č":{"ha":936,"x_min":66,"x_max":872,"o":"m 486 -12 q 267 53 361 -12 q 119 234 172 118 q 66 505 66 350 q 119 776 66 660 q 267 957 172 892 q 486 1022 361 1022 q 643 992 574 1022 q 759 912 711 962 q 834 806 806 863 q 872 694 863 749 l 840 694 q 803 799 830 747 q 731 895 776 851 q 626 964 687 938 q 486 991 564 991 q 294 935 382 991 q 152 770 205 878 q 98 505 98 662 q 152 238 98 346 q 294 75 205 130 q 486 20 382 20 q 626 46 564 20 q 731 116 687 73 q 803 212 775 160 q 840 316 830 264 l 872 316 q 834 205 863 262 q 759 99 806 149 q 643 19 711 50 q 486 -12 574 -12 m 338 1318 l 485 1161 l 633 1318 l 671 1318 l 671 1317 l 497 1132 l 472 1132 l 299 1317 l 299 1318 l 338 1318 z "},"Ḉ":{"ha":936,"x_min":66,"x_max":872,"o":"m 486 -12 q 267 53 361 -12 q 119 234 172 118 q 66 505 66 350 q 119 776 66 660 q 267 957 172 892 q 486 1022 361 1022 q 643 992 574 1022 q 759 912 711 962 q 834 806 806 863 q 872 694 863 749 l 840 694 q 803 799 830 747 q 731 895 776 851 q 626 964 687 938 q 486 991 564 991 q 294 935 382 991 q 152 770 205 878 q 98 505 98 662 q 152 238 98 346 q 294 75 205 130 q 486 20 382 20 q 626 46 564 20 q 731 116 687 73 q 803 212 775 160 q 840 316 830 264 l 872 316 q 834 205 863 262 q 759 99 806 149 q 643 19 711 50 q 486 -12 574 -12 m 423 -283 l 423 -252 l 490 -252 q 557 -232 533 -252 q 581 -177 581 -212 q 557 -122 581 -142 q 485 -101 533 -101 l 445 -101 l 472 12 l 501 12 l 501 0 l 484 -70 q 578 -100 545 -71 q 612 -177 612 -128 q 579 -255 612 -226 q 490 -283 546 -283 l 423 -283 m 469 1107 l 555 1305 l 591 1305 l 498 1107 l 469 1107 z "},"Ȼ":{"ha":936,"x_min":66,"x_max":872,"o":"m 214 -129 l 705 1138 l 739 1138 l 248 -129 l 214 -129 m 486 -12 q 267 53 361 -12 q 119 234 172 118 q 66 505 66 350 q 119 776 66 660 q 267 957 172 892 q 486 1022 361 1022 q 643 992 574 1022 q 759 912 711 962 q 834 806 806 863 q 872 694 863 749 l 840 694 q 803 799 830 747 q 731 895 776 851 q 626 964 687 938 q 486 991 564 991 q 294 935 382 991 q 152 770 205 878 q 98 505 98 662 q 152 238 98 346 q 294 75 205 130 q 486 20 382 20 q 626 46 564 20 q 731 116 687 73 q 803 212 775 160 q 840 316 830 264 l 872 316 q 834 205 863 262 q 759 99 806 149 q 643 19 711 50 q 486 -12 574 -12 z "},"Ɔ":{"ha":936,"x_min":64,"x_max":869,"o":"m 450 1022 q 669 957 575 1022 q 817 777 764 892 q 869 506 869 661 q 817 235 869 351 q 669 54 764 119 q 450 -12 575 -12 q 293 19 361 -12 q 177 99 225 50 q 101 205 130 148 q 64 316 73 262 l 96 316 q 133 212 106 264 q 204 116 160 159 q 310 46 249 73 q 450 20 372 20 q 643 76 554 20 q 785 241 731 132 q 838 506 838 349 q 785 772 838 665 q 643 936 731 880 q 450 991 554 991 q 311 964 372 991 q 205 894 249 938 q 133 798 161 850 q 96 694 106 746 l 64 694 q 101 805 73 748 q 177 911 130 862 q 293 991 225 961 q 450 1022 361 1022 z "},"Ϲ":{"ha":936,"x_min":66,"x_max":872,"o":"m 486 -12 q 267 53 361 -12 q 119 234 172 118 q 66 505 66 350 q 119 776 66 660 q 267 957 172 892 q 486 1022 361 1022 q 643 992 574 1022 q 759 912 711 962 q 834 806 806 863 q 872 694 863 749 l 840 694 q 803 799 830 747 q 731 895 776 851 q 626 964 687 938 q 486 991 564 991 q 294 935 382 991 q 152 770 205 878 q 98 505 98 662 q 152 238 98 346 q 294 75 205 130 q 486 20 382 20 q 626 46 564 20 q 731 116 687 73 q 803 212 775 160 q 840 316 830 264 l 872 316 q 834 205 863 262 q 759 99 806 149 q 643 19 711 50 q 486 -12 574 -12 z "},"D":{"ha":924,"x_min":123,"x_max":857,"o":"m 388 0 l 140 0 l 140 31 l 388 31 q 626 88 528 31 q 775 252 724 145 q 826 509 826 359 q 778 762 826 656 q 637 923 729 867 q 414 979 545 979 l 140 979 l 140 1010 l 414 1010 q 652 950 553 1010 q 804 778 751 890 q 857 509 857 666 q 802 234 857 348 q 642 60 747 120 q 388 0 536 0 m 155 1010 l 155 0 l 123 0 l 123 1010 l 155 1010 z "},"Ɗ":{"ha":1032,"x_min":24,"x_max":966,"o":"m 24 758 l 24 868 q 59 974 24 937 q 157 1010 93 1010 l 232 1010 l 232 979 l 160 979 q 81 952 106 979 q 56 868 56 925 l 56 758 l 24 758 m 496 0 l 248 0 l 248 31 l 496 31 q 735 88 637 31 q 884 252 833 145 q 935 509 935 359 q 886 762 935 656 q 746 923 838 867 q 522 979 654 979 l 248 979 l 248 1010 l 522 1010 q 761 950 662 1010 q 913 778 860 890 q 966 509 966 666 q 910 234 966 348 q 750 60 854 120 q 496 0 645 0 m 263 1010 l 263 0 l 232 0 l 232 1010 l 263 1010 z "},"Ď":{"ha":924,"x_min":123,"x_max":857,"o":"m 388 0 l 140 0 l 140 31 l 388 31 q 626 88 528 31 q 775 252 724 145 q 826 509 826 359 q 778 762 826 656 q 637 923 729 867 q 414 979 545 979 l 140 979 l 140 1010 l 414 1010 q 652 950 553 1010 q 804 778 751 890 q 857 509 857 666 q 802 234 857 348 q 642 60 747 120 q 388 0 536 0 m 155 1010 l 155 0 l 123 0 l 123 1010 l 155 1010 m 248 1318 l 394 1161 l 542 1318 l 581 1318 l 581 1317 l 406 1132 l 381 1132 l 208 1317 l 208 1318 l 248 1318 z "},"Ḋ":{"ha":924,"x_min":123,"x_max":857,"o":"m 388 0 l 140 0 l 140 31 l 388 31 q 626 88 528 31 q 775 252 724 145 q 826 509 826 359 q 778 762 826 656 q 637 923 729 867 q 414 979 545 979 l 140 979 l 140 1010 l 414 1010 q 652 950 553 1010 q 804 778 751 890 q 857 509 857 666 q 802 234 857 348 q 642 60 747 120 q 388 0 536 0 m 155 1010 l 155 0 l 123 0 l 123 1010 l 155 1010 m 395 1194 q 372 1203 382 1194 q 363 1226 363 1213 q 372 1248 363 1239 q 395 1257 382 1257 q 417 1248 408 1257 q 427 1226 427 1239 q 417 1203 427 1213 q 395 1194 408 1194 z "},"Ḍ":{"ha":924,"x_min":123,"x_max":857,"o":"m 388 0 l 140 0 l 140 31 l 388 31 q 626 88 528 31 q 775 252 724 145 q 826 509 826 359 q 778 762 826 656 q 637 923 729 867 q 414 979 545 979 l 140 979 l 140 1010 l 414 1010 q 652 950 553 1010 q 804 778 751 890 q 857 509 857 666 q 802 234 857 348 q 642 60 747 120 q 388 0 536 0 m 155 1010 l 155 0 l 123 0 l 123 1010 l 155 1010 m 367 -242 q 344 -233 353 -242 q 334 -210 334 -223 q 344 -188 334 -197 q 367 -178 353 -178 q 389 -188 380 -178 q 398 -210 398 -197 q 389 -233 398 -223 q 367 -242 380 -242 z "},"Ḏ":{"ha":924,"x_min":123,"x_max":857,"o":"m 388 0 l 140 0 l 140 31 l 388 31 q 626 88 528 31 q 775 252 724 145 q 826 509 826 359 q 778 762 826 656 q 637 923 729 867 q 414 979 545 979 l 140 979 l 140 1010 l 414 1010 q 652 950 553 1010 q 804 778 751 890 q 857 509 857 666 q 802 234 857 348 q 642 60 747 120 q 388 0 536 0 m 155 1010 l 155 0 l 123 0 l 123 1010 l 155 1010 m 524 -195 l 524 -226 l 209 -226 l 209 -195 l 524 -195 z "},"Ḑ":{"ha":924,"x_min":123,"x_max":857,"o":"m 388 0 l 140 0 l 140 31 l 388 31 q 626 88 528 31 q 775 252 724 145 q 826 509 826 359 q 778 762 826 656 q 637 923 729 867 q 414 979 545 979 l 140 979 l 140 1010 l 414 1010 q 652 950 553 1010 q 804 778 751 890 q 857 509 857 666 q 802 234 857 348 q 642 60 747 120 q 388 0 536 0 m 155 1010 l 155 0 l 123 0 l 123 1010 l 155 1010 m 282 -335 l 347 -80 l 381 -80 l 308 -335 l 282 -335 z "},"Ḓ":{"ha":924,"x_min":123,"x_max":857,"o":"m 388 0 l 140 0 l 140 31 l 388 31 q 626 88 528 31 q 775 252 724 145 q 826 509 826 359 q 778 762 826 656 q 637 923 729 867 q 414 979 545 979 l 140 979 l 140 1010 l 414 1010 q 652 950 553 1010 q 804 778 751 890 q 857 509 857 666 q 802 234 857 348 q 642 60 747 120 q 388 0 536 0 m 155 1010 l 155 0 l 123 0 l 123 1010 l 155 1010 m 219 -304 l 180 -304 l 180 -302 l 353 -117 l 378 -117 l 552 -302 l 552 -304 l 513 -304 l 366 -146 l 219 -304 z "},"Ɖ":{"ha":933,"x_min":20,"x_max":867,"o":"m 397 0 l 149 0 l 149 31 l 397 31 q 636 88 538 31 q 785 252 734 145 q 836 509 836 359 q 787 762 836 656 q 647 923 739 867 q 423 979 555 979 l 149 979 l 149 1010 l 423 1010 q 662 950 563 1010 q 814 778 761 890 q 867 509 867 666 q 811 234 867 348 q 651 60 756 120 q 397 0 546 0 m 164 1010 l 164 0 l 133 0 l 133 1010 l 164 1010 m 20 490 l 20 520 l 381 520 l 381 490 l 20 490 z "},"ǲ":{"ha":1568,"x_min":123,"x_max":1502,"o":"m 388 0 l 140 0 l 140 31 l 388 31 q 626 88 528 31 q 775 252 724 145 q 826 509 826 359 q 778 762 826 656 q 637 923 729 867 q 414 979 545 979 l 140 979 l 140 1010 l 414 1010 q 652 950 553 1010 q 804 778 751 890 q 857 509 857 666 q 802 234 857 348 q 642 60 747 120 q 388 0 536 0 m 155 1010 l 155 0 l 123 0 l 123 1010 l 155 1010 m 989 0 l 989 31 l 1457 693 l 1457 694 l 1001 694 l 1001 726 l 1494 726 l 1494 693 l 1028 33 l 1028 31 l 1502 31 l 1502 0 l 989 0 z "},"ǅ":{"ha":1568,"x_min":123,"x_max":1502,"o":"m 388 0 l 140 0 l 140 31 l 388 31 q 626 88 528 31 q 775 252 724 145 q 826 509 826 359 q 778 762 826 656 q 637 923 729 867 q 414 979 545 979 l 140 979 l 140 1010 l 414 1010 q 652 950 553 1010 q 804 778 751 890 q 857 509 857 666 q 802 234 857 348 q 642 60 747 120 q 388 0 536 0 m 155 1010 l 155 0 l 123 0 l 123 1010 l 155 1010 m 989 0 l 989 31 l 1457 693 l 1457 694 l 1001 694 l 1001 726 l 1494 726 l 1494 693 l 1028 33 l 1028 31 l 1502 31 l 1502 0 l 989 0 m 1097 1034 l 1244 876 l 1392 1034 l 1430 1034 l 1430 1032 l 1256 847 l 1231 847 l 1058 1032 l 1058 1034 l 1097 1034 z "},"E":{"ha":784,"x_min":123,"x_max":722,"o":"m 123 0 l 123 1010 l 719 1010 l 719 979 l 155 979 l 155 529 l 672 529 l 672 498 l 155 498 l 155 31 l 722 31 l 722 0 l 123 0 z "},"È":{"ha":784,"x_min":123,"x_max":722,"o":"m 123 0 l 123 1010 l 719 1010 l 719 979 l 155 979 l 155 529 l 672 529 l 672 498 l 155 498 l 155 31 l 722 31 l 722 0 l 123 0 m 411 1107 l 317 1305 l 356 1305 l 442 1107 l 411 1107 z "},"É":{"ha":784,"x_min":123,"x_max":722,"o":"m 123 0 l 123 1010 l 719 1010 l 719 979 l 155 979 l 155 529 l 672 529 l 672 498 l 155 498 l 155 31 l 722 31 l 722 0 l 123 0 m 406 1107 l 492 1305 l 528 1305 l 435 1107 l 406 1107 z "},"Ê":{"ha":784,"x_min":123,"x_max":722,"o":"m 123 0 l 123 1010 l 719 1010 l 719 979 l 155 979 l 155 529 l 672 529 l 672 498 l 155 498 l 155 31 l 722 31 l 722 0 l 123 0 m 276 1133 l 237 1133 l 237 1134 l 410 1320 l 435 1320 l 609 1134 l 609 1133 l 570 1133 l 422 1291 l 276 1133 z "},"Ë":{"ha":784,"x_min":123,"x_max":722,"o":"m 123 0 l 123 1010 l 719 1010 l 719 979 l 155 979 l 155 529 l 672 529 l 672 498 l 155 498 l 155 31 l 722 31 l 722 0 l 123 0 m 560 1194 q 537 1203 547 1194 q 528 1226 528 1213 q 537 1248 528 1239 q 560 1257 547 1257 q 582 1248 573 1257 q 591 1226 591 1239 q 582 1203 591 1213 q 560 1194 573 1194 m 286 1194 q 263 1203 273 1194 q 254 1226 254 1213 q 263 1248 254 1239 q 286 1257 273 1257 q 308 1248 299 1257 q 317 1226 317 1239 q 308 1203 317 1213 q 286 1194 299 1194 z "},"Ē":{"ha":784,"x_min":123,"x_max":722,"o":"m 123 0 l 123 1010 l 719 1010 l 719 979 l 155 979 l 155 529 l 672 529 l 672 498 l 155 498 l 155 31 l 722 31 l 722 0 l 123 0 m 581 1241 l 581 1210 l 265 1210 l 265 1241 l 581 1241 z "},"Ĕ":{"ha":784,"x_min":123,"x_max":722,"o":"m 123 0 l 123 1010 l 719 1010 l 719 979 l 155 979 l 155 529 l 672 529 l 672 498 l 155 498 l 155 31 l 722 31 l 722 0 l 123 0 m 423 1125 q 333 1149 374 1125 q 269 1214 293 1173 q 245 1303 245 1254 l 277 1303 q 320 1198 277 1241 q 423 1156 363 1156 q 527 1198 484 1156 q 570 1303 570 1241 l 601 1303 q 577 1214 601 1254 q 513 1149 553 1173 q 423 1125 473 1125 z "},"Ė":{"ha":784,"x_min":123,"x_max":722,"o":"m 123 0 l 123 1010 l 719 1010 l 719 979 l 155 979 l 155 529 l 672 529 l 672 498 l 155 498 l 155 31 l 722 31 l 722 0 l 123 0 m 423 1194 q 400 1203 410 1194 q 391 1226 391 1213 q 400 1248 391 1239 q 423 1257 410 1257 q 445 1248 436 1257 q 454 1226 454 1239 q 445 1203 454 1213 q 423 1194 436 1194 z "},"Ę":{"ha":784,"x_min":123,"x_max":722,"o":"m 123 0 l 123 1010 l 719 1010 l 719 979 l 155 979 l 155 529 l 672 529 l 672 498 l 155 498 l 155 31 l 722 31 l 722 0 l 123 0 m 691 -285 q 595 -255 626 -285 q 564 -180 564 -226 q 600 -83 564 -129 q 701 18 635 -37 l 722 0 q 627 -96 659 -54 q 595 -180 595 -137 q 616 -233 595 -212 q 691 -254 637 -254 q 705 -253 699 -254 q 718 -252 711 -252 l 721 -283 q 706 -284 713 -283 q 691 -285 699 -285 z "},"Ě":{"ha":784,"x_min":123,"x_max":722,"o":"m 123 0 l 123 1010 l 719 1010 l 719 979 l 155 979 l 155 529 l 672 529 l 672 498 l 155 498 l 155 31 l 722 31 l 722 0 l 123 0 m 276 1318 l 422 1161 l 570 1318 l 609 1318 l 609 1317 l 435 1132 l 410 1132 l 237 1317 l 237 1318 l 276 1318 z "},"Ȅ":{"ha":784,"x_min":123,"x_max":722,"o":"m 123 0 l 123 1010 l 719 1010 l 719 979 l 155 979 l 155 529 l 672 529 l 672 498 l 155 498 l 155 31 l 722 31 l 722 0 l 123 0 m 486 1107 l 402 1305 l 439 1305 l 517 1107 l 486 1107 m 336 1107 l 233 1305 l 271 1305 l 366 1107 l 336 1107 z "},"Ȇ":{"ha":784,"x_min":123,"x_max":722,"o":"m 123 0 l 123 1010 l 719 1010 l 719 979 l 155 979 l 155 529 l 672 529 l 672 498 l 155 498 l 155 31 l 722 31 l 722 0 l 123 0 m 422 1295 q 513 1274 472 1295 q 577 1216 553 1253 q 600 1133 600 1179 l 570 1133 q 527 1227 570 1189 q 422 1266 484 1266 q 319 1227 362 1266 q 276 1133 276 1189 l 245 1133 q 269 1215 245 1179 q 333 1274 292 1252 q 422 1295 373 1295 z "},"Ȩ":{"ha":784,"x_min":123,"x_max":722,"o":"m 123 0 l 123 1010 l 719 1010 l 719 979 l 155 979 l 155 529 l 672 529 l 672 498 l 155 498 l 155 31 l 722 31 l 722 0 l 123 0 m 359 -283 l 359 -252 l 425 -252 q 493 -232 469 -252 q 517 -177 517 -212 q 493 -122 517 -142 q 420 -101 469 -101 l 380 -101 l 408 12 l 437 12 l 437 0 l 420 -70 q 514 -100 480 -71 q 548 -177 548 -128 q 515 -255 548 -226 q 425 -283 481 -283 l 359 -283 z "},"Ḕ":{"ha":784,"x_min":123,"x_max":722,"o":"m 123 0 l 123 1010 l 719 1010 l 719 979 l 155 979 l 155 529 l 672 529 l 672 498 l 155 498 l 155 31 l 722 31 l 722 0 l 123 0 m 581 1211 l 581 1179 l 265 1179 l 265 1211 l 581 1211 m 410 1330 l 279 1516 l 318 1516 l 444 1330 l 410 1330 z "},"Ḗ":{"ha":784,"x_min":123,"x_max":722,"o":"m 123 0 l 123 1010 l 719 1010 l 719 979 l 155 979 l 155 529 l 672 529 l 672 498 l 155 498 l 155 31 l 722 31 l 722 0 l 123 0 m 581 1211 l 581 1179 l 265 1179 l 265 1211 l 581 1211 m 410 1330 l 535 1516 l 574 1516 l 444 1330 l 410 1330 z "},"Ḙ":{"ha":784,"x_min":123,"x_max":722,"o":"m 123 0 l 123 1010 l 719 1010 l 719 979 l 155 979 l 155 529 l 672 529 l 672 498 l 155 498 l 155 31 l 722 31 l 722 0 l 123 0 m 276 -304 l 237 -304 l 237 -302 l 410 -117 l 435 -117 l 609 -302 l 609 -304 l 570 -304 l 422 -146 l 276 -304 z "},"Ḛ":{"ha":784,"x_min":123,"x_max":722,"o":"m 123 0 l 123 1010 l 719 1010 l 719 979 l 155 979 l 155 529 l 672 529 l 672 498 l 155 498 l 155 31 l 722 31 l 722 0 l 123 0 m 510 -266 q 460 -254 481 -266 q 422 -226 439 -241 q 386 -198 404 -210 q 344 -186 368 -186 q 290 -206 311 -186 q 265 -261 269 -226 l 234 -261 q 267 -185 238 -215 q 338 -155 295 -155 q 392 -167 370 -155 q 432 -195 414 -179 q 467 -222 450 -210 q 505 -235 484 -235 q 552 -218 534 -235 q 579 -162 571 -201 l 611 -162 q 576 -238 603 -210 q 510 -266 549 -266 z "},"Ḝ":{"ha":784,"x_min":123,"x_max":722,"o":"m 123 0 l 123 1010 l 719 1010 l 719 979 l 155 979 l 155 529 l 672 529 l 672 498 l 155 498 l 155 31 l 722 31 l 722 0 l 123 0 m 359 -283 l 359 -252 l 425 -252 q 493 -232 469 -252 q 517 -177 517 -212 q 493 -122 517 -142 q 420 -101 469 -101 l 380 -101 l 408 12 l 437 12 l 437 0 l 420 -70 q 514 -100 480 -71 q 548 -177 548 -128 q 515 -255 548 -226 q 425 -283 481 -283 l 359 -283 m 423 1125 q 333 1149 374 1125 q 269 1214 293 1173 q 245 1303 245 1254 l 277 1303 q 320 1198 277 1241 q 423 1156 363 1156 q 527 1198 484 1156 q 570 1303 570 1241 l 601 1303 q 577 1214 601 1254 q 513 1149 553 1173 q 423 1125 473 1125 z "},"Ẹ":{"ha":784,"x_min":123,"x_max":722,"o":"m 123 0 l 123 1010 l 719 1010 l 719 979 l 155 979 l 155 529 l 672 529 l 672 498 l 155 498 l 155 31 l 722 31 l 722 0 l 123 0 m 423 -242 q 400 -233 410 -242 q 391 -210 391 -223 q 400 -188 391 -197 q 423 -178 410 -178 q 445 -188 436 -178 q 454 -210 454 -197 q 445 -233 454 -223 q 423 -242 436 -242 z "},"Ẻ":{"ha":784,"x_min":123,"x_max":722,"o":"m 123 0 l 123 1010 l 719 1010 l 719 979 l 155 979 l 155 529 l 672 529 l 672 498 l 155 498 l 155 31 l 722 31 l 722 0 l 123 0 m 438 1107 l 408 1107 l 442 1185 q 458 1254 465 1234 q 404 1275 452 1275 l 332 1275 l 332 1305 l 404 1305 q 458 1296 437 1305 q 485 1269 478 1286 q 489 1228 492 1252 q 471 1175 485 1204 l 438 1107 z "},"Ẽ":{"ha":784,"x_min":123,"x_max":722,"o":"m 123 0 l 123 1010 l 719 1010 l 719 979 l 155 979 l 155 529 l 672 529 l 672 498 l 155 498 l 155 31 l 722 31 l 722 0 l 123 0 m 510 1170 q 460 1182 481 1170 q 422 1210 439 1194 q 386 1238 404 1225 q 344 1250 368 1250 q 290 1230 311 1250 q 265 1175 269 1210 l 234 1175 q 267 1251 238 1221 q 338 1281 295 1281 q 392 1269 370 1281 q 432 1241 414 1257 q 467 1213 450 1225 q 505 1201 484 1201 q 552 1218 534 1201 q 579 1274 571 1235 l 611 1274 q 576 1198 603 1225 q 510 1170 549 1170 z "},"Ế":{"ha":784,"x_min":123,"x_max":722,"o":"m 123 0 l 123 1010 l 719 1010 l 719 979 l 155 979 l 155 529 l 672 529 l 672 498 l 155 498 l 155 31 l 722 31 l 722 0 l 123 0 m 276 1102 l 237 1102 l 237 1103 l 410 1289 l 435 1289 l 609 1103 l 609 1102 l 570 1102 l 422 1259 l 276 1102 m 526 1314 l 651 1500 l 690 1500 l 559 1314 l 526 1314 z "},"Ề":{"ha":784,"x_min":123,"x_max":722,"o":"m 123 0 l 123 1010 l 719 1010 l 719 979 l 155 979 l 155 529 l 672 529 l 672 498 l 155 498 l 155 31 l 722 31 l 722 0 l 123 0 m 276 1102 l 237 1102 l 237 1103 l 410 1289 l 435 1289 l 609 1103 l 609 1102 l 570 1102 l 422 1259 l 276 1102 m 575 1314 l 444 1500 l 484 1500 l 609 1314 l 575 1314 z "},"Ể":{"ha":784,"x_min":123,"x_max":722,"o":"m 123 0 l 123 1010 l 719 1010 l 719 979 l 155 979 l 155 529 l 672 529 l 672 498 l 155 498 l 155 31 l 722 31 l 722 0 l 123 0 m 276 1102 l 237 1102 l 237 1103 l 410 1289 l 435 1289 l 609 1103 l 609 1102 l 570 1102 l 422 1259 l 276 1102 m 552 1314 l 518 1314 l 562 1379 q 582 1446 591 1423 q 524 1469 573 1469 l 453 1469 l 453 1500 l 524 1500 q 593 1482 570 1500 q 615 1435 616 1465 q 590 1369 615 1406 l 552 1314 z "},"Ễ":{"ha":784,"x_min":123,"x_max":722,"o":"m 123 0 l 123 1010 l 719 1010 l 719 979 l 155 979 l 155 529 l 672 529 l 672 498 l 155 498 l 155 31 l 722 31 l 722 0 l 123 0 m 276 1102 l 237 1102 l 237 1103 l 410 1289 l 435 1289 l 610 1103 l 610 1102 l 570 1102 l 422 1259 l 276 1102 m 511 1362 q 461 1375 482 1362 q 422 1402 440 1387 q 387 1430 405 1418 q 345 1442 368 1442 q 290 1422 311 1442 q 266 1367 269 1402 l 235 1367 q 267 1443 239 1413 q 339 1474 296 1474 q 393 1461 371 1474 q 433 1434 415 1449 q 467 1406 450 1418 q 505 1394 484 1394 q 553 1411 534 1394 q 580 1466 572 1428 l 612 1466 q 576 1390 604 1418 q 511 1362 549 1362 z "},"Ệ":{"ha":784,"x_min":123,"x_max":722,"o":"m 123 0 l 123 1010 l 719 1010 l 719 979 l 155 979 l 155 529 l 672 529 l 672 498 l 155 498 l 155 31 l 722 31 l 722 0 l 123 0 m 276 1133 l 237 1133 l 237 1134 l 410 1320 l 435 1320 l 609 1134 l 609 1133 l 570 1133 l 422 1291 l 276 1133 m 423 -242 q 400 -233 410 -242 q 391 -210 391 -223 q 400 -188 391 -197 q 423 -178 410 -178 q 445 -188 436 -178 q 454 -210 454 -197 q 445 -233 454 -223 q 423 -242 436 -242 z "},"Ɇ":{"ha":784,"x_min":123,"x_max":722,"o":"m 214 -129 l 579 1138 l 609 1138 l 243 -129 l 214 -129 m 123 0 l 123 1010 l 719 1010 l 719 979 l 155 979 l 155 529 l 672 529 l 672 498 l 155 498 l 155 31 l 722 31 l 722 0 l 123 0 z "},"Ǝ":{"ha":784,"x_min":62,"x_max":661,"o":"m 661 1010 l 661 0 l 65 0 l 65 31 l 629 31 l 629 481 l 112 481 l 112 513 l 629 513 l 629 979 l 62 979 l 62 1010 l 661 1010 z "},"Ε":{"ha":784,"x_min":123,"x_max":722,"o":"m 123 0 l 123 1010 l 719 1010 l 719 979 l 155 979 l 155 529 l 672 529 l 672 498 l 155 498 l 155 31 l 722 31 l 722 0 l 123 0 z "},"Έ":{"ha":849,"x_min":51,"x_max":787,"o":"m 189 0 l 189 1010 l 784 1010 l 784 979 l 220 979 l 220 529 l 737 529 l 737 498 l 220 498 l 220 31 l 787 31 l 787 0 l 189 0 m 51 812 l 77 1010 l 111 1010 l 79 812 l 51 812 z "},"Ἐ":{"ha":955,"x_min":51,"x_max":893,"o":"m 294 0 l 294 1010 l 890 1010 l 890 979 l 326 979 l 326 529 l 843 529 l 843 498 l 326 498 l 326 31 l 893 31 l 893 0 l 294 0 m 83 809 l 73 809 l 73 840 l 83 840 q 148 861 123 840 q 172 912 172 881 q 148 963 172 944 q 83 983 123 983 l 51 983 l 51 1014 l 83 1014 q 170 986 136 1014 q 203 912 203 958 q 170 838 203 867 q 83 809 136 809 z "},"Ἑ":{"ha":964,"x_min":51,"x_max":901,"o":"m 302 0 l 302 1010 l 898 1010 l 898 979 l 334 979 l 334 529 l 851 529 l 851 498 l 334 498 l 334 31 l 901 31 l 901 0 l 302 0 m 171 808 q 84 837 118 808 q 51 911 51 865 q 84 985 51 957 q 171 1013 118 1013 l 203 1013 l 203 981 l 171 981 q 107 962 132 981 q 82 911 82 943 q 107 859 82 880 q 171 839 132 839 l 182 839 l 182 808 l 171 808 z "},"Ἒ":{"ha":1109,"x_min":51,"x_max":1048,"o":"m 448 0 l 448 1010 l 1044 1010 l 1044 979 l 479 979 l 479 529 l 997 529 l 997 498 l 479 498 l 479 31 l 1047 31 l 1047 0 l 448 0 m 83 808 l 73 808 l 73 839 l 83 839 q 148 859 123 839 q 172 911 172 880 q 148 962 172 943 q 83 981 123 981 l 51 981 l 51 1013 l 83 1013 q 170 985 136 1013 q 203 911 203 957 q 170 837 203 865 q 83 808 136 808 m 302 812 l 275 812 l 243 1010 l 277 1010 l 302 812 z "},"Ἓ":{"ha":1112,"x_min":51,"x_max":1050,"o":"m 451 0 l 451 1010 l 1046 1010 l 1046 979 l 482 979 l 482 529 l 1000 529 l 1000 498 l 482 498 l 482 31 l 1050 31 l 1050 0 l 451 0 m 171 808 q 84 837 118 808 q 51 911 51 865 q 84 985 51 957 q 171 1013 118 1013 l 203 1013 l 203 981 l 171 981 q 107 962 132 981 q 82 911 82 943 q 107 859 82 880 q 171 839 132 839 l 182 839 l 182 808 l 171 808 m 324 812 l 297 812 l 264 1010 l 298 1010 l 324 812 z "},"Ἔ":{"ha":1105,"x_min":51,"x_max":1043,"o":"m 444 0 l 444 1010 l 1040 1010 l 1040 979 l 475 979 l 475 529 l 993 529 l 993 498 l 475 498 l 475 31 l 1043 31 l 1043 0 l 444 0 m 83 808 l 73 808 l 73 839 l 83 839 q 148 859 123 839 q 172 911 172 880 q 148 962 172 943 q 83 981 123 981 l 51 981 l 51 1013 l 83 1013 q 170 985 136 1013 q 203 911 203 957 q 170 837 203 865 q 83 808 136 808 m 283 812 l 309 1010 l 342 1010 l 311 812 l 283 812 z "},"Ἕ":{"ha":1106,"x_min":51,"x_max":1044,"o":"m 446 0 l 446 1010 l 1041 1010 l 1041 979 l 477 979 l 477 529 l 994 529 l 994 498 l 477 498 l 477 31 l 1044 31 l 1044 0 l 446 0 m 171 808 q 84 837 118 808 q 51 911 51 865 q 84 985 51 957 q 171 1013 118 1013 l 203 1013 l 203 981 l 171 981 q 107 962 132 981 q 82 911 82 943 q 107 859 82 880 q 171 839 132 839 l 182 839 l 182 808 l 171 808 m 285 812 l 311 1010 l 345 1010 l 313 812 l 285 812 z "},"Ὲ":{"ha":897,"x_min":28,"x_max":836,"o":"m 237 0 l 237 1010 l 832 1010 l 832 979 l 268 979 l 268 529 l 785 529 l 785 498 l 268 498 l 268 31 l 836 31 l 836 0 l 237 0 m 89 817 l 61 817 l 28 1015 l 62 1015 l 89 817 z "},"Έ":{"ha":849,"x_min":51,"x_max":787,"o":"m 189 0 l 189 1010 l 784 1010 l 784 979 l 220 979 l 220 529 l 737 529 l 737 498 l 220 498 l 220 31 l 787 31 l 787 0 l 189 0 m 51 812 l 77 1010 l 111 1010 l 79 812 l 51 812 z "},"Е":{"ha":784,"x_min":123,"x_max":722,"o":"m 123 0 l 123 1010 l 719 1010 l 719 979 l 155 979 l 155 529 l 672 529 l 672 498 l 155 498 l 155 31 l 722 31 l 722 0 l 123 0 z "},"Ѐ":{"ha":784,"x_min":123,"x_max":722,"o":"m 123 0 l 123 1010 l 719 1010 l 719 979 l 155 979 l 155 529 l 672 529 l 672 498 l 155 498 l 155 31 l 722 31 l 722 0 l 123 0 m 411 1107 l 317 1305 l 356 1305 l 442 1107 l 411 1107 z "},"Ё":{"ha":784,"x_min":123,"x_max":722,"o":"m 123 0 l 123 1010 l 719 1010 l 719 979 l 155 979 l 155 529 l 672 529 l 672 498 l 155 498 l 155 31 l 722 31 l 722 0 l 123 0 m 560 1194 q 537 1203 547 1194 q 528 1226 528 1213 q 537 1248 528 1239 q 560 1257 547 1257 q 582 1248 573 1257 q 591 1226 591 1239 q 582 1203 591 1213 q 560 1194 573 1194 m 286 1194 q 263 1203 273 1194 q 254 1226 254 1213 q 263 1248 254 1239 q 286 1257 273 1257 q 308 1248 299 1257 q 317 1226 317 1239 q 308 1203 317 1213 q 286 1194 299 1194 z "},"Ӗ":{"ha":784,"x_min":123,"x_max":722,"o":"m 123 0 l 123 1010 l 719 1010 l 719 979 l 155 979 l 155 529 l 672 529 l 672 498 l 155 498 l 155 31 l 722 31 l 722 0 l 123 0 m 423 1125 q 333 1149 374 1125 q 269 1214 293 1173 q 245 1303 245 1254 l 277 1303 q 320 1198 277 1241 q 423 1156 363 1156 q 527 1198 484 1156 q 570 1303 570 1241 l 601 1303 q 577 1214 601 1254 q 513 1149 553 1173 q 423 1125 473 1125 z "},"F":{"ha":755,"x_min":123,"x_max":699,"o":"m 123 0 l 123 1010 l 699 1010 l 699 979 l 155 979 l 155 529 l 638 529 l 638 498 l 155 498 l 155 0 l 123 0 z "},"Ƒ":{"ha":755,"x_min":-19,"x_max":699,"o":"m -19 -283 l -19 -252 q 7 -252 -6 -252 q 30 -252 21 -252 q 101 -229 79 -252 q 123 -149 123 -205 l 123 87 l 155 87 l 155 -149 q 123 -251 155 -218 q 30 -283 92 -283 q 7 -283 21 -283 q -19 -283 -7 -283 m 123 0 l 123 1010 l 699 1010 l 699 979 l 155 979 l 155 529 l 638 529 l 638 498 l 155 498 l 155 0 l 123 0 z "},"Ḟ":{"ha":755,"x_min":123,"x_max":699,"o":"m 123 0 l 123 1010 l 699 1010 l 699 979 l 155 979 l 155 529 l 638 529 l 638 498 l 155 498 l 155 0 l 123 0 m 412 1194 q 389 1203 399 1194 q 380 1226 380 1213 q 389 1248 380 1239 q 412 1257 399 1257 q 434 1248 425 1257 q 444 1226 444 1239 q 434 1203 444 1213 q 412 1194 425 1194 z "},"Ⅎ":{"ha":755,"x_min":57,"x_max":631,"o":"m 631 1010 l 631 0 l 57 0 l 57 31 l 600 31 l 600 481 l 117 481 l 117 513 l 600 513 l 600 1010 l 631 1010 z "},"G":{"ha":958,"x_min":66,"x_max":879,"o":"m 488 -12 q 266 53 361 -12 q 119 234 171 118 q 66 505 66 351 q 119 777 66 661 q 266 957 172 892 q 486 1022 360 1022 q 642 992 574 1022 q 758 912 710 962 q 835 806 806 863 q 872 694 863 749 l 840 694 q 804 798 831 746 q 731 894 777 850 q 625 964 686 938 q 486 991 563 991 q 282 930 370 991 q 146 760 195 869 q 98 505 98 651 q 146 252 98 361 q 282 81 194 142 q 488 20 370 20 q 679 70 599 20 q 804 212 760 120 q 848 431 848 304 l 861 425 l 498 425 l 498 456 l 879 456 l 879 426 q 830 195 879 293 q 694 43 782 97 q 488 -12 606 -12 z "},"Ǥ":{"ha":958,"x_min":66,"x_max":960,"o":"m 488 -12 q 266 53 361 -12 q 119 234 171 118 q 66 505 66 351 q 119 777 66 661 q 266 957 172 892 q 486 1022 360 1022 q 642 992 574 1022 q 758 912 710 962 q 835 806 806 863 q 872 694 863 749 l 840 694 q 804 798 831 746 q 731 894 777 850 q 625 964 686 938 q 486 991 563 991 q 282 930 370 991 q 146 760 195 869 q 98 505 98 651 q 146 252 98 361 q 282 81 194 142 q 488 20 370 20 q 679 70 599 20 q 804 212 760 120 q 848 431 848 304 l 861 425 l 498 425 l 498 456 l 879 456 l 879 426 q 830 195 879 293 q 694 43 782 97 q 488 -12 606 -12 m 498 224 l 498 255 l 960 255 l 960 224 l 498 224 z "},"Ɠ":{"ha":958,"x_min":66,"x_max":1015,"o":"m 841 694 l 841 1002 q 872 1104 841 1072 q 966 1137 903 1137 q 989 1137 975 1137 q 1015 1137 1003 1137 l 1015 1105 q 988 1105 1002 1105 q 966 1105 975 1105 q 895 1082 917 1105 q 872 1002 872 1058 l 872 694 l 841 694 m 488 -12 q 266 53 361 -12 q 119 234 171 118 q 66 505 66 351 q 119 777 66 661 q 266 957 172 892 q 486 1022 360 1022 q 642 992 574 1022 q 758 912 710 962 q 835 806 806 863 q 872 694 863 749 l 840 694 q 804 798 831 746 q 731 894 777 850 q 625 964 686 938 q 486 991 563 991 q 282 930 370 991 q 146 760 195 869 q 98 505 98 651 q 146 252 98 361 q 282 81 194 142 q 488 20 370 20 q 679 70 599 20 q 804 212 760 120 q 848 431 848 304 l 861 425 l 498 425 l 498 456 l 879 456 l 879 426 q 830 195 879 293 q 694 43 782 97 q 488 -12 606 -12 z "},"Ĝ":{"ha":958,"x_min":66,"x_max":879,"o":"m 488 -12 q 266 53 361 -12 q 119 234 171 118 q 66 505 66 351 q 119 777 66 661 q 266 957 172 892 q 486 1022 360 1022 q 642 992 574 1022 q 758 912 710 962 q 835 806 806 863 q 872 694 863 749 l 840 694 q 804 798 831 746 q 731 894 777 850 q 625 964 686 938 q 486 991 563 991 q 282 930 370 991 q 146 760 195 869 q 98 505 98 651 q 146 252 98 361 q 282 81 194 142 q 488 20 370 20 q 679 70 599 20 q 804 212 760 120 q 848 431 848 304 l 861 425 l 498 425 l 498 456 l 879 456 l 879 426 q 830 195 879 293 q 694 43 782 97 q 488 -12 606 -12 m 332 1133 l 292 1133 l 292 1134 l 465 1320 l 490 1320 l 665 1134 l 665 1133 l 626 1133 l 478 1291 l 332 1133 z "},"Ğ":{"ha":958,"x_min":66,"x_max":879,"o":"m 488 -12 q 266 53 361 -12 q 119 234 171 118 q 66 505 66 351 q 119 777 66 661 q 266 957 172 892 q 486 1022 360 1022 q 642 992 574 1022 q 758 912 710 962 q 835 806 806 863 q 872 694 863 749 l 840 694 q 804 798 831 746 q 731 894 777 850 q 625 964 686 938 q 486 991 563 991 q 282 930 370 991 q 146 760 195 869 q 98 505 98 651 q 146 252 98 361 q 282 81 194 142 q 488 20 370 20 q 679 70 599 20 q 804 212 760 120 q 848 431 848 304 l 861 425 l 498 425 l 498 456 l 879 456 l 879 426 q 830 195 879 293 q 694 43 782 97 q 488 -12 606 -12 m 479 1125 q 389 1149 429 1125 q 325 1214 349 1173 q 301 1303 301 1254 l 332 1303 q 375 1198 332 1241 q 479 1156 418 1156 q 582 1198 539 1156 q 625 1303 625 1241 l 656 1303 q 633 1214 656 1254 q 569 1149 609 1173 q 479 1125 529 1125 z "},"Ġ":{"ha":958,"x_min":66,"x_max":879,"o":"m 488 -12 q 266 53 361 -12 q 119 234 171 118 q 66 505 66 351 q 119 777 66 661 q 266 957 172 892 q 486 1022 360 1022 q 642 992 574 1022 q 758 912 710 962 q 835 806 806 863 q 872 694 863 749 l 840 694 q 804 798 831 746 q 731 894 777 850 q 625 964 686 938 q 486 991 563 991 q 282 930 370 991 q 146 760 195 869 q 98 505 98 651 q 146 252 98 361 q 282 81 194 142 q 488 20 370 20 q 679 70 599 20 q 804 212 760 120 q 848 431 848 304 l 861 425 l 498 425 l 498 456 l 879 456 l 879 426 q 830 195 879 293 q 694 43 782 97 q 488 -12 606 -12 m 479 1194 q 456 1203 466 1194 q 447 1226 447 1213 q 456 1248 447 1239 q 479 1257 466 1257 q 502 1248 492 1257 q 511 1226 511 1239 q 502 1203 511 1213 q 479 1194 492 1194 z "},"Ģ":{"ha":958,"x_min":66,"x_max":879,"o":"m 488 -12 q 266 53 361 -12 q 119 234 171 118 q 66 505 66 351 q 119 777 66 661 q 266 957 172 892 q 486 1022 360 1022 q 642 992 574 1022 q 758 912 710 962 q 835 806 806 863 q 872 694 863 749 l 840 694 q 804 798 831 746 q 731 894 777 850 q 625 964 686 938 q 486 991 563 991 q 282 930 370 991 q 146 760 195 869 q 98 505 98 651 q 146 252 98 361 q 282 81 194 142 q 488 20 370 20 q 679 70 599 20 q 804 212 760 120 q 848 431 848 304 l 861 425 l 498 425 l 498 456 l 879 456 l 879 426 q 830 195 879 293 q 694 43 782 97 q 488 -12 606 -12 m 395 -335 l 460 -80 l 494 -80 l 420 -335 l 395 -335 z "},"Ǧ":{"ha":958,"x_min":66,"x_max":879,"o":"m 488 -12 q 266 53 361 -12 q 119 234 171 118 q 66 505 66 351 q 119 777 66 661 q 266 957 172 892 q 486 1022 360 1022 q 642 992 574 1022 q 758 912 710 962 q 835 806 806 863 q 872 694 863 749 l 840 694 q 804 798 831 746 q 731 894 777 850 q 625 964 686 938 q 486 991 563 991 q 282 930 370 991 q 146 760 195 869 q 98 505 98 651 q 146 252 98 361 q 282 81 194 142 q 488 20 370 20 q 679 70 599 20 q 804 212 760 120 q 848 431 848 304 l 861 425 l 498 425 l 498 456 l 879 456 l 879 426 q 830 195 879 293 q 694 43 782 97 q 488 -12 606 -12 m 332 1318 l 478 1161 l 626 1318 l 665 1318 l 665 1317 l 490 1132 l 465 1132 l 292 1317 l 292 1318 l 332 1318 z "},"Ǵ":{"ha":958,"x_min":66,"x_max":879,"o":"m 488 -12 q 266 53 361 -12 q 119 234 171 118 q 66 505 66 351 q 119 777 66 661 q 266 957 172 892 q 486 1022 360 1022 q 642 992 574 1022 q 758 912 710 962 q 835 806 806 863 q 872 694 863 749 l 840 694 q 804 798 831 746 q 731 894 777 850 q 625 964 686 938 q 486 991 563 991 q 282 930 370 991 q 146 760 195 869 q 98 505 98 651 q 146 252 98 361 q 282 81 194 142 q 488 20 370 20 q 679 70 599 20 q 804 212 760 120 q 848 431 848 304 l 861 425 l 498 425 l 498 456 l 879 456 l 879 426 q 830 195 879 293 q 694 43 782 97 q 488 -12 606 -12 m 463 1107 l 549 1305 l 585 1305 l 492 1107 l 463 1107 z "},"Ḡ":{"ha":958,"x_min":66,"x_max":879,"o":"m 488 -12 q 266 53 361 -12 q 119 234 171 118 q 66 505 66 351 q 119 777 66 661 q 266 957 172 892 q 486 1022 360 1022 q 642 992 574 1022 q 758 912 710 962 q 835 806 806 863 q 872 694 863 749 l 840 694 q 804 798 831 746 q 731 894 777 850 q 625 964 686 938 q 486 991 563 991 q 282 930 370 991 q 146 760 195 869 q 98 505 98 651 q 146 252 98 361 q 282 81 194 142 q 488 20 370 20 q 679 70 599 20 q 804 212 760 120 q 848 431 848 304 l 861 425 l 498 425 l 498 456 l 879 456 l 879 426 q 830 195 879 293 q 694 43 782 97 q 488 -12 606 -12 m 637 1241 l 637 1210 l 321 1210 l 321 1241 l 637 1241 z "},"":{"ha":981,"x_min":66,"x_max":879,"o":"m 488 -12 q 266 53 361 -12 q 119 234 171 118 q 66 505 66 351 q 119 777 66 661 q 266 957 172 892 q 486 1022 360 1022 q 642 992 574 1022 q 758 912 710 962 q 835 806 806 863 q 872 694 863 749 l 840 694 q 804 798 831 746 q 731 894 777 850 q 625 964 686 938 q 486 991 563 991 q 282 930 370 991 q 146 760 195 869 q 98 505 98 651 q 146 252 98 361 q 282 81 194 142 q 488 20 370 20 q 680 70 599 20 q 805 212 761 120 q 850 431 850 304 l 875 431 l 875 426 q 848 246 875 326 q 771 108 821 165 q 649 19 720 50 q 488 -12 577 -12 m 853 0 l 848 305 l 856 425 l 498 425 l 498 456 l 879 456 l 879 0 l 853 0 z "},"":{"ha":981,"x_min":66,"x_max":960,"o":"m 488 -12 q 266 53 361 -12 q 119 234 171 118 q 66 505 66 351 q 119 777 66 661 q 266 957 172 892 q 486 1022 360 1022 q 642 992 574 1022 q 758 912 710 962 q 835 806 806 863 q 872 694 863 749 l 840 694 q 804 798 831 746 q 731 894 777 850 q 625 964 686 938 q 486 991 563 991 q 282 930 370 991 q 146 760 195 869 q 98 505 98 651 q 146 252 98 361 q 282 81 194 142 q 488 20 370 20 q 680 70 599 20 q 805 212 761 120 q 850 431 850 304 l 875 431 l 875 426 q 848 246 875 326 q 771 108 821 165 q 649 19 720 50 q 488 -12 577 -12 m 853 0 l 848 305 l 856 425 l 498 425 l 498 456 l 879 456 l 879 0 l 853 0 m 498 224 l 498 255 l 960 255 l 960 224 l 498 224 z "},"":{"ha":981,"x_min":66,"x_max":1015,"o":"m 841 694 l 841 1002 q 872 1104 841 1072 q 966 1137 903 1137 q 989 1137 975 1137 q 1015 1137 1003 1137 l 1015 1105 q 988 1105 1002 1105 q 966 1105 975 1105 q 895 1082 917 1105 q 872 1002 872 1058 l 872 694 l 841 694 m 488 -12 q 266 53 361 -12 q 119 234 171 118 q 66 505 66 351 q 119 777 66 661 q 266 957 172 892 q 486 1022 360 1022 q 642 992 574 1022 q 758 912 710 962 q 835 806 806 863 q 872 694 863 749 l 840 694 q 804 798 831 746 q 731 894 777 850 q 625 964 686 938 q 486 991 563 991 q 282 930 370 991 q 146 760 195 869 q 98 505 98 651 q 146 252 98 361 q 282 81 194 142 q 488 20 370 20 q 680 70 599 20 q 805 212 761 120 q 850 431 850 304 l 875 431 l 875 426 q 848 246 875 326 q 771 108 821 165 q 649 19 720 50 q 488 -12 577 -12 m 853 0 l 848 305 l 856 425 l 498 425 l 498 456 l 879 456 l 879 0 l 853 0 z "},"":{"ha":981,"x_min":66,"x_max":879,"o":"m 488 -12 q 266 53 361 -12 q 119 234 171 118 q 66 505 66 351 q 119 777 66 661 q 266 957 172 892 q 486 1022 360 1022 q 642 992 574 1022 q 758 912 710 962 q 835 806 806 863 q 872 694 863 749 l 840 694 q 804 798 831 746 q 731 894 777 850 q 625 964 686 938 q 486 991 563 991 q 282 930 370 991 q 146 760 195 869 q 98 505 98 651 q 146 252 98 361 q 282 81 194 142 q 488 20 370 20 q 680 70 599 20 q 805 212 761 120 q 850 431 850 304 l 875 431 l 875 426 q 848 246 875 326 q 771 108 821 165 q 649 19 720 50 q 488 -12 577 -12 m 853 0 l 848 305 l 856 425 l 498 425 l 498 456 l 879 456 l 879 0 l 853 0 m 332 1133 l 292 1133 l 292 1134 l 465 1320 l 490 1320 l 665 1134 l 665 1133 l 626 1133 l 478 1291 l 332 1133 z "},"":{"ha":981,"x_min":66,"x_max":879,"o":"m 488 -12 q 266 53 361 -12 q 119 234 171 118 q 66 505 66 351 q 119 777 66 661 q 266 957 172 892 q 486 1022 360 1022 q 642 992 574 1022 q 758 912 710 962 q 835 806 806 863 q 872 694 863 749 l 840 694 q 804 798 831 746 q 731 894 777 850 q 625 964 686 938 q 486 991 563 991 q 282 930 370 991 q 146 760 195 869 q 98 505 98 651 q 146 252 98 361 q 282 81 194 142 q 488 20 370 20 q 680 70 599 20 q 805 212 761 120 q 850 431 850 304 l 875 431 l 875 426 q 848 246 875 326 q 771 108 821 165 q 649 19 720 50 q 488 -12 577 -12 m 853 0 l 848 305 l 856 425 l 498 425 l 498 456 l 879 456 l 879 0 l 853 0 m 479 1125 q 389 1149 429 1125 q 325 1214 349 1173 q 301 1303 301 1254 l 332 1303 q 375 1198 332 1241 q 479 1156 418 1156 q 582 1198 539 1156 q 625 1303 625 1241 l 656 1303 q 633 1214 656 1254 q 569 1149 609 1173 q 479 1125 529 1125 z "},"":{"ha":981,"x_min":66,"x_max":879,"o":"m 488 -12 q 266 53 361 -12 q 119 234 171 118 q 66 505 66 351 q 119 777 66 661 q 266 957 172 892 q 486 1022 360 1022 q 642 992 574 1022 q 758 912 710 962 q 835 806 806 863 q 872 694 863 749 l 840 694 q 804 798 831 746 q 731 894 777 850 q 625 964 686 938 q 486 991 563 991 q 282 930 370 991 q 146 760 195 869 q 98 505 98 651 q 146 252 98 361 q 282 81 194 142 q 488 20 370 20 q 680 70 599 20 q 805 212 761 120 q 850 431 850 304 l 875 431 l 875 426 q 848 246 875 326 q 771 108 821 165 q 649 19 720 50 q 488 -12 577 -12 m 853 0 l 848 305 l 856 425 l 498 425 l 498 456 l 879 456 l 879 0 l 853 0 m 479 1194 q 456 1203 466 1194 q 447 1226 447 1213 q 456 1248 447 1239 q 479 1257 466 1257 q 502 1248 492 1257 q 511 1226 511 1239 q 502 1203 511 1213 q 479 1194 492 1194 z "},"":{"ha":981,"x_min":66,"x_max":879,"o":"m 488 -12 q 266 53 361 -12 q 119 234 171 118 q 66 505 66 351 q 119 777 66 661 q 266 957 172 892 q 486 1022 360 1022 q 642 992 574 1022 q 758 912 710 962 q 835 806 806 863 q 872 694 863 749 l 840 694 q 804 798 831 746 q 731 894 777 850 q 625 964 686 938 q 486 991 563 991 q 282 930 370 991 q 146 760 195 869 q 98 505 98 651 q 146 252 98 361 q 282 81 194 142 q 488 20 370 20 q 680 70 599 20 q 805 212 761 120 q 850 431 850 304 l 875 431 l 875 426 q 848 246 875 326 q 771 108 821 165 q 649 19 720 50 q 488 -12 577 -12 m 853 0 l 848 305 l 856 425 l 498 425 l 498 456 l 879 456 l 879 0 l 853 0 m 395 -335 l 460 -80 l 494 -80 l 420 -335 l 395 -335 z "},"":{"ha":981,"x_min":66,"x_max":879,"o":"m 488 -12 q 266 53 361 -12 q 119 234 171 118 q 66 505 66 351 q 119 777 66 661 q 266 957 172 892 q 486 1022 360 1022 q 642 992 574 1022 q 758 912 710 962 q 835 806 806 863 q 872 694 863 749 l 840 694 q 804 798 831 746 q 731 894 777 850 q 625 964 686 938 q 486 991 563 991 q 282 930 370 991 q 146 760 195 869 q 98 505 98 651 q 146 252 98 361 q 282 81 194 142 q 488 20 370 20 q 680 70 599 20 q 805 212 761 120 q 850 431 850 304 l 875 431 l 875 426 q 848 246 875 326 q 771 108 821 165 q 649 19 720 50 q 488 -12 577 -12 m 853 0 l 848 305 l 856 425 l 498 425 l 498 456 l 879 456 l 879 0 l 853 0 m 332 1318 l 478 1161 l 626 1318 l 665 1318 l 665 1317 l 490 1132 l 465 1132 l 292 1317 l 292 1318 l 332 1318 z "},"":{"ha":981,"x_min":66,"x_max":879,"o":"m 488 -12 q 266 53 361 -12 q 119 234 171 118 q 66 505 66 351 q 119 777 66 661 q 266 957 172 892 q 486 1022 360 1022 q 642 992 574 1022 q 758 912 710 962 q 835 806 806 863 q 872 694 863 749 l 840 694 q 804 798 831 746 q 731 894 777 850 q 625 964 686 938 q 486 991 563 991 q 282 930 370 991 q 146 760 195 869 q 98 505 98 651 q 146 252 98 361 q 282 81 194 142 q 488 20 370 20 q 680 70 599 20 q 805 212 761 120 q 850 431 850 304 l 875 431 l 875 426 q 848 246 875 326 q 771 108 821 165 q 649 19 720 50 q 488 -12 577 -12 m 853 0 l 848 305 l 856 425 l 498 425 l 498 456 l 879 456 l 879 0 l 853 0 m 463 1107 l 549 1305 l 585 1305 l 492 1107 l 463 1107 z "},"":{"ha":981,"x_min":66,"x_max":879,"o":"m 488 -12 q 266 53 361 -12 q 119 234 171 118 q 66 505 66 351 q 119 777 66 661 q 266 957 172 892 q 486 1022 360 1022 q 642 992 574 1022 q 758 912 710 962 q 835 806 806 863 q 872 694 863 749 l 840 694 q 804 798 831 746 q 731 894 777 850 q 625 964 686 938 q 486 991 563 991 q 282 930 370 991 q 146 760 195 869 q 98 505 98 651 q 146 252 98 361 q 282 81 194 142 q 488 20 370 20 q 680 70 599 20 q 805 212 761 120 q 850 431 850 304 l 875 431 l 875 426 q 848 246 875 326 q 771 108 821 165 q 649 19 720 50 q 488 -12 577 -12 m 853 0 l 848 305 l 856 425 l 498 425 l 498 456 l 879 456 l 879 0 l 853 0 m 637 1241 l 637 1210 l 321 1210 l 321 1241 l 637 1241 z "},"H":{"ha":952,"x_min":123,"x_max":829,"o":"m 123 0 l 123 1010 l 155 1010 l 155 532 l 798 532 l 798 1010 l 829 1010 l 829 0 l 798 0 l 798 500 l 155 500 l 155 0 l 123 0 z "},"Ḩ":{"ha":952,"x_min":77,"x_max":829,"o":"m 123 0 l 123 1010 l 155 1010 l 155 532 l 798 532 l 798 1010 l 829 1010 l 829 0 l 798 0 l 798 500 l 155 500 l 155 0 l 123 0 m 77 -283 l 77 -252 l 143 -252 q 211 -232 186 -252 q 235 -177 235 -212 q 211 -122 235 -142 q 138 -101 186 -101 l 98 -101 l 125 12 l 155 12 l 155 0 l 138 -70 q 232 -100 198 -71 q 266 -177 266 -128 q 233 -255 266 -226 q 143 -283 199 -283 l 77 -283 z "},"Ĥ":{"ha":952,"x_min":123,"x_max":829,"o":"m 123 0 l 123 1010 l 155 1010 l 155 532 l 798 532 l 798 1010 l 829 1010 l 829 0 l 798 0 l 798 500 l 155 500 l 155 0 l 123 0 m 329 1133 l 290 1133 l 290 1134 l 463 1320 l 488 1320 l 662 1134 l 662 1133 l 623 1133 l 475 1291 l 329 1133 z "},"Ȟ":{"ha":952,"x_min":123,"x_max":829,"o":"m 123 0 l 123 1010 l 155 1010 l 155 532 l 798 532 l 798 1010 l 829 1010 l 829 0 l 798 0 l 798 500 l 155 500 l 155 0 l 123 0 m 329 1318 l 475 1161 l 623 1318 l 662 1318 l 662 1317 l 488 1132 l 463 1132 l 290 1317 l 290 1318 l 329 1318 z "},"Ḣ":{"ha":952,"x_min":123,"x_max":829,"o":"m 123 0 l 123 1010 l 155 1010 l 155 532 l 798 532 l 798 1010 l 829 1010 l 829 0 l 798 0 l 798 500 l 155 500 l 155 0 l 123 0 m 477 1194 q 454 1203 463 1194 q 444 1226 444 1213 q 454 1248 444 1239 q 477 1257 463 1257 q 499 1248 490 1257 q 508 1226 508 1239 q 499 1203 508 1213 q 477 1194 490 1194 z "},"Ḥ":{"ha":952,"x_min":123,"x_max":829,"o":"m 123 0 l 123 1010 l 155 1010 l 155 532 l 798 532 l 798 1010 l 829 1010 l 829 0 l 798 0 l 798 500 l 155 500 l 155 0 l 123 0 m 477 -242 q 454 -233 463 -242 q 444 -210 444 -223 q 454 -188 444 -197 q 477 -178 463 -178 q 499 -188 490 -178 q 508 -210 508 -197 q 499 -233 508 -223 q 477 -242 490 -242 z "},"Ḧ":{"ha":952,"x_min":123,"x_max":829,"o":"m 123 0 l 123 1010 l 155 1010 l 155 532 l 798 532 l 798 1010 l 829 1010 l 829 0 l 798 0 l 798 500 l 155 500 l 155 0 l 123 0 m 614 1194 q 591 1203 600 1194 q 581 1226 581 1213 q 591 1248 581 1239 q 614 1257 600 1257 q 636 1248 627 1257 q 645 1226 645 1239 q 636 1203 645 1213 q 614 1194 627 1194 m 340 1194 q 317 1203 326 1194 q 307 1226 307 1213 q 317 1248 307 1239 q 340 1257 326 1257 q 362 1248 353 1257 q 371 1226 371 1239 q 362 1203 371 1213 q 340 1194 353 1194 z "},"Ḫ":{"ha":952,"x_min":123,"x_max":829,"o":"m 123 0 l 123 1010 l 155 1010 l 155 532 l 798 532 l 798 1010 l 829 1010 l 829 0 l 798 0 l 798 500 l 155 500 l 155 0 l 123 0 m 476 -314 q 386 -290 427 -314 q 322 -225 346 -266 q 298 -136 298 -185 l 330 -136 q 373 -241 330 -198 q 476 -283 416 -283 q 579 -241 536 -283 q 623 -136 623 -198 l 654 -136 q 630 -225 654 -185 q 566 -290 606 -266 q 476 -314 526 -314 z "},"Ħ":{"ha":966,"x_min":51,"x_max":915,"o":"m 915 732 l 915 700 l 51 700 l 51 732 l 915 732 m 131 0 l 131 1010 l 162 1010 l 162 532 l 805 532 l 805 1010 l 836 1010 l 836 0 l 805 0 l 805 500 l 162 500 l 162 0 l 131 0 z "},"Ӈ":{"ha":952,"x_min":123,"x_max":829,"o":"m 655 -283 l 655 -252 q 682 -252 668 -252 q 704 -252 695 -252 q 775 -229 753 -252 q 798 -149 798 -205 l 798 87 l 829 87 l 829 -149 q 798 -251 829 -218 q 704 -283 766 -283 q 681 -283 695 -283 q 655 -283 667 -283 m 123 0 l 123 1010 l 155 1010 l 155 532 l 798 532 l 798 1010 l 829 1010 l 829 0 l 798 0 l 798 500 l 155 500 l 155 0 l 123 0 z "},"Ң":{"ha":959,"x_min":123,"x_max":924,"o":"m 123 0 l 123 1010 l 155 1010 l 155 532 l 798 532 l 798 1010 l 829 1010 l 829 0 l 798 0 l 798 500 l 155 500 l 155 0 l 123 0 m 892 -217 l 892 0 l 819 0 l 819 31 l 924 31 l 924 -217 l 892 -217 z "},"Ӊ":{"ha":952,"x_min":123,"x_max":938,"o":"m 123 0 l 123 1010 l 155 1010 l 155 532 l 798 532 l 798 1010 l 829 1010 l 829 0 l 798 0 l 798 500 l 155 500 l 155 0 l 123 0 m 806 -217 l 892 0 l 807 0 l 807 31 l 938 31 l 838 -217 l 806 -217 z "},"Ҥ":{"ha":1274,"x_min":123,"x_max":1223,"o":"m 1223 1010 l 1223 978 l 800 978 l 800 1010 l 1223 1010 m 123 0 l 123 1010 l 155 1010 l 155 532 l 798 532 l 798 1010 l 829 1010 l 829 0 l 798 0 l 798 500 l 155 500 l 155 0 l 123 0 z "},"Ƕ":{"ha":1448,"x_min":123,"x_max":1347,"o":"m 1074 -12 q 932 21 994 -12 q 834 115 870 54 q 798 260 798 176 l 798 498 l 155 498 l 155 0 l 123 0 l 123 1010 l 155 1010 l 155 529 l 798 529 l 798 1010 l 829 1010 l 829 260 q 860 132 829 186 q 946 48 891 77 q 1074 20 1002 20 q 1200 48 1145 20 q 1285 132 1255 77 q 1316 260 1316 186 l 1316 730 l 1347 730 l 1347 260 q 1311 114 1347 175 q 1214 20 1276 53 q 1074 -12 1152 -12 z "},"Η":{"ha":952,"x_min":123,"x_max":829,"o":"m 123 0 l 123 1010 l 155 1010 l 155 532 l 798 532 l 798 1010 l 829 1010 l 829 0 l 798 0 l 798 500 l 155 500 l 155 0 l 123 0 z "},"Ή":{"ha":1018,"x_min":51,"x_max":894,"o":"m 189 0 l 189 1010 l 220 1010 l 220 532 l 863 532 l 863 1010 l 894 1010 l 894 0 l 863 0 l 863 500 l 220 500 l 220 0 l 189 0 m 51 812 l 77 1010 l 111 1010 l 79 812 l 51 812 z "},"Ἠ":{"ha":1123,"x_min":51,"x_max":1000,"o":"m 294 0 l 294 1010 l 326 1010 l 326 532 l 968 532 l 968 1010 l 1000 1010 l 1000 0 l 968 0 l 968 500 l 326 500 l 326 0 l 294 0 m 83 809 l 73 809 l 73 840 l 83 840 q 148 861 123 840 q 172 912 172 881 q 148 963 172 944 q 83 983 123 983 l 51 983 l 51 1014 l 83 1014 q 170 986 136 1014 q 203 912 203 958 q 170 838 203 867 q 83 809 136 809 z "},"Ἡ":{"ha":1132,"x_min":51,"x_max":1008,"o":"m 302 0 l 302 1010 l 334 1010 l 334 532 l 977 532 l 977 1010 l 1008 1010 l 1008 0 l 977 0 l 977 500 l 334 500 l 334 0 l 302 0 m 171 808 q 84 837 118 808 q 51 911 51 865 q 84 985 51 957 q 171 1013 118 1013 l 203 1013 l 203 981 l 171 981 q 107 962 132 981 q 82 911 82 943 q 107 859 82 880 q 171 839 132 839 l 182 839 l 182 808 l 171 808 z "},"Ἢ":{"ha":1278,"x_min":51,"x_max":1154,"o":"m 448 0 l 448 1010 l 479 1010 l 479 532 l 1122 532 l 1122 1010 l 1154 1010 l 1154 0 l 1122 0 l 1122 500 l 479 500 l 479 0 l 448 0 m 83 808 l 73 808 l 73 839 l 83 839 q 148 859 123 839 q 172 911 172 880 q 148 962 172 943 q 83 981 123 981 l 51 981 l 51 1013 l 83 1013 q 170 985 136 1013 q 203 911 203 957 q 170 837 203 865 q 83 808 136 808 m 302 812 l 275 812 l 243 1010 l 277 1010 l 302 812 z "},"Ἣ":{"ha":1280,"x_min":51,"x_max":1156,"o":"m 451 0 l 451 1010 l 482 1010 l 482 532 l 1125 532 l 1125 1010 l 1156 1010 l 1156 0 l 1125 0 l 1125 500 l 482 500 l 482 0 l 451 0 m 171 808 q 84 837 118 808 q 51 911 51 865 q 84 985 51 957 q 171 1013 118 1013 l 203 1013 l 203 981 l 171 981 q 107 962 132 981 q 82 911 82 943 q 107 859 82 880 q 171 839 132 839 l 182 839 l 182 808 l 171 808 m 324 812 l 297 812 l 264 1010 l 298 1010 l 324 812 z "},"Ἤ":{"ha":1274,"x_min":51,"x_max":1149,"o":"m 444 0 l 444 1010 l 475 1010 l 475 532 l 1118 532 l 1118 1010 l 1149 1010 l 1149 0 l 1118 0 l 1118 500 l 475 500 l 475 0 l 444 0 m 83 808 l 73 808 l 73 839 l 83 839 q 148 859 123 839 q 172 911 172 880 q 148 962 172 943 q 83 981 123 981 l 51 981 l 51 1013 l 83 1013 q 170 985 136 1013 q 203 911 203 957 q 170 837 203 865 q 83 808 136 808 m 283 812 l 309 1010 l 342 1010 l 311 812 l 283 812 z "},"Ἥ":{"ha":1274,"x_min":51,"x_max":1151,"o":"m 446 0 l 446 1010 l 477 1010 l 477 532 l 1120 532 l 1120 1010 l 1151 1010 l 1151 0 l 1120 0 l 1120 500 l 477 500 l 477 0 l 446 0 m 171 808 q 84 837 118 808 q 51 911 51 865 q 84 985 51 957 q 171 1013 118 1013 l 203 1013 l 203 981 l 171 981 q 107 962 132 981 q 82 911 82 943 q 107 859 82 880 q 171 839 132 839 l 182 839 l 182 808 l 171 808 m 285 812 l 311 1010 l 345 1010 l 313 812 l 285 812 z "},"Ἦ":{"ha":1242,"x_min":51,"x_max":1118,"o":"m 413 0 l 413 1010 l 444 1010 l 444 532 l 1087 532 l 1087 1010 l 1118 1010 l 1118 0 l 1087 0 l 1087 500 l 444 500 l 444 0 l 413 0 m 195 806 l 184 806 l 184 837 l 195 837 q 260 857 235 837 q 284 909 284 878 q 260 960 284 941 q 195 979 235 979 l 163 979 l 163 1010 l 195 1010 q 282 983 248 1010 q 315 909 315 955 q 282 834 315 863 q 195 806 248 806 m 327 1078 q 277 1090 298 1078 q 239 1118 256 1103 q 203 1146 221 1134 q 161 1158 184 1158 q 106 1138 127 1158 q 82 1083 85 1118 l 51 1083 q 83 1159 55 1129 q 155 1190 112 1190 q 209 1177 187 1190 q 249 1149 231 1165 q 283 1122 267 1134 q 321 1109 300 1109 q 369 1126 351 1109 q 396 1182 388 1143 l 428 1182 q 393 1106 420 1134 q 327 1078 366 1078 z "},"Ἧ":{"ha":1242,"x_min":51,"x_max":1118,"o":"m 412 0 l 412 1010 l 444 1010 l 444 532 l 1086 532 l 1086 1010 l 1118 1010 l 1118 0 l 1086 0 l 1086 500 l 444 500 l 444 0 l 412 0 m 283 806 q 196 834 230 806 q 163 909 163 863 q 196 983 163 955 q 283 1010 230 1010 l 315 1010 l 315 979 l 283 979 q 219 960 243 979 q 194 909 194 941 q 219 857 194 878 q 283 837 243 837 l 294 837 l 294 806 l 283 806 m 327 1078 q 277 1090 298 1078 q 239 1118 256 1103 q 203 1146 221 1134 q 161 1158 184 1158 q 106 1138 127 1158 q 82 1083 85 1118 l 51 1083 q 83 1159 55 1129 q 155 1190 112 1190 q 209 1177 187 1190 q 249 1149 231 1165 q 283 1122 267 1134 q 321 1109 300 1109 q 369 1126 351 1109 q 396 1182 388 1143 l 428 1182 q 393 1106 420 1134 q 327 1078 366 1078 z "},"Ὴ":{"ha":1065,"x_min":28,"x_max":942,"o":"m 237 0 l 237 1010 l 268 1010 l 268 532 l 911 532 l 911 1010 l 942 1010 l 942 0 l 911 0 l 911 500 l 268 500 l 268 0 l 237 0 m 89 817 l 61 817 l 28 1015 l 62 1015 l 89 817 z "},"Ή":{"ha":1018,"x_min":51,"x_max":894,"o":"m 189 0 l 189 1010 l 220 1010 l 220 532 l 863 532 l 863 1010 l 894 1010 l 894 0 l 863 0 l 863 500 l 220 500 l 220 0 l 189 0 m 51 812 l 77 1010 l 111 1010 l 79 812 l 51 812 z "},"Н":{"ha":952,"x_min":123,"x_max":829,"o":"m 123 0 l 123 1010 l 155 1010 l 155 532 l 798 532 l 798 1010 l 829 1010 l 829 0 l 798 0 l 798 500 l 155 500 l 155 0 l 123 0 z "},"ᾘ":{"ha":1123,"x_min":51,"x_max":1000,"o":"m 294 0 l 294 1010 l 326 1010 l 326 532 l 968 532 l 968 1010 l 1000 1010 l 1000 0 l 968 0 l 968 500 l 326 500 l 326 0 l 294 0 m 705 -286 q 652 -264 673 -286 q 631 -210 631 -243 l 631 -73 l 663 -73 l 663 -210 q 675 -244 663 -231 q 707 -257 687 -257 q 717 -257 712 -257 q 727 -256 722 -256 l 728 -286 q 718 -286 724 -286 q 705 -286 711 -286 m 83 809 l 73 809 l 73 840 l 83 840 q 148 861 123 840 q 172 912 172 881 q 148 963 172 944 q 83 983 123 983 l 51 983 l 51 1014 l 83 1014 q 170 986 136 1014 q 203 912 203 958 q 170 838 203 867 q 83 809 136 809 z "},"ᾙ":{"ha":1132,"x_min":51,"x_max":1008,"o":"m 302 0 l 302 1010 l 334 1010 l 334 532 l 977 532 l 977 1010 l 1008 1010 l 1008 0 l 977 0 l 977 500 l 334 500 l 334 0 l 302 0 m 713 -286 q 661 -264 682 -286 q 640 -210 640 -243 l 640 -73 l 671 -73 l 671 -210 q 683 -244 671 -231 q 715 -257 695 -257 q 725 -257 720 -257 q 735 -256 730 -256 l 736 -286 q 726 -286 732 -286 q 713 -286 720 -286 m 171 808 q 84 837 118 808 q 51 911 51 865 q 84 985 51 957 q 171 1013 118 1013 l 203 1013 l 203 981 l 171 981 q 107 962 132 981 q 82 911 82 943 q 107 859 82 880 q 171 839 132 839 l 182 839 l 182 808 l 171 808 z "},"ᾚ":{"ha":1278,"x_min":51,"x_max":1154,"o":"m 448 0 l 448 1010 l 479 1010 l 479 532 l 1122 532 l 1122 1010 l 1154 1010 l 1154 0 l 1122 0 l 1122 500 l 479 500 l 479 0 l 448 0 m 859 -286 q 806 -264 827 -286 q 785 -210 785 -243 l 785 -73 l 817 -73 l 817 -210 q 829 -244 817 -231 q 861 -257 841 -257 q 871 -257 866 -257 q 881 -256 876 -256 l 882 -286 q 871 -286 878 -286 q 859 -286 865 -286 m 83 808 l 73 808 l 73 839 l 83 839 q 148 859 123 839 q 172 911 172 880 q 148 962 172 943 q 83 981 123 981 l 51 981 l 51 1013 l 83 1013 q 170 985 136 1013 q 203 911 203 957 q 170 837 203 865 q 83 808 136 808 m 302 812 l 275 812 l 243 1010 l 277 1010 l 302 812 z "},"ᾛ":{"ha":1280,"x_min":51,"x_max":1156,"o":"m 451 0 l 451 1010 l 482 1010 l 482 532 l 1125 532 l 1125 1010 l 1156 1010 l 1156 0 l 1125 0 l 1125 500 l 482 500 l 482 0 l 451 0 m 862 -286 q 809 -264 830 -286 q 788 -210 788 -243 l 788 -73 l 819 -73 l 819 -210 q 831 -244 819 -231 q 864 -257 844 -257 q 874 -257 869 -257 q 884 -256 879 -256 l 885 -286 q 874 -286 880 -286 q 862 -286 868 -286 m 171 808 q 84 837 118 808 q 51 911 51 865 q 84 985 51 957 q 171 1013 118 1013 l 203 1013 l 203 981 l 171 981 q 107 962 132 981 q 82 911 82 943 q 107 859 82 880 q 171 839 132 839 l 182 839 l 182 808 l 171 808 m 324 812 l 297 812 l 264 1010 l 298 1010 l 324 812 z "},"ᾜ":{"ha":1274,"x_min":51,"x_max":1149,"o":"m 444 0 l 444 1010 l 475 1010 l 475 532 l 1118 532 l 1118 1010 l 1149 1010 l 1149 0 l 1118 0 l 1118 500 l 475 500 l 475 0 l 444 0 m 855 -286 q 802 -264 823 -286 q 781 -210 781 -243 l 781 -73 l 812 -73 l 812 -210 q 825 -244 812 -231 q 857 -257 837 -257 q 867 -257 862 -257 q 877 -256 872 -256 l 878 -286 q 867 -286 873 -286 q 855 -286 861 -286 m 83 808 l 73 808 l 73 839 l 83 839 q 148 859 123 839 q 172 911 172 880 q 148 962 172 943 q 83 981 123 981 l 51 981 l 51 1013 l 83 1013 q 170 985 136 1013 q 203 911 203 957 q 170 837 203 865 q 83 808 136 808 m 283 812 l 309 1010 l 342 1010 l 311 812 l 283 812 z "},"ᾝ":{"ha":1274,"x_min":51,"x_max":1151,"o":"m 446 0 l 446 1010 l 477 1010 l 477 532 l 1120 532 l 1120 1010 l 1151 1010 l 1151 0 l 1120 0 l 1120 500 l 477 500 l 477 0 l 446 0 m 857 -286 q 804 -264 825 -286 q 783 -210 783 -243 l 783 -73 l 814 -73 l 814 -210 q 826 -244 814 -231 q 859 -257 838 -257 q 868 -257 863 -257 q 878 -256 873 -256 l 880 -286 q 869 -286 875 -286 q 857 -286 863 -286 m 171 808 q 84 837 118 808 q 51 911 51 865 q 84 985 51 957 q 171 1013 118 1013 l 203 1013 l 203 981 l 171 981 q 107 962 132 981 q 82 911 82 943 q 107 859 82 880 q 171 839 132 839 l 182 839 l 182 808 l 171 808 m 285 812 l 311 1010 l 345 1010 l 313 812 l 285 812 z "},"ᾞ":{"ha":1242,"x_min":51,"x_max":1118,"o":"m 413 0 l 413 1010 l 444 1010 l 444 532 l 1087 532 l 1087 1010 l 1118 1010 l 1118 0 l 1087 0 l 1087 500 l 444 500 l 444 0 l 413 0 m 824 -286 q 771 -264 792 -286 q 750 -210 750 -243 l 750 -73 l 781 -73 l 781 -210 q 793 -244 781 -231 q 826 -257 806 -257 q 836 -257 831 -257 q 846 -256 841 -256 l 847 -286 q 836 -286 842 -286 q 824 -286 830 -286 m 195 806 l 184 806 l 184 837 l 195 837 q 260 857 235 837 q 284 909 284 878 q 260 960 284 941 q 195 979 235 979 l 163 979 l 163 1010 l 195 1010 q 282 983 248 1010 q 315 909 315 955 q 282 834 315 863 q 195 806 248 806 m 327 1078 q 277 1090 298 1078 q 239 1118 256 1103 q 203 1146 221 1134 q 161 1158 184 1158 q 106 1138 127 1158 q 82 1083 85 1118 l 51 1083 q 83 1159 55 1129 q 155 1190 112 1190 q 209 1177 187 1190 q 249 1149 231 1165 q 283 1122 267 1134 q 321 1109 300 1109 q 369 1126 351 1109 q 396 1182 388 1143 l 428 1182 q 393 1106 420 1134 q 327 1078 366 1078 z "},"ᾟ":{"ha":1242,"x_min":51,"x_max":1118,"o":"m 412 0 l 412 1010 l 444 1010 l 444 532 l 1086 532 l 1086 1010 l 1118 1010 l 1118 0 l 1086 0 l 1086 500 l 444 500 l 444 0 l 412 0 m 823 -286 q 770 -264 791 -286 q 749 -210 749 -243 l 749 -73 l 781 -73 l 781 -210 q 793 -244 781 -231 q 825 -257 805 -257 q 835 -257 830 -257 q 845 -256 840 -256 l 846 -286 q 836 -286 842 -286 q 823 -286 829 -286 m 283 806 q 196 834 230 806 q 163 909 163 863 q 196 983 163 955 q 283 1010 230 1010 l 315 1010 l 315 979 l 283 979 q 219 960 243 979 q 194 909 194 941 q 219 857 194 878 q 283 837 243 837 l 294 837 l 294 806 l 283 806 m 327 1078 q 277 1090 298 1078 q 239 1118 256 1103 q 203 1146 221 1134 q 161 1158 184 1158 q 106 1138 127 1158 q 82 1083 85 1118 l 51 1083 q 83 1159 55 1129 q 155 1190 112 1190 q 209 1177 187 1190 q 249 1149 231 1165 q 283 1122 267 1134 q 321 1109 300 1109 q 369 1126 351 1109 q 396 1182 388 1143 l 428 1182 q 393 1106 420 1134 q 327 1078 366 1078 z "},"ῌ":{"ha":952,"x_min":123,"x_max":829,"o":"m 123 0 l 123 1010 l 155 1010 l 155 532 l 798 532 l 798 1010 l 829 1010 l 829 0 l 798 0 l 798 500 l 155 500 l 155 0 l 123 0 m 534 -286 q 481 -264 503 -286 q 460 -210 460 -243 l 460 -73 l 492 -73 l 492 -210 q 504 -244 492 -231 q 536 -257 516 -257 q 546 -257 541 -257 q 556 -256 551 -256 l 557 -286 q 547 -286 553 -286 q 534 -286 541 -286 z "},"I":{"ha":278,"x_min":123,"x_max":155,"o":"m 155 1010 l 155 0 l 123 0 l 123 1010 l 155 1010 z "},"":{"ha":557,"x_min":123,"x_max":433,"o":"m 155 1010 l 155 0 l 123 0 l 123 1010 l 155 1010 m 433 1010 l 433 0 l 401 0 l 401 1010 l 433 1010 z "},"Ï":{"ha":278,"x_min":-30,"x_max":308,"o":"m 155 1010 l 155 0 l 123 0 l 123 1010 l 155 1010 m 277 1194 q 254 1203 263 1194 q 244 1226 244 1213 q 254 1248 244 1239 q 277 1257 263 1257 q 299 1248 290 1257 q 308 1226 308 1239 q 299 1203 308 1213 q 277 1194 290 1194 m 3 1194 q -20 1203 -11 1194 q -30 1226 -30 1213 q -20 1248 -30 1239 q 3 1257 -11 1257 q 25 1248 16 1257 q 34 1226 34 1239 q 25 1203 34 1213 q 3 1194 16 1194 z "},"Ḯ":{"ha":278,"x_min":-27,"x_max":311,"o":"m 155 1010 l 155 0 l 123 0 l 123 1010 l 155 1010 m 279 1163 q 256 1173 266 1163 q 247 1196 247 1182 q 256 1218 247 1208 q 279 1227 266 1227 q 301 1218 292 1227 q 311 1196 311 1208 q 301 1173 311 1182 q 279 1163 292 1163 m 5 1163 q -18 1173 -8 1163 q -27 1196 -27 1182 q -18 1218 -27 1208 q 5 1227 -8 1227 q 27 1218 18 1227 q 37 1196 37 1208 q 27 1173 37 1182 q 5 1163 18 1163 m 121 1330 l 246 1516 l 286 1516 l 155 1330 l 121 1330 z "},"Ɨ":{"ha":292,"x_min":3,"x_max":289,"o":"m 161 1010 l 161 0 l 130 0 l 130 1010 l 161 1010 m 3 506 l 3 536 l 289 536 l 289 506 l 3 506 z "},"Ḭ":{"ha":278,"x_min":-50,"x_max":328,"o":"m 155 1010 l 155 0 l 123 0 l 123 1010 l 155 1010 m 227 -266 q 177 -254 198 -266 q 138 -226 156 -241 q 102 -198 121 -210 q 60 -186 84 -186 q 6 -206 27 -186 q -18 -261 -15 -226 l -50 -261 q -17 -185 -45 -215 q 55 -155 12 -155 q 109 -167 87 -155 q 149 -195 131 -179 q 183 -222 166 -210 q 221 -235 200 -235 q 269 -218 250 -235 q 296 -162 288 -201 l 328 -162 q 292 -238 319 -210 q 227 -266 265 -266 z "},"Ì":{"ha":278,"x_min":33,"x_max":158,"o":"m 155 1010 l 155 0 l 123 0 l 123 1010 l 155 1010 m 127 1107 l 33 1305 l 73 1305 l 159 1107 l 127 1107 z "},"Í":{"ha":278,"x_min":123,"x_max":245,"o":"m 155 1010 l 155 0 l 123 0 l 123 1010 l 155 1010 m 123 1107 l 209 1305 l 245 1305 l 152 1107 l 123 1107 z "},"Î":{"ha":278,"x_min":-47,"x_max":326,"o":"m 155 1010 l 155 0 l 123 0 l 123 1010 l 155 1010 m -8 1133 l -47 1133 l -47 1134 l 125 1320 l 151 1320 l 325 1134 l 325 1133 l 286 1133 l 138 1291 l -8 1133 z "},"Ĩ":{"ha":278,"x_min":-50,"x_max":328,"o":"m 155 1010 l 155 0 l 123 0 l 123 1010 l 155 1010 m 227 1170 q 177 1182 198 1170 q 138 1210 156 1194 q 102 1238 121 1225 q 60 1250 84 1250 q 6 1230 27 1250 q -18 1175 -15 1210 l -50 1175 q -17 1251 -45 1221 q 55 1281 12 1281 q 109 1269 87 1281 q 149 1241 131 1257 q 183 1213 166 1225 q 221 1201 200 1201 q 269 1218 250 1201 q 296 1274 288 1235 l 328 1274 q 292 1198 319 1225 q 227 1170 265 1170 z "},"Ī":{"ha":278,"x_min":-18,"x_max":296,"o":"m 155 1010 l 155 0 l 123 0 l 123 1010 l 155 1010 m 297 1241 l 297 1210 l -18 1210 l -18 1241 l 297 1241 z "},"Ĭ":{"ha":278,"x_min":-39,"x_max":317,"o":"m 155 1010 l 155 0 l 123 0 l 123 1010 l 155 1010 m 139 1125 q 49 1149 90 1125 q -15 1214 9 1173 q -39 1303 -39 1254 l -7 1303 q 36 1198 -7 1241 q 139 1156 79 1156 q 242 1198 199 1156 q 286 1303 286 1241 l 317 1303 q 293 1214 317 1254 q 229 1149 269 1173 q 139 1125 189 1125 z "},"Į":{"ha":278,"x_min":-4,"x_max":155,"o":"m 155 1010 l 155 0 l 123 0 l 123 1010 l 155 1010 m 123 -285 q 27 -255 58 -285 q -4 -180 -4 -226 q 32 -83 -4 -129 q 133 18 68 -37 l 155 0 q 59 -96 91 -54 q 27 -180 27 -137 q 48 -233 27 -212 q 123 -254 70 -254 q 137 -253 131 -254 q 151 -252 144 -252 l 153 -283 q 139 -284 146 -283 q 123 -285 132 -285 z "},"İ":{"ha":278,"x_min":107,"x_max":171,"o":"m 155 1010 l 155 0 l 123 0 l 123 1010 l 155 1010 m 140 1194 q 117 1203 126 1194 q 107 1226 107 1213 q 117 1248 107 1239 q 140 1257 126 1257 q 162 1248 153 1257 q 171 1226 171 1239 q 162 1203 171 1213 q 140 1194 153 1194 z "},"Ǐ":{"ha":278,"x_min":-47,"x_max":326,"o":"m 155 1010 l 155 0 l 123 0 l 123 1010 l 155 1010 m -8 1318 l 138 1161 l 286 1318 l 325 1318 l 325 1317 l 151 1132 l 125 1132 l -47 1317 l -47 1318 l -8 1318 z "},"Ȉ":{"ha":278,"x_min":-52,"x_max":233,"o":"m 155 1010 l 155 0 l 123 0 l 123 1010 l 155 1010 m 202 1107 l 118 1305 l 155 1305 l 233 1107 l 202 1107 m 52 1107 l -52 1305 l -14 1305 l 82 1107 l 52 1107 z "},"Ȋ":{"ha":278,"x_min":-39,"x_max":317,"o":"m 155 1010 l 155 0 l 123 0 l 123 1010 l 155 1010 m 139 1295 q 229 1274 189 1295 q 293 1216 270 1253 q 317 1133 317 1179 l 286 1133 q 243 1227 286 1189 q 139 1266 200 1266 q 36 1227 79 1266 q -7 1133 -7 1189 l -39 1133 q -15 1215 -39 1179 q 49 1274 9 1252 q 139 1295 90 1295 z "},"Ỉ":{"ha":278,"x_min":48,"x_max":209,"o":"m 155 1010 l 155 0 l 123 0 l 123 1010 l 155 1010 m 154 1107 l 123 1107 l 158 1185 q 174 1254 180 1234 q 119 1275 168 1275 l 48 1275 l 48 1305 l 119 1305 q 174 1296 153 1305 q 201 1269 194 1286 q 204 1228 208 1252 q 186 1175 201 1204 l 154 1107 z "},"Ị":{"ha":278,"x_min":107,"x_max":171,"o":"m 155 1010 l 155 0 l 123 0 l 123 1010 l 155 1010 m 140 -242 q 117 -233 126 -242 q 107 -210 107 -223 q 117 -188 107 -197 q 140 -178 126 -178 q 162 -188 153 -178 q 171 -210 171 -197 q 162 -233 171 -223 q 140 -242 153 -242 z "},"Ɩ":{"ha":261,"x_min":100,"x_max":241,"o":"m 227 0 q 133 26 166 -3 q 100 119 100 56 l 100 1010 l 132 1010 l 132 119 q 155 48 132 68 q 227 31 178 28 q 233 31 231 31 q 239 31 235 31 l 241 1 q 234 0 237 0 q 227 0 231 0 z "},"Ι":{"ha":278,"x_min":123,"x_max":155,"o":"m 155 1010 l 155 0 l 123 0 l 123 1010 l 155 1010 z "},"Ί":{"ha":344,"x_min":51,"x_max":220,"o":"m 220 1010 l 220 0 l 189 0 l 189 1010 l 220 1010 m 51 812 l 77 1010 l 111 1010 l 79 812 l 51 812 z "},"Ϊ":{"ha":278,"x_min":-30,"x_max":308,"o":"m 155 1010 l 155 0 l 123 0 l 123 1010 l 155 1010 m 277 1194 q 254 1203 263 1194 q 244 1226 244 1213 q 254 1248 244 1239 q 277 1257 263 1257 q 299 1248 290 1257 q 308 1226 308 1239 q 299 1203 308 1213 q 277 1194 290 1194 m 3 1194 q -20 1203 -11 1194 q -30 1226 -30 1213 q -20 1248 -30 1239 q 3 1257 -11 1257 q 25 1248 16 1257 q 34 1226 34 1239 q 25 1203 34 1213 q 3 1194 16 1194 z "},"Ἰ":{"ha":449,"x_min":51,"x_max":326,"o":"m 326 1010 l 326 0 l 294 0 l 294 1010 l 326 1010 m 83 809 l 73 809 l 73 840 l 83 840 q 148 861 123 840 q 172 912 172 881 q 148 963 172 944 q 83 983 123 983 l 51 983 l 51 1014 l 83 1014 q 170 986 136 1014 q 203 912 203 958 q 170 838 203 867 q 83 809 136 809 z "},"Ἱ":{"ha":458,"x_min":51,"x_max":334,"o":"m 334 1010 l 334 0 l 302 0 l 302 1010 l 334 1010 m 171 808 q 84 837 118 808 q 51 911 51 865 q 84 985 51 957 q 171 1013 118 1013 l 203 1013 l 203 981 l 171 981 q 107 962 132 981 q 82 911 82 943 q 107 859 82 880 q 171 839 132 839 l 182 839 l 182 808 l 171 808 z "},"Ἲ":{"ha":604,"x_min":51,"x_max":480,"o":"m 479 1010 l 479 0 l 448 0 l 448 1010 l 479 1010 m 83 808 l 73 808 l 73 839 l 83 839 q 148 859 123 839 q 172 911 172 880 q 148 962 172 943 q 83 981 123 981 l 51 981 l 51 1013 l 83 1013 q 170 985 136 1013 q 203 911 203 957 q 170 837 203 865 q 83 808 136 808 m 302 812 l 275 812 l 243 1010 l 277 1010 l 302 812 z "},"Ἳ":{"ha":606,"x_min":51,"x_max":482,"o":"m 482 1010 l 482 0 l 451 0 l 451 1010 l 482 1010 m 171 808 q 84 837 118 808 q 51 911 51 865 q 84 985 51 957 q 171 1013 118 1013 l 203 1013 l 203 981 l 171 981 q 107 962 132 981 q 82 911 82 943 q 107 859 82 880 q 171 839 132 839 l 182 839 l 182 808 l 171 808 m 324 812 l 297 812 l 264 1010 l 298 1010 l 324 812 z "},"Ἴ":{"ha":600,"x_min":51,"x_max":475,"o":"m 475 1010 l 475 0 l 444 0 l 444 1010 l 475 1010 m 83 808 l 73 808 l 73 839 l 83 839 q 148 859 123 839 q 172 911 172 880 q 148 962 172 943 q 83 981 123 981 l 51 981 l 51 1013 l 83 1013 q 170 985 136 1013 q 203 911 203 957 q 170 837 203 865 q 83 808 136 808 m 283 812 l 309 1010 l 342 1010 l 311 812 l 283 812 z "},"Ἵ":{"ha":600,"x_min":51,"x_max":477,"o":"m 477 1010 l 477 0 l 446 0 l 446 1010 l 477 1010 m 171 808 q 84 837 118 808 q 51 911 51 865 q 84 985 51 957 q 171 1013 118 1013 l 203 1013 l 203 981 l 171 981 q 107 962 132 981 q 82 911 82 943 q 107 859 82 880 q 171 839 132 839 l 182 839 l 182 808 l 171 808 m 285 812 l 311 1010 l 345 1010 l 313 812 l 285 812 z "},"Ἶ":{"ha":568,"x_min":51,"x_max":444,"o":"m 444 1010 l 444 0 l 413 0 l 413 1010 l 444 1010 m 195 806 l 184 806 l 184 837 l 195 837 q 260 857 235 837 q 284 909 284 878 q 260 960 284 941 q 195 979 235 979 l 163 979 l 163 1010 l 195 1010 q 282 983 248 1010 q 315 909 315 955 q 282 834 315 863 q 195 806 248 806 m 327 1078 q 277 1090 298 1078 q 239 1118 256 1103 q 203 1146 221 1134 q 161 1158 184 1158 q 106 1138 127 1158 q 82 1083 85 1118 l 51 1083 q 83 1159 55 1129 q 155 1190 112 1190 q 209 1177 187 1190 q 249 1149 231 1165 q 283 1122 267 1134 q 321 1109 300 1109 q 369 1126 351 1109 q 396 1182 388 1143 l 428 1182 q 393 1106 420 1134 q 327 1078 366 1078 z "},"Ἷ":{"ha":568,"x_min":51,"x_max":444,"o":"m 444 1010 l 444 0 l 412 0 l 412 1010 l 444 1010 m 283 806 q 196 834 230 806 q 163 909 163 863 q 196 983 163 955 q 283 1010 230 1010 l 315 1010 l 315 979 l 283 979 q 219 960 243 979 q 194 909 194 941 q 219 857 194 878 q 283 837 243 837 l 294 837 l 294 806 l 283 806 m 327 1078 q 277 1090 298 1078 q 239 1118 256 1103 q 203 1146 221 1134 q 161 1158 184 1158 q 106 1138 127 1158 q 82 1083 85 1118 l 51 1083 q 83 1159 55 1129 q 155 1190 112 1190 q 209 1177 187 1190 q 249 1149 231 1165 q 283 1122 267 1134 q 321 1109 300 1109 q 369 1126 351 1109 q 396 1182 388 1143 l 428 1182 q 393 1106 420 1134 q 327 1078 366 1078 z "},"Ῐ":{"ha":278,"x_min":-39,"x_max":317,"o":"m 155 1010 l 155 0 l 123 0 l 123 1010 l 155 1010 m 139 1125 q 49 1149 90 1125 q -15 1214 9 1173 q -39 1303 -39 1254 l -7 1303 q 36 1198 -7 1241 q 139 1156 79 1156 q 242 1198 199 1156 q 286 1303 286 1241 l 317 1303 q 293 1214 317 1254 q 229 1149 269 1173 q 139 1125 189 1125 z "},"Ῑ":{"ha":278,"x_min":-18,"x_max":296,"o":"m 155 1010 l 155 0 l 123 0 l 123 1010 l 155 1010 m 297 1241 l 297 1210 l -18 1210 l -18 1241 l 297 1241 z "},"Ὶ":{"ha":391,"x_min":28,"x_max":268,"o":"m 268 1010 l 268 0 l 237 0 l 237 1010 l 268 1010 m 89 817 l 61 817 l 28 1015 l 62 1015 l 89 817 z "},"Ί":{"ha":344,"x_min":51,"x_max":220,"o":"m 220 1010 l 220 0 l 189 0 l 189 1010 l 220 1010 m 51 812 l 77 1010 l 111 1010 l 79 812 l 51 812 z "},"І":{"ha":278,"x_min":123,"x_max":155,"o":"m 155 1010 l 155 0 l 123 0 l 123 1010 l 155 1010 z "},"Ї":{"ha":278,"x_min":-30,"x_max":308,"o":"m 155 1010 l 155 0 l 123 0 l 123 1010 l 155 1010 m 277 1194 q 254 1203 263 1194 q 244 1226 244 1213 q 254 1248 244 1239 q 277 1257 263 1257 q 299 1248 290 1257 q 308 1226 308 1239 q 299 1203 308 1213 q 277 1194 290 1194 m 3 1194 q -20 1203 -11 1194 q -30 1226 -30 1213 q -20 1248 -30 1239 q 3 1257 -11 1257 q 25 1248 16 1257 q 34 1226 34 1239 q 25 1203 34 1213 q 3 1194 16 1194 z "},"":{"ha":384,"x_min":55,"x_max":329,"o":"m 55 0 l 55 31 l 176 31 l 176 979 l 55 979 l 55 1010 l 329 1010 l 329 979 l 207 979 l 207 31 l 329 31 l 329 0 l 55 0 z "},"":{"ha":384,"x_min":23,"x_max":361,"o":"m 55 0 l 55 31 l 176 31 l 176 979 l 55 979 l 55 1010 l 329 1010 l 329 979 l 207 979 l 207 31 l 329 31 l 329 0 l 55 0 m 330 1194 q 307 1203 316 1194 q 297 1226 297 1213 q 307 1248 297 1239 q 330 1257 316 1257 q 352 1248 342 1257 q 361 1226 361 1239 q 352 1203 361 1213 q 330 1194 342 1194 m 56 1194 q 33 1203 42 1194 q 23 1226 23 1213 q 33 1248 23 1239 q 56 1257 42 1257 q 78 1248 68 1257 q 87 1226 87 1239 q 78 1203 87 1213 q 56 1194 68 1194 z "},"":{"ha":384,"x_min":25,"x_max":363,"o":"m 55 0 l 55 31 l 176 31 l 176 979 l 55 979 l 55 1010 l 329 1010 l 329 979 l 207 979 l 207 31 l 329 31 l 329 0 l 55 0 m 332 1163 q 309 1173 318 1163 q 299 1196 299 1182 q 309 1218 299 1208 q 332 1227 318 1227 q 354 1218 345 1227 q 363 1196 363 1208 q 354 1173 363 1182 q 332 1163 345 1163 m 58 1163 q 35 1173 44 1163 q 25 1196 25 1182 q 35 1218 25 1208 q 58 1227 44 1227 q 80 1218 71 1227 q 89 1196 89 1208 q 80 1173 89 1182 q 58 1163 71 1163 m 174 1330 l 298 1516 l 338 1516 l 207 1330 l 174 1330 z "},"":{"ha":384,"x_min":49,"x_max":334,"o":"m 55 0 l 55 31 l 176 31 l 176 979 l 55 979 l 55 1010 l 329 1010 l 329 979 l 207 979 l 207 31 l 329 31 l 329 0 l 55 0 m 49 506 l 49 536 l 334 536 l 334 506 l 49 506 z "},"":{"ha":384,"x_min":3,"x_max":380,"o":"m 55 0 l 55 31 l 176 31 l 176 979 l 55 979 l 55 1010 l 329 1010 l 329 979 l 207 979 l 207 31 l 329 31 l 329 0 l 55 0 m 279 -266 q 229 -254 250 -266 q 191 -226 208 -241 q 155 -198 173 -210 q 113 -186 136 -186 q 58 -206 79 -186 q 34 -261 37 -226 l 3 -261 q 35 -185 7 -215 q 107 -155 64 -155 q 161 -167 139 -155 q 201 -195 183 -179 q 235 -222 218 -210 q 273 -235 252 -235 q 321 -218 302 -235 q 348 -162 340 -201 l 380 -162 q 345 -238 372 -210 q 279 -266 317 -266 z "},"":{"ha":384,"x_min":55,"x_max":329,"o":"m 55 0 l 55 31 l 176 31 l 176 979 l 55 979 l 55 1010 l 329 1010 l 329 979 l 207 979 l 207 31 l 329 31 l 329 0 l 55 0 m 180 1107 l 85 1305 l 125 1305 l 211 1107 l 180 1107 z "},"":{"ha":384,"x_min":55,"x_max":329,"o":"m 55 0 l 55 31 l 176 31 l 176 979 l 55 979 l 55 1010 l 329 1010 l 329 979 l 207 979 l 207 31 l 329 31 l 329 0 l 55 0 m 176 1107 l 262 1305 l 298 1305 l 205 1107 l 176 1107 z "},"":{"ha":384,"x_min":5,"x_max":378,"o":"m 55 0 l 55 31 l 176 31 l 176 979 l 55 979 l 55 1010 l 329 1010 l 329 979 l 207 979 l 207 31 l 329 31 l 329 0 l 55 0 m 45 1133 l 5 1133 l 5 1134 l 178 1320 l 203 1320 l 378 1134 l 378 1133 l 339 1133 l 191 1291 l 45 1133 z "},"":{"ha":384,"x_min":3,"x_max":380,"o":"m 55 0 l 55 31 l 176 31 l 176 979 l 55 979 l 55 1010 l 329 1010 l 329 979 l 207 979 l 207 31 l 329 31 l 329 0 l 55 0 m 279 1170 q 229 1182 250 1170 q 191 1210 208 1194 q 155 1238 173 1225 q 113 1250 136 1250 q 58 1230 79 1250 q 34 1175 37 1210 l 3 1175 q 35 1251 7 1221 q 107 1281 64 1281 q 161 1269 139 1281 q 201 1241 183 1257 q 235 1213 218 1225 q 273 1201 252 1201 q 321 1218 302 1201 q 348 1274 340 1235 l 380 1274 q 345 1198 372 1225 q 279 1170 317 1170 z "},"":{"ha":384,"x_min":35,"x_max":349,"o":"m 55 0 l 55 31 l 176 31 l 176 979 l 55 979 l 55 1010 l 329 1010 l 329 979 l 207 979 l 207 31 l 329 31 l 329 0 l 55 0 m 349 1241 l 349 1210 l 34 1210 l 34 1241 l 349 1241 z "},"":{"ha":384,"x_min":14,"x_max":370,"o":"m 55 0 l 55 31 l 176 31 l 176 979 l 55 979 l 55 1010 l 329 1010 l 329 979 l 207 979 l 207 31 l 329 31 l 329 0 l 55 0 m 192 1125 q 102 1149 142 1125 q 38 1214 62 1173 q 14 1303 14 1254 l 45 1303 q 89 1198 45 1241 q 192 1156 132 1156 q 295 1198 252 1156 q 338 1303 338 1241 l 370 1303 q 346 1214 370 1254 q 282 1149 322 1173 q 192 1125 242 1125 z "},"":{"ha":384,"x_min":55,"x_max":329,"o":"m 55 0 l 55 31 l 176 31 l 176 979 l 55 979 l 55 1010 l 329 1010 l 329 979 l 207 979 l 207 31 l 329 31 l 329 0 l 55 0 m 297 -285 q 201 -255 232 -285 q 170 -180 170 -226 q 205 -83 170 -129 q 307 18 241 -37 l 328 0 q 233 -96 264 -54 q 201 -180 201 -137 q 222 -233 201 -212 q 297 -254 243 -254 q 311 -253 304 -254 q 324 -252 317 -252 l 327 -283 q 312 -284 319 -283 q 297 -285 305 -285 z "},"":{"ha":384,"x_min":55,"x_max":329,"o":"m 55 0 l 55 31 l 176 31 l 176 979 l 55 979 l 55 1010 l 329 1010 l 329 979 l 207 979 l 207 31 l 329 31 l 329 0 l 55 0 m 193 1194 q 170 1203 179 1194 q 160 1226 160 1213 q 170 1248 160 1239 q 193 1257 179 1257 q 215 1248 205 1257 q 224 1226 224 1239 q 215 1203 224 1213 q 193 1194 205 1194 z "},"":{"ha":384,"x_min":5,"x_max":378,"o":"m 55 0 l 55 31 l 176 31 l 176 979 l 55 979 l 55 1010 l 329 1010 l 329 979 l 207 979 l 207 31 l 329 31 l 329 0 l 55 0 m 45 1318 l 191 1161 l 339 1318 l 378 1318 l 378 1317 l 203 1132 l 178 1132 l 5 1317 l 5 1318 l 45 1318 z "},"":{"ha":384,"x_min":1,"x_max":329,"o":"m 55 0 l 55 31 l 176 31 l 176 979 l 55 979 l 55 1010 l 329 1010 l 329 979 l 207 979 l 207 31 l 329 31 l 329 0 l 55 0 m 255 1107 l 171 1305 l 208 1305 l 286 1107 l 255 1107 m 104 1107 l 1 1305 l 39 1305 l 135 1107 l 104 1107 z "},"":{"ha":384,"x_min":14,"x_max":370,"o":"m 55 0 l 55 31 l 176 31 l 176 979 l 55 979 l 55 1010 l 329 1010 l 329 979 l 207 979 l 207 31 l 329 31 l 329 0 l 55 0 m 192 1295 q 282 1274 241 1295 q 346 1216 323 1253 q 370 1133 370 1179 l 339 1133 q 296 1227 339 1189 q 192 1266 253 1266 q 89 1227 132 1266 q 45 1133 45 1189 l 14 1133 q 38 1215 14 1179 q 102 1274 62 1252 q 192 1295 142 1295 z "},"":{"ha":384,"x_min":55,"x_max":329,"o":"m 55 0 l 55 31 l 176 31 l 176 979 l 55 979 l 55 1010 l 329 1010 l 329 979 l 207 979 l 207 31 l 329 31 l 329 0 l 55 0 m 207 1107 l 176 1107 l 211 1185 q 227 1254 233 1234 q 172 1275 221 1275 l 101 1275 l 101 1305 l 172 1305 q 227 1296 206 1305 q 254 1269 247 1286 q 257 1228 261 1252 q 239 1175 254 1204 l 207 1107 z "},"":{"ha":384,"x_min":55,"x_max":329,"o":"m 55 0 l 55 31 l 176 31 l 176 979 l 55 979 l 55 1010 l 329 1010 l 329 979 l 207 979 l 207 31 l 329 31 l 329 0 l 55 0 m 193 -242 q 170 -233 179 -242 q 160 -210 160 -223 q 170 -188 160 -197 q 193 -178 179 -178 q 215 -188 205 -178 q 224 -210 224 -197 q 215 -233 224 -223 q 193 -242 205 -242 z "},"":{"ha":592,"x_min":51,"x_max":536,"o":"m 263 0 l 263 31 l 384 31 l 384 979 l 263 979 l 263 1010 l 537 1010 l 537 979 l 415 979 l 415 31 l 537 31 l 537 0 l 263 0 m 83 809 l 73 809 l 73 840 l 83 840 q 148 861 123 840 q 172 912 172 881 q 148 963 172 944 q 83 983 123 983 l 51 983 l 51 1014 l 83 1014 q 170 986 136 1014 q 203 912 203 958 q 170 838 203 867 q 83 809 136 809 z "},"":{"ha":600,"x_min":51,"x_max":545,"o":"m 271 0 l 271 31 l 392 31 l 392 979 l 271 979 l 271 1010 l 545 1010 l 545 979 l 423 979 l 423 31 l 545 31 l 545 0 l 271 0 m 171 808 q 84 837 118 808 q 51 911 51 865 q 84 985 51 957 q 171 1013 118 1013 l 203 1013 l 203 981 l 171 981 q 107 962 132 981 q 82 911 82 943 q 107 859 82 880 q 171 839 132 839 l 182 839 l 182 808 l 171 808 z "},"":{"ha":797,"x_min":51,"x_max":691,"o":"m 417 0 l 417 31 l 538 31 l 538 979 l 417 979 l 417 1010 l 691 1010 l 691 979 l 569 979 l 569 31 l 691 31 l 691 0 l 417 0 m 83 808 l 73 808 l 73 839 l 83 839 q 148 859 123 839 q 172 911 172 880 q 148 962 172 943 q 83 981 123 981 l 51 981 l 51 1013 l 83 1013 q 170 985 136 1013 q 203 911 203 957 q 170 837 203 865 q 83 808 136 808 m 302 812 l 275 812 l 243 1010 l 277 1010 l 302 812 z "},"":{"ha":749,"x_min":51,"x_max":694,"o":"m 420 0 l 420 31 l 541 31 l 541 979 l 420 979 l 420 1010 l 694 1010 l 694 979 l 572 979 l 572 31 l 694 31 l 694 0 l 420 0 m 171 808 q 84 837 118 808 q 51 911 51 865 q 84 985 51 957 q 171 1013 118 1013 l 203 1013 l 203 981 l 171 981 q 107 962 132 981 q 82 911 82 943 q 107 859 82 880 q 171 839 132 839 l 182 839 l 182 808 l 171 808 m 324 812 l 297 812 l 264 1010 l 298 1010 l 324 812 z "},"":{"ha":742,"x_min":51,"x_max":687,"o":"m 413 0 l 413 31 l 534 31 l 534 979 l 413 979 l 413 1010 l 687 1010 l 687 979 l 565 979 l 565 31 l 687 31 l 687 0 l 413 0 m 83 808 l 73 808 l 73 839 l 83 839 q 148 859 123 839 q 172 911 172 880 q 148 962 172 943 q 83 981 123 981 l 51 981 l 51 1013 l 83 1013 q 170 985 136 1013 q 203 911 203 957 q 170 837 203 865 q 83 808 136 808 m 283 812 l 309 1010 l 342 1010 l 311 812 l 283 812 z "},"":{"ha":743,"x_min":51,"x_max":688,"o":"m 414 0 l 414 31 l 535 31 l 535 979 l 414 979 l 414 1010 l 688 1010 l 688 979 l 566 979 l 566 31 l 688 31 l 688 0 l 414 0 m 171 808 q 84 837 118 808 q 51 911 51 865 q 84 985 51 957 q 171 1013 118 1013 l 203 1013 l 203 981 l 171 981 q 107 962 132 981 q 82 911 82 943 q 107 859 82 880 q 171 839 132 839 l 182 839 l 182 808 l 171 808 m 285 812 l 311 1010 l 345 1010 l 313 812 l 285 812 z "},"":{"ha":711,"x_min":51,"x_max":656,"o":"m 382 0 l 382 31 l 503 31 l 503 979 l 382 979 l 382 1010 l 656 1010 l 656 979 l 534 979 l 534 31 l 656 31 l 656 0 l 382 0 m 195 806 l 184 806 l 184 837 l 195 837 q 260 857 235 837 q 284 909 284 878 q 260 960 284 941 q 195 979 235 979 l 163 979 l 163 1010 l 195 1010 q 282 983 248 1010 q 315 909 315 955 q 282 834 315 863 q 195 806 248 806 m 327 1078 q 277 1090 298 1078 q 239 1118 256 1103 q 203 1146 221 1134 q 161 1158 184 1158 q 106 1138 127 1158 q 82 1083 85 1118 l 51 1083 q 83 1159 55 1129 q 155 1190 112 1190 q 209 1177 187 1190 q 249 1149 231 1165 q 283 1122 267 1134 q 321 1109 300 1109 q 369 1126 351 1109 q 396 1182 388 1143 l 428 1182 q 393 1106 420 1134 q 327 1078 366 1078 z "},"":{"ha":710,"x_min":51,"x_max":655,"o":"m 381 0 l 381 31 l 502 31 l 502 979 l 381 979 l 381 1010 l 655 1010 l 655 979 l 533 979 l 533 31 l 655 31 l 655 0 l 381 0 m 283 806 q 196 834 230 806 q 163 909 163 863 q 196 983 163 955 q 283 1010 230 1010 l 315 1010 l 315 979 l 283 979 q 219 960 243 979 q 194 909 194 941 q 219 857 194 878 q 283 837 243 837 l 294 837 l 294 806 l 283 806 m 327 1078 q 277 1090 298 1078 q 239 1118 256 1103 q 203 1146 221 1134 q 161 1158 184 1158 q 106 1138 127 1158 q 82 1083 85 1118 l 51 1083 q 83 1159 55 1129 q 155 1190 112 1190 q 209 1177 187 1190 q 249 1149 231 1165 q 283 1122 267 1134 q 321 1109 300 1109 q 369 1126 351 1109 q 396 1182 388 1143 l 428 1182 q 393 1106 420 1134 q 327 1078 366 1078 z "},"":{"ha":384,"x_min":14,"x_max":370,"o":"m 55 0 l 55 31 l 176 31 l 176 979 l 55 979 l 55 1010 l 329 1010 l 329 979 l 207 979 l 207 31 l 329 31 l 329 0 l 55 0 m 192 1125 q 102 1149 142 1125 q 38 1214 62 1173 q 14 1303 14 1254 l 45 1303 q 89 1198 45 1241 q 192 1156 132 1156 q 295 1198 252 1156 q 338 1303 338 1241 l 370 1303 q 346 1214 370 1254 q 282 1149 322 1173 q 192 1125 242 1125 z "},"":{"ha":384,"x_min":35,"x_max":349,"o":"m 55 0 l 55 31 l 176 31 l 176 979 l 55 979 l 55 1010 l 329 1010 l 329 979 l 207 979 l 207 31 l 329 31 l 329 0 l 55 0 m 349 1241 l 349 1210 l 34 1210 l 34 1241 l 349 1241 z "},"":{"ha":512,"x_min":6,"x_max":457,"o":"m 183 0 l 183 31 l 304 31 l 304 979 l 183 979 l 183 1010 l 457 1010 l 457 979 l 335 979 l 335 31 l 457 31 l 457 0 l 183 0 m 66 817 l 39 817 l 6 1015 l 40 1015 l 66 817 z "},"":{"ha":486,"x_min":51,"x_max":431,"o":"m 157 0 l 157 31 l 278 31 l 278 979 l 157 979 l 157 1010 l 431 1010 l 431 979 l 309 979 l 309 31 l 431 31 l 431 0 l 157 0 m 51 812 l 77 1010 l 111 1010 l 79 812 l 51 812 z "},"":{"ha":384,"x_min":55,"x_max":329,"o":"m 55 0 l 55 31 l 176 31 l 176 979 l 55 979 l 55 1010 l 329 1010 l 329 979 l 207 979 l 207 31 l 329 31 l 329 0 l 55 0 z "},"":{"ha":384,"x_min":23,"x_max":361,"o":"m 55 0 l 55 31 l 176 31 l 176 979 l 55 979 l 55 1010 l 329 1010 l 329 979 l 207 979 l 207 31 l 329 31 l 329 0 l 55 0 m 330 1194 q 307 1203 316 1194 q 297 1226 297 1213 q 307 1248 297 1239 q 330 1257 316 1257 q 352 1248 342 1257 q 361 1226 361 1239 q 352 1203 361 1213 q 330 1194 342 1194 m 56 1194 q 33 1203 42 1194 q 23 1226 23 1213 q 33 1248 23 1239 q 56 1257 42 1257 q 78 1248 68 1257 q 87 1226 87 1239 q 78 1203 87 1213 q 56 1194 68 1194 z "},"J":{"ha":718,"x_min":82,"x_max":614,"o":"m 348 -14 q 154 62 225 -14 q 82 269 82 138 l 82 315 l 113 315 l 113 269 q 176 85 113 152 q 348 18 238 18 q 520 85 458 18 q 583 269 583 152 l 583 1010 l 614 1010 l 614 269 q 542 62 614 138 q 348 -14 471 -14 z "},"Ĵ":{"ha":718,"x_min":82,"x_max":784,"o":"m 348 -14 q 154 62 225 -14 q 82 269 82 138 l 82 315 l 113 315 l 113 269 q 176 85 113 152 q 348 18 238 18 q 520 85 458 18 q 583 269 583 152 l 583 1010 l 614 1010 l 614 269 q 542 62 614 138 q 348 -14 471 -14 m 450 1133 l 411 1133 l 411 1134 l 584 1320 l 609 1320 l 783 1134 l 783 1133 l 745 1133 l 597 1291 l 450 1133 z "},"Ɉ":{"ha":725,"x_min":82,"x_max":740,"o":"m 348 -14 q 154 62 225 -14 q 82 269 82 138 l 82 315 l 113 315 l 113 269 q 176 85 113 152 q 348 18 238 18 q 520 85 458 18 q 583 269 583 152 l 583 1010 l 614 1010 l 614 269 q 542 62 614 138 q 348 -14 471 -14 m 455 585 l 455 614 l 741 614 l 741 585 l 455 585 z "},"Ϳ":{"ha":718,"x_min":82,"x_max":614,"o":"m 348 -14 q 154 62 225 -14 q 82 269 82 138 l 82 315 l 113 315 l 113 269 q 176 85 113 152 q 348 18 238 18 q 520 85 458 18 q 583 269 583 152 l 583 1010 l 614 1010 l 614 269 q 542 62 614 138 q 348 -14 471 -14 z "},"Ј":{"ha":718,"x_min":82,"x_max":614,"o":"m 348 -14 q 154 62 225 -14 q 82 269 82 138 l 82 315 l 113 315 l 113 269 q 176 85 113 152 q 348 18 238 18 q 520 85 458 18 q 583 269 583 152 l 583 1010 l 614 1010 l 614 269 q 542 62 614 138 q 348 -14 471 -14 z "},"K":{"ha":774,"x_min":123,"x_max":751,"o":"m 151 363 l 141 396 q 219 480 182 440 q 294 562 256 521 q 372 646 331 602 l 710 1010 l 751 1010 l 336 562 l 328 554 l 151 363 m 123 0 l 123 1010 l 155 1010 l 155 651 l 155 401 l 155 380 l 155 0 l 123 0 m 713 0 l 314 560 l 339 578 l 750 0 l 713 0 z "},"Ķ":{"ha":774,"x_min":123,"x_max":751,"o":"m 151 363 l 141 396 q 219 480 182 440 q 294 562 256 521 q 372 646 331 602 l 710 1010 l 751 1010 l 336 562 l 328 554 l 151 363 m 123 0 l 123 1010 l 155 1010 l 155 651 l 155 401 l 155 380 l 155 0 l 123 0 m 713 0 l 314 560 l 339 578 l 750 0 l 713 0 m 331 -335 l 396 -80 l 430 -80 l 357 -335 l 331 -335 z "},"Ǩ":{"ha":774,"x_min":123,"x_max":751,"o":"m 151 363 l 141 396 q 219 480 182 440 q 294 562 256 521 q 372 646 331 602 l 710 1010 l 751 1010 l 336 562 l 328 554 l 151 363 m 123 0 l 123 1010 l 155 1010 l 155 651 l 155 401 l 155 380 l 155 0 l 123 0 m 713 0 l 314 560 l 339 578 l 750 0 l 713 0 m 268 1318 l 414 1161 l 562 1318 l 601 1318 l 601 1317 l 427 1132 l 401 1132 l 229 1317 l 229 1318 l 268 1318 z "},"Ḱ":{"ha":774,"x_min":123,"x_max":751,"o":"m 151 363 l 141 396 q 219 480 182 440 q 294 562 256 521 q 372 646 331 602 l 710 1010 l 751 1010 l 336 562 l 328 554 l 151 363 m 123 0 l 123 1010 l 155 1010 l 155 651 l 155 401 l 155 380 l 155 0 l 123 0 m 713 0 l 314 560 l 339 578 l 750 0 l 713 0 m 399 1107 l 485 1305 l 521 1305 l 428 1107 l 399 1107 z "},"Ḳ":{"ha":774,"x_min":123,"x_max":751,"o":"m 151 363 l 141 396 q 219 480 182 440 q 294 562 256 521 q 372 646 331 602 l 710 1010 l 751 1010 l 336 562 l 328 554 l 151 363 m 123 0 l 123 1010 l 155 1010 l 155 651 l 155 401 l 155 380 l 155 0 l 123 0 m 713 0 l 314 560 l 339 578 l 750 0 l 713 0 m 416 -242 q 393 -233 402 -242 q 383 -210 383 -223 q 393 -188 383 -197 q 416 -178 402 -178 q 438 -188 429 -178 q 447 -210 447 -197 q 438 -233 447 -223 q 416 -242 429 -242 z "},"Ḵ":{"ha":774,"x_min":123,"x_max":751,"o":"m 151 363 l 141 396 q 219 480 182 440 q 294 562 256 521 q 372 646 331 602 l 710 1010 l 751 1010 l 336 562 l 328 554 l 151 363 m 123 0 l 123 1010 l 155 1010 l 155 651 l 155 401 l 155 380 l 155 0 l 123 0 m 713 0 l 314 560 l 339 578 l 750 0 l 713 0 m 573 -195 l 573 -226 l 258 -226 l 258 -195 l 573 -195 z "},"Ҡ":{"ha":1063,"x_min":51,"x_max":1040,"o":"m 382 1010 l 382 979 l 51 979 l 51 1010 l 382 1010 m 363 0 l 363 1010 l 395 1010 l 395 532 l 598 532 l 985 1010 l 1024 1010 l 625 517 l 1040 0 l 1000 0 l 598 501 l 395 501 l 395 0 l 363 0 z "},"Қ":{"ha":854,"x_min":123,"x_max":877,"o":"m 123 0 l 123 1010 l 155 1010 l 155 532 l 359 532 l 745 1010 l 785 1010 l 386 517 l 800 0 l 761 0 l 359 501 l 155 501 l 155 0 l 123 0 m 846 -217 l 846 0 l 772 0 l 772 31 l 877 31 l 877 -217 l 846 -217 z "},"Ƙ":{"ha":842,"x_min":123,"x_max":864,"o":"m 123 0 l 123 1010 l 156 1010 l 156 381 l 160 381 l 688 963 q 745 1005 712 992 q 810 1012 778 1017 q 864 983 842 1007 l 842 963 q 774 982 807 988 q 712 941 742 975 l 330 521 l 818 0 l 774 0 l 308 498 l 156 330 l 156 0 l 123 0 z "},"Κ":{"ha":774,"x_min":123,"x_max":751,"o":"m 151 363 l 141 396 q 219 480 182 440 q 294 562 256 521 q 372 646 331 602 l 710 1010 l 751 1010 l 336 562 l 328 554 l 151 363 m 123 0 l 123 1010 l 155 1010 l 155 651 l 155 401 l 155 380 l 155 0 l 123 0 m 713 0 l 314 560 l 339 578 l 750 0 l 713 0 z "},"L":{"ha":724,"x_min":123,"x_max":673,"o":"m 123 0 l 123 1010 l 156 1010 l 156 31 l 673 31 l 673 0 l 123 0 z "},"Ĺ":{"ha":724,"x_min":123,"x_max":673,"o":"m 123 0 l 123 1010 l 156 1010 l 156 31 l 673 31 l 673 0 l 123 0 m 123 1107 l 210 1305 l 245 1305 l 153 1107 l 123 1107 z "},"Ļ":{"ha":724,"x_min":123,"x_max":673,"o":"m 123 0 l 123 1010 l 156 1010 l 156 31 l 673 31 l 673 0 l 123 0 m 308 -335 l 373 -80 l 407 -80 l 334 -335 l 308 -335 z "},"Ľ":{"ha":724,"x_min":123,"x_max":673,"o":"m 123 0 l 123 1010 l 156 1010 l 156 31 l 673 31 l 673 0 l 123 0 m 391 802 l 391 1058 l 426 1058 l 416 802 l 391 802 z "},"Ḷ":{"ha":724,"x_min":123,"x_max":673,"o":"m 123 0 l 123 1010 l 156 1010 l 156 31 l 673 31 l 673 0 l 123 0 m 393 -242 q 370 -233 379 -242 q 360 -210 360 -223 q 370 -188 360 -197 q 393 -178 379 -178 q 415 -188 406 -178 q 424 -210 424 -197 q 415 -233 424 -223 q 393 -242 406 -242 z "},"Ḹ":{"ha":724,"x_min":-18,"x_max":673,"o":"m 123 0 l 123 1010 l 156 1010 l 156 31 l 673 31 l 673 0 l 123 0 m 393 -242 q 370 -233 379 -242 q 360 -210 360 -223 q 370 -188 360 -197 q 393 -178 379 -178 q 415 -188 406 -178 q 424 -210 424 -197 q 415 -233 424 -223 q 393 -242 406 -242 m 298 1241 l 298 1210 l -18 1210 l -18 1241 l 298 1241 z "},"Ḻ":{"ha":724,"x_min":123,"x_max":673,"o":"m 123 0 l 123 1010 l 156 1010 l 156 31 l 673 31 l 673 0 l 123 0 m 550 -195 l 550 -226 l 235 -226 l 235 -195 l 550 -195 z "},"Ḽ":{"ha":724,"x_min":123,"x_max":673,"o":"m 123 0 l 123 1010 l 156 1010 l 156 31 l 673 31 l 673 0 l 123 0 m 245 -304 l 205 -304 l 205 -302 l 378 -117 l 404 -117 l 578 -302 l 578 -304 l 539 -304 l 391 -146 l 245 -304 z "},"Ł":{"ha":745,"x_min":7,"x_max":694,"o":"m 144 0 l 144 1010 l 176 1010 l 176 31 l 694 31 l 694 0 l 144 0 m 7 439 l 7 475 l 488 753 l 488 718 l 7 439 z "},"Ƚ":{"ha":734,"x_min":20,"x_max":683,"o":"m 133 0 l 133 1010 l 165 1010 l 165 31 l 683 31 l 683 0 l 133 0 m 20 490 l 20 520 l 381 520 l 381 490 l 20 490 z "},"ǈ":{"ha":960,"x_min":123,"x_max":876,"o":"m 123 0 l 123 1010 l 156 1010 l 156 31 l 673 31 l 673 0 l 123 0 m 829 726 l 860 726 l 860 -110 q 836 -202 860 -163 q 772 -262 812 -241 q 686 -283 733 -283 l 674 -283 l 674 -252 l 686 -252 q 786 -214 743 -252 q 829 -110 829 -176 l 829 726 m 845 909 q 822 918 831 909 q 812 941 812 928 q 822 963 812 954 q 845 972 831 972 q 867 963 858 972 q 876 941 876 954 q 867 918 876 928 q 845 909 858 909 z "},"M":{"ha":1175,"x_min":123,"x_max":1051,"o":"m 123 0 l 123 1010 l 167 1010 l 516 206 q 536 160 526 183 q 556 114 546 137 q 575 67 566 90 q 595 20 585 44 l 579 20 q 599 67 589 44 q 619 114 609 90 q 639 160 629 137 q 659 206 649 183 l 1008 1010 l 1051 1010 l 1051 0 l 1020 0 l 1020 770 q 1020 825 1020 798 q 1020 879 1020 852 q 1021 934 1021 907 q 1021 989 1021 962 l 1030 989 q 1007 934 1019 961 q 984 879 996 907 q 961 825 972 852 q 937 770 949 798 l 603 0 l 572 0 l 237 770 q 214 825 226 798 q 191 879 202 852 q 168 934 179 907 q 144 989 156 961 l 154 989 q 154 934 154 962 q 154 879 154 907 q 155 825 155 852 q 155 770 155 798 l 155 0 l 123 0 z "},"Ḿ":{"ha":1175,"x_min":123,"x_max":1051,"o":"m 123 0 l 123 1010 l 167 1010 l 516 206 q 536 160 526 183 q 556 114 546 137 q 575 67 566 90 q 595 20 585 44 l 579 20 q 599 67 589 44 q 619 114 609 90 q 639 160 629 137 q 659 206 649 183 l 1008 1010 l 1051 1010 l 1051 0 l 1020 0 l 1020 770 q 1020 825 1020 798 q 1020 879 1020 852 q 1021 934 1021 907 q 1021 989 1021 962 l 1030 989 q 1007 934 1019 961 q 984 879 996 907 q 961 825 972 852 q 937 770 949 798 l 603 0 l 572 0 l 237 770 q 214 825 226 798 q 191 879 202 852 q 168 934 179 907 q 144 989 156 961 l 154 989 q 154 934 154 962 q 154 879 154 907 q 155 825 155 852 q 155 770 155 798 l 155 0 l 123 0 m 571 1107 l 657 1305 l 693 1305 l 600 1107 l 571 1107 z "},"Ṁ":{"ha":1175,"x_min":123,"x_max":1051,"o":"m 123 0 l 123 1010 l 167 1010 l 516 206 q 536 160 526 183 q 556 114 546 137 q 575 67 566 90 q 595 20 585 44 l 579 20 q 599 67 589 44 q 619 114 609 90 q 639 160 629 137 q 659 206 649 183 l 1008 1010 l 1051 1010 l 1051 0 l 1020 0 l 1020 770 q 1020 825 1020 798 q 1020 879 1020 852 q 1021 934 1021 907 q 1021 989 1021 962 l 1030 989 q 1007 934 1019 961 q 984 879 996 907 q 961 825 972 852 q 937 770 949 798 l 603 0 l 572 0 l 237 770 q 214 825 226 798 q 191 879 202 852 q 168 934 179 907 q 144 989 156 961 l 154 989 q 154 934 154 962 q 154 879 154 907 q 155 825 155 852 q 155 770 155 798 l 155 0 l 123 0 m 588 1194 q 565 1203 574 1194 q 555 1226 555 1213 q 565 1248 555 1239 q 588 1257 574 1257 q 610 1248 601 1257 q 619 1226 619 1239 q 610 1203 619 1213 q 588 1194 601 1194 z "},"Ṃ":{"ha":1175,"x_min":123,"x_max":1051,"o":"m 123 0 l 123 1010 l 167 1010 l 516 206 q 536 160 526 183 q 556 114 546 137 q 575 67 566 90 q 595 20 585 44 l 579 20 q 599 67 589 44 q 619 114 609 90 q 639 160 629 137 q 659 206 649 183 l 1008 1010 l 1051 1010 l 1051 0 l 1020 0 l 1020 770 q 1020 825 1020 798 q 1020 879 1020 852 q 1021 934 1021 907 q 1021 989 1021 962 l 1030 989 q 1007 934 1019 961 q 984 879 996 907 q 961 825 972 852 q 937 770 949 798 l 603 0 l 572 0 l 237 770 q 214 825 226 798 q 191 879 202 852 q 168 934 179 907 q 144 989 156 961 l 154 989 q 154 934 154 962 q 154 879 154 907 q 155 825 155 852 q 155 770 155 798 l 155 0 l 123 0 m 588 -242 q 565 -233 574 -242 q 555 -210 555 -223 q 565 -188 555 -197 q 588 -178 574 -178 q 610 -188 601 -178 q 619 -210 619 -197 q 610 -233 619 -223 q 588 -242 601 -242 z "},"Ӎ":{"ha":1175,"x_min":123,"x_max":1139,"o":"m 123 0 l 123 1010 l 167 1010 l 516 206 q 536 160 526 183 q 556 114 546 137 q 575 67 566 90 q 595 20 585 44 l 579 20 q 599 67 589 44 q 619 114 609 90 q 639 160 629 137 q 659 206 649 183 l 1008 1010 l 1051 1010 l 1051 0 l 1020 0 l 1020 770 q 1020 825 1020 798 q 1020 879 1020 852 q 1021 934 1021 907 q 1021 989 1021 962 l 1030 989 q 1007 934 1019 961 q 984 879 996 907 q 961 825 972 852 q 937 770 949 798 l 603 0 l 572 0 l 237 770 q 214 825 226 798 q 191 879 202 852 q 168 934 179 907 q 144 989 156 961 l 154 989 q 154 934 154 962 q 154 879 154 907 q 155 825 155 852 q 155 770 155 798 l 155 0 l 123 0 m 1006 -217 l 1093 0 l 1008 0 l 1008 31 l 1139 31 l 1038 -217 l 1006 -217 z "},"Μ":{"ha":1175,"x_min":123,"x_max":1051,"o":"m 123 0 l 123 1010 l 167 1010 l 516 206 q 536 160 526 183 q 556 114 546 137 q 575 67 566 90 q 595 20 585 44 l 579 20 q 599 67 589 44 q 619 114 609 90 q 639 160 629 137 q 659 206 649 183 l 1008 1010 l 1051 1010 l 1051 0 l 1020 0 l 1020 770 q 1020 825 1020 798 q 1020 879 1020 852 q 1021 934 1021 907 q 1021 989 1021 962 l 1030 989 q 1007 934 1019 961 q 984 879 996 907 q 961 825 972 852 q 937 770 949 798 l 603 0 l 572 0 l 237 770 q 214 825 226 798 q 191 879 202 852 q 168 934 179 907 q 144 989 156 961 l 154 989 q 154 934 154 962 q 154 879 154 907 q 155 825 155 852 q 155 770 155 798 l 155 0 l 123 0 z "},"Ϻ":{"ha":1175,"x_min":123,"x_max":1051,"o":"m 123 0 l 123 1010 l 167 1010 l 516 206 q 536 160 526 183 q 556 114 546 137 q 575 67 566 90 q 595 20 585 44 l 579 20 q 599 67 589 44 q 619 114 609 90 q 639 160 629 137 q 659 206 649 183 l 1008 1010 l 1051 1010 l 1051 0 l 1020 0 l 1020 770 q 1020 825 1020 798 q 1020 879 1020 852 q 1021 934 1021 907 q 1021 989 1021 962 l 1030 989 q 1007 934 1019 961 q 984 879 996 907 q 961 825 972 852 q 937 770 949 798 l 603 0 l 572 0 l 237 770 q 214 825 226 798 q 191 879 202 852 q 168 934 179 907 q 144 989 156 961 l 154 989 q 154 934 154 962 q 154 879 154 907 q 155 825 155 852 q 155 770 155 798 l 155 0 l 123 0 z "},"М":{"ha":1175,"x_min":123,"x_max":1051,"o":"m 123 0 l 123 1010 l 167 1010 l 516 206 q 536 160 526 183 q 556 114 546 137 q 575 67 566 90 q 595 20 585 44 l 579 20 q 599 67 589 44 q 619 114 609 90 q 639 160 629 137 q 659 206 649 183 l 1008 1010 l 1051 1010 l 1051 0 l 1020 0 l 1020 770 q 1020 825 1020 798 q 1020 879 1020 852 q 1021 934 1021 907 q 1021 989 1021 962 l 1030 989 q 1007 934 1019 961 q 984 879 996 907 q 961 825 972 852 q 937 770 949 798 l 603 0 l 572 0 l 237 770 q 214 825 226 798 q 191 879 202 852 q 168 934 179 907 q 144 989 156 961 l 154 989 q 154 934 154 962 q 154 879 154 907 q 155 825 155 852 q 155 770 155 798 l 155 0 l 123 0 z "},"N":{"ha":1004,"x_min":123,"x_max":880,"o":"m 123 0 l 123 1010 l 153 1010 l 711 243 q 762 173 737 208 q 812 103 787 138 q 863 33 838 68 l 851 33 q 850 103 851 68 q 849 173 850 138 q 849 243 849 208 l 849 1010 l 880 1010 l 880 0 l 850 0 l 294 766 q 243 836 268 801 q 193 907 218 871 q 142 977 168 942 l 153 977 q 154 907 153 942 q 154 836 154 871 q 155 766 155 801 l 155 0 l 123 0 z "},"Ñ":{"ha":1004,"x_min":123,"x_max":880,"o":"m 123 0 l 123 1010 l 153 1010 l 711 243 q 762 173 737 208 q 812 103 787 138 q 863 33 838 68 l 851 33 q 850 103 851 68 q 849 173 850 138 q 849 243 849 208 l 849 1010 l 880 1010 l 880 0 l 850 0 l 294 766 q 243 836 268 801 q 193 907 218 871 q 142 977 168 942 l 153 977 q 154 907 153 942 q 154 836 154 871 q 155 766 155 801 l 155 0 l 123 0 m 589 1170 q 540 1182 561 1170 q 501 1210 519 1194 q 465 1238 484 1225 q 423 1250 447 1250 q 369 1230 390 1250 q 345 1175 348 1210 l 313 1175 q 346 1251 317 1221 q 418 1281 374 1281 q 472 1269 450 1281 q 511 1241 494 1257 q 546 1213 529 1225 q 584 1201 563 1201 q 632 1218 613 1201 q 659 1274 650 1235 l 690 1274 q 655 1198 682 1225 q 589 1170 628 1170 z "},"Ń":{"ha":1004,"x_min":123,"x_max":880,"o":"m 123 0 l 123 1010 l 153 1010 l 711 243 q 762 173 737 208 q 812 103 787 138 q 863 33 838 68 l 851 33 q 850 103 851 68 q 849 173 850 138 q 849 243 849 208 l 849 1010 l 880 1010 l 880 0 l 850 0 l 294 766 q 243 836 268 801 q 193 907 218 871 q 142 977 168 942 l 153 977 q 154 907 153 942 q 154 836 154 871 q 155 766 155 801 l 155 0 l 123 0 m 486 1107 l 572 1305 l 608 1305 l 515 1107 l 486 1107 z "},"Ņ":{"ha":1004,"x_min":123,"x_max":880,"o":"m 123 0 l 123 1010 l 153 1010 l 711 243 q 762 173 737 208 q 812 103 787 138 q 863 33 838 68 l 851 33 q 850 103 851 68 q 849 173 850 138 q 849 243 849 208 l 849 1010 l 880 1010 l 880 0 l 850 0 l 294 766 q 243 836 268 801 q 193 907 218 871 q 142 977 168 942 l 153 977 q 154 907 153 942 q 154 836 154 871 q 155 766 155 801 l 155 0 l 123 0 m 418 -335 l 483 -80 l 517 -80 l 444 -335 l 418 -335 z "},"Ň":{"ha":1004,"x_min":123,"x_max":880,"o":"m 123 0 l 123 1010 l 153 1010 l 711 243 q 762 173 737 208 q 812 103 787 138 q 863 33 838 68 l 851 33 q 850 103 851 68 q 849 173 850 138 q 849 243 849 208 l 849 1010 l 880 1010 l 880 0 l 850 0 l 294 766 q 243 836 268 801 q 193 907 218 871 q 142 977 168 942 l 153 977 q 154 907 153 942 q 154 836 154 871 q 155 766 155 801 l 155 0 l 123 0 m 355 1318 l 501 1161 l 649 1318 l 688 1318 l 688 1317 l 513 1132 l 488 1132 l 315 1317 l 315 1318 l 355 1318 z "},"Ǹ":{"ha":1004,"x_min":123,"x_max":880,"o":"m 123 0 l 123 1010 l 153 1010 l 711 243 q 762 173 737 208 q 812 103 787 138 q 863 33 838 68 l 851 33 q 850 103 851 68 q 849 173 850 138 q 849 243 849 208 l 849 1010 l 880 1010 l 880 0 l 850 0 l 294 766 q 243 836 268 801 q 193 907 218 871 q 142 977 168 942 l 153 977 q 154 907 153 942 q 154 836 154 871 q 155 766 155 801 l 155 0 l 123 0 m 490 1107 l 396 1305 l 435 1305 l 522 1107 l 490 1107 z "},"Ṅ":{"ha":1004,"x_min":123,"x_max":880,"o":"m 123 0 l 123 1010 l 153 1010 l 711 243 q 762 173 737 208 q 812 103 787 138 q 863 33 838 68 l 851 33 q 850 103 851 68 q 849 173 850 138 q 849 243 849 208 l 849 1010 l 880 1010 l 880 0 l 850 0 l 294 766 q 243 836 268 801 q 193 907 218 871 q 142 977 168 942 l 153 977 q 154 907 153 942 q 154 836 154 871 q 155 766 155 801 l 155 0 l 123 0 m 503 1194 q 479 1203 489 1194 q 470 1226 470 1213 q 479 1248 470 1239 q 503 1257 489 1257 q 525 1248 515 1257 q 534 1226 534 1239 q 525 1203 534 1213 q 503 1194 515 1194 z "},"Ṇ":{"ha":1004,"x_min":123,"x_max":880,"o":"m 123 0 l 123 1010 l 153 1010 l 711 243 q 762 173 737 208 q 812 103 787 138 q 863 33 838 68 l 851 33 q 850 103 851 68 q 849 173 850 138 q 849 243 849 208 l 849 1010 l 880 1010 l 880 0 l 850 0 l 294 766 q 243 836 268 801 q 193 907 218 871 q 142 977 168 942 l 153 977 q 154 907 153 942 q 154 836 154 871 q 155 766 155 801 l 155 0 l 123 0 m 503 -242 q 479 -233 489 -242 q 470 -210 470 -223 q 479 -188 470 -197 q 503 -178 489 -178 q 525 -188 515 -178 q 534 -210 534 -197 q 525 -233 534 -223 q 503 -242 515 -242 z "},"Ṉ":{"ha":1004,"x_min":123,"x_max":880,"o":"m 123 0 l 123 1010 l 153 1010 l 711 243 q 762 173 737 208 q 812 103 787 138 q 863 33 838 68 l 851 33 q 850 103 851 68 q 849 173 850 138 q 849 243 849 208 l 849 1010 l 880 1010 l 880 0 l 850 0 l 294 766 q 243 836 268 801 q 193 907 218 871 q 142 977 168 942 l 153 977 q 154 907 153 942 q 154 836 154 871 q 155 766 155 801 l 155 0 l 123 0 m 660 -195 l 660 -226 l 345 -226 l 345 -195 l 660 -195 z "},"Ṋ":{"ha":1004,"x_min":123,"x_max":880,"o":"m 123 0 l 123 1010 l 153 1010 l 711 243 q 762 173 737 208 q 812 103 787 138 q 863 33 838 68 l 851 33 q 850 103 851 68 q 849 173 850 138 q 849 243 849 208 l 849 1010 l 880 1010 l 880 0 l 850 0 l 294 766 q 243 836 268 801 q 193 907 218 871 q 142 977 168 942 l 153 977 q 154 907 153 942 q 154 836 154 871 q 155 766 155 801 l 155 0 l 123 0 m 355 -304 l 315 -304 l 315 -302 l 488 -117 l 513 -117 l 688 -302 l 688 -304 l 649 -304 l 501 -146 l 355 -304 z "},"Ɲ":{"ha":1004,"x_min":-19,"x_max":880,"o":"m -19 -283 l -19 -252 q 7 -252 -6 -252 q 30 -252 21 -252 q 101 -229 79 -252 q 123 -149 123 -205 l 123 87 l 155 87 l 155 -149 q 123 -251 155 -218 q 30 -283 92 -283 q 7 -283 21 -283 q -19 -283 -7 -283 m 123 0 l 123 1010 l 153 1010 l 711 243 q 762 173 737 208 q 812 103 787 138 q 863 33 838 68 l 851 33 q 850 103 851 68 q 849 173 850 138 q 849 243 849 208 l 849 1010 l 880 1010 l 880 0 l 850 0 l 294 766 q 243 836 268 801 q 193 907 218 871 q 142 977 168 942 l 153 977 q 154 907 153 942 q 154 836 154 871 q 155 766 155 801 l 155 0 l 123 0 z "},"Ŋ":{"ha":1004,"x_min":123,"x_max":880,"o":"m 707 -283 l 707 -252 q 733 -252 720 -252 q 755 -252 747 -252 q 827 -229 804 -252 q 849 -149 849 -205 l 849 87 l 880 87 l 880 -149 q 849 -251 880 -218 q 755 -283 818 -283 q 732 -283 747 -283 q 707 -283 718 -283 m 123 0 l 123 1010 l 153 1010 l 711 243 q 762 173 737 208 q 812 103 787 138 q 863 33 838 68 l 851 33 q 850 103 851 68 q 849 173 850 138 q 849 243 849 208 l 849 1010 l 880 1010 l 880 0 l 850 0 l 294 766 q 243 836 268 801 q 193 907 218 871 q 142 977 168 942 l 153 977 q 154 907 153 942 q 154 836 154 871 q 155 766 155 801 l 155 0 l 123 0 z "},"И":{"ha":1004,"x_min":123,"x_max":880,"o":"m 880 0 l 849 0 l 849 766 q 849 836 849 801 q 850 907 850 871 q 851 977 851 942 l 862 977 q 811 907 836 942 q 761 836 786 871 q 710 766 736 801 l 153 0 l 123 0 l 123 1010 l 155 1010 l 155 243 q 154 173 155 208 q 154 103 154 138 q 153 33 153 68 l 141 33 q 192 103 167 68 q 242 173 217 138 q 292 243 267 208 l 850 1010 l 880 1010 l 880 0 z "},"Ѝ":{"ha":1004,"x_min":123,"x_max":880,"o":"m 880 0 l 849 0 l 849 766 q 849 836 849 801 q 850 907 850 871 q 851 977 851 942 l 862 977 q 811 907 836 942 q 761 836 786 871 q 710 766 736 801 l 153 0 l 123 0 l 123 1010 l 155 1010 l 155 243 q 154 173 155 208 q 154 103 154 138 q 153 33 153 68 l 141 33 q 192 103 167 68 q 242 173 217 138 q 292 243 267 208 l 850 1010 l 880 1010 l 880 0 m 490 1107 l 396 1305 l 435 1305 l 522 1107 l 490 1107 z "},"Й":{"ha":1004,"x_min":123,"x_max":880,"o":"m 880 0 l 849 0 l 849 766 q 849 836 849 801 q 850 907 850 871 q 851 977 851 942 l 862 977 q 811 907 836 942 q 761 836 786 871 q 710 766 736 801 l 153 0 l 123 0 l 123 1010 l 155 1010 l 155 243 q 154 173 155 208 q 154 103 154 138 q 153 33 153 68 l 141 33 q 192 103 167 68 q 242 173 217 138 q 292 243 267 208 l 850 1010 l 880 1010 l 880 0 m 502 1125 q 412 1149 452 1125 q 348 1214 372 1173 q 324 1303 324 1254 l 355 1303 q 398 1198 355 1241 q 502 1156 441 1156 q 605 1198 562 1156 q 648 1303 648 1241 l 680 1303 q 656 1214 680 1254 q 592 1149 632 1173 q 502 1125 552 1125 z "},"Ӣ":{"ha":1004,"x_min":123,"x_max":880,"o":"m 880 0 l 849 0 l 849 766 q 849 836 849 801 q 850 907 850 871 q 851 977 851 942 l 862 977 q 811 907 836 942 q 761 836 786 871 q 710 766 736 801 l 153 0 l 123 0 l 123 1010 l 155 1010 l 155 243 q 154 173 155 208 q 154 103 154 138 q 153 33 153 68 l 141 33 q 192 103 167 68 q 242 173 217 138 q 292 243 267 208 l 850 1010 l 880 1010 l 880 0 m 660 1241 l 660 1210 l 345 1210 l 345 1241 l 660 1241 z "},"Ӥ":{"ha":1004,"x_min":123,"x_max":880,"o":"m 880 0 l 849 0 l 849 766 q 849 836 849 801 q 850 907 850 871 q 851 977 851 942 l 862 977 q 811 907 836 942 q 761 836 786 871 q 710 766 736 801 l 153 0 l 123 0 l 123 1010 l 155 1010 l 155 243 q 154 173 155 208 q 154 103 154 138 q 153 33 153 68 l 141 33 q 192 103 167 68 q 242 173 217 138 q 292 243 267 208 l 850 1010 l 880 1010 l 880 0 m 640 1194 q 616 1203 626 1194 q 607 1226 607 1213 q 616 1248 607 1239 q 640 1257 626 1257 q 662 1248 652 1257 q 671 1226 671 1239 q 662 1203 671 1213 q 640 1194 652 1194 m 366 1194 q 342 1203 352 1194 q 333 1226 333 1213 q 342 1248 333 1239 q 366 1257 352 1257 q 388 1248 378 1257 q 397 1226 397 1239 q 388 1203 397 1213 q 366 1194 378 1194 z "},"Ҋ":{"ha":1004,"x_min":123,"x_max":989,"o":"m 880 0 l 849 0 l 849 766 q 849 836 849 801 q 850 907 850 871 q 851 977 851 942 l 862 977 q 811 907 836 942 q 761 836 786 871 q 710 766 736 801 l 153 0 l 123 0 l 123 1010 l 155 1010 l 155 243 q 154 173 155 208 q 154 103 154 138 q 153 33 153 68 l 141 33 q 192 103 167 68 q 242 173 217 138 q 292 243 267 208 l 850 1010 l 880 1010 l 880 0 m 502 1125 q 412 1149 452 1125 q 348 1214 372 1173 q 324 1303 324 1254 l 355 1303 q 398 1198 355 1241 q 502 1156 441 1156 q 605 1198 562 1156 q 648 1303 648 1241 l 680 1303 q 656 1214 680 1254 q 592 1149 632 1173 q 502 1125 552 1125 m 857 -217 l 944 0 l 859 0 l 859 31 l 989 31 l 889 -217 l 857 -217 z "},"Ͷ":{"ha":1004,"x_min":123,"x_max":880,"o":"m 880 0 l 849 0 l 849 766 q 849 836 849 801 q 850 907 850 871 q 851 977 851 942 l 862 977 q 811 907 836 942 q 761 836 786 871 q 710 766 736 801 l 153 0 l 123 0 l 123 1010 l 155 1010 l 155 243 q 154 173 155 208 q 154 103 154 138 q 153 33 153 68 l 141 33 q 192 103 167 68 q 242 173 217 138 q 292 243 267 208 l 850 1010 l 880 1010 l 880 0 z "},"Ν":{"ha":1004,"x_min":123,"x_max":880,"o":"m 123 0 l 123 1010 l 153 1010 l 711 243 q 762 173 737 208 q 812 103 787 138 q 863 33 838 68 l 851 33 q 850 103 851 68 q 849 173 850 138 q 849 243 849 208 l 849 1010 l 880 1010 l 880 0 l 850 0 l 294 766 q 243 836 268 801 q 193 907 218 871 q 142 977 168 942 l 153 977 q 154 907 153 942 q 154 836 154 871 q 155 766 155 801 l 155 0 l 123 0 z "},"ǋ":{"ha":1240,"x_min":123,"x_max":1156,"o":"m 123 0 l 123 1010 l 153 1010 l 711 243 q 762 173 737 208 q 812 103 787 138 q 863 33 838 68 l 851 33 q 850 103 851 68 q 849 173 850 138 q 849 243 849 208 l 849 1010 l 880 1010 l 880 0 l 850 0 l 294 766 q 243 836 268 801 q 193 907 218 871 q 142 977 168 942 l 153 977 q 154 907 153 942 q 154 836 154 871 q 155 766 155 801 l 155 0 l 123 0 m 1108 726 l 1139 726 l 1139 -110 q 1115 -202 1139 -163 q 1052 -262 1091 -241 q 966 -283 1013 -283 l 954 -283 l 954 -252 l 966 -252 q 1065 -214 1022 -252 q 1108 -110 1108 -176 l 1108 726 m 1124 909 q 1101 918 1111 909 q 1092 941 1092 928 q 1101 963 1092 954 q 1124 972 1111 972 q 1146 963 1137 972 q 1156 941 1156 954 q 1146 918 1156 928 q 1124 909 1137 909 z "},"O":{"ha":970,"x_min":66,"x_max":903,"o":"m 486 -12 q 266 54 361 -12 q 119 235 172 119 q 66 505 66 351 q 119 775 66 659 q 267 957 172 892 q 486 1022 361 1022 q 704 957 610 1022 q 851 775 798 892 q 903 505 903 659 q 851 234 903 351 q 704 53 798 118 q 486 -12 610 -12 m 486 20 q 687 81 600 20 q 823 251 774 142 q 872 505 872 360 q 823 759 872 650 q 687 929 774 868 q 486 991 600 991 q 283 930 371 991 q 147 760 196 869 q 98 505 98 651 q 146 252 98 361 q 282 81 195 142 q 486 20 370 20 z "},"Ö":{"ha":970,"x_min":66,"x_max":903,"o":"m 486 -12 q 266 54 361 -12 q 119 235 172 119 q 66 505 66 351 q 119 775 66 659 q 267 957 172 892 q 486 1022 361 1022 q 704 957 610 1022 q 851 775 798 892 q 903 505 903 659 q 851 234 903 351 q 704 53 798 118 q 486 -12 610 -12 m 486 20 q 687 81 600 20 q 823 251 774 142 q 872 505 872 360 q 823 759 872 650 q 687 929 774 868 q 486 991 600 991 q 283 930 371 991 q 147 760 196 869 q 98 505 98 651 q 146 252 98 361 q 282 81 195 142 q 486 20 370 20 m 623 1194 q 600 1203 610 1194 q 591 1226 591 1213 q 600 1248 591 1239 q 623 1257 610 1257 q 645 1248 636 1257 q 654 1226 654 1239 q 645 1203 654 1213 q 623 1194 636 1194 m 349 1194 q 326 1203 336 1194 q 317 1226 317 1213 q 326 1248 317 1239 q 349 1257 336 1257 q 371 1248 362 1257 q 380 1226 380 1239 q 371 1203 380 1213 q 349 1194 362 1194 z "},"Õ":{"ha":970,"x_min":66,"x_max":903,"o":"m 486 -12 q 266 54 361 -12 q 119 235 172 119 q 66 505 66 351 q 119 775 66 659 q 267 957 172 892 q 486 1022 361 1022 q 704 957 610 1022 q 851 775 798 892 q 903 505 903 659 q 851 234 903 351 q 704 53 798 118 q 486 -12 610 -12 m 486 20 q 687 81 600 20 q 823 251 774 142 q 872 505 872 360 q 823 759 872 650 q 687 929 774 868 q 486 991 600 991 q 283 930 371 991 q 147 760 196 869 q 98 505 98 651 q 146 252 98 361 q 282 81 195 142 q 486 20 370 20 m 573 1170 q 524 1182 545 1170 q 485 1210 503 1194 q 449 1238 467 1225 q 407 1250 431 1250 q 353 1230 374 1250 q 328 1175 332 1210 l 297 1175 q 330 1251 301 1221 q 401 1281 358 1281 q 455 1269 433 1281 q 495 1241 477 1257 q 530 1213 513 1225 q 568 1201 547 1201 q 615 1218 597 1201 q 642 1274 634 1235 l 674 1274 q 639 1198 666 1225 q 573 1170 612 1170 z "},"Ø":{"ha":970,"x_min":66,"x_max":903,"o":"m 486 -12 q 266 54 361 -12 q 119 235 172 119 q 66 505 66 351 q 119 775 66 659 q 267 957 172 892 q 486 1022 361 1022 q 704 957 610 1022 q 851 775 798 892 q 903 505 903 659 q 851 234 903 351 q 704 53 798 118 q 486 -12 610 -12 m 486 20 q 687 81 600 20 q 823 251 774 142 q 872 505 872 360 q 823 759 872 650 q 687 929 774 868 q 486 991 600 991 q 283 930 371 991 q 147 760 196 869 q 98 505 98 651 q 146 252 98 361 q 282 81 195 142 q 486 20 370 20 m 184 -8 l 157 8 l 788 1019 l 814 1002 l 184 -8 z "},"Ơ":{"ha":970,"x_min":66,"x_max":903,"o":"m 485 997 l 485 1024 q 555 1022 527 1024 q 614 1017 583 1020 q 692 1013 644 1015 q 820 1010 740 1010 q 872 1063 872 1010 l 872 1168 l 903 1168 l 903 1063 q 882 1001 903 1023 q 820 979 860 979 q 705 982 751 979 q 625 988 659 985 q 559 994 591 991 q 485 997 527 996 m 486 -12 q 266 54 361 -12 q 119 235 172 119 q 66 505 66 351 q 119 775 66 659 q 267 957 172 892 q 486 1022 361 1022 q 704 957 610 1022 q 851 775 798 892 q 903 505 903 659 q 851 234 903 351 q 704 53 798 118 q 486 -12 610 -12 m 486 20 q 687 81 600 20 q 823 251 774 142 q 872 505 872 360 q 823 759 872 650 q 687 929 774 868 q 486 991 600 991 q 283 930 371 991 q 147 760 196 869 q 98 505 98 651 q 146 252 98 361 q 282 81 195 142 q 486 20 370 20 z "},"Ò":{"ha":970,"x_min":66,"x_max":903,"o":"m 486 -12 q 266 54 361 -12 q 119 235 172 119 q 66 505 66 351 q 119 775 66 659 q 267 957 172 892 q 486 1022 361 1022 q 704 957 610 1022 q 851 775 798 892 q 903 505 903 659 q 851 234 903 351 q 704 53 798 118 q 486 -12 610 -12 m 486 20 q 687 81 600 20 q 823 251 774 142 q 872 505 872 360 q 823 759 872 650 q 687 929 774 868 q 486 991 600 991 q 283 930 371 991 q 147 760 196 869 q 98 505 98 651 q 146 252 98 361 q 282 81 195 142 q 486 20 370 20 m 474 1107 l 380 1305 l 419 1305 l 505 1107 l 474 1107 z "},"Ó":{"ha":970,"x_min":66,"x_max":903,"o":"m 486 -12 q 266 54 361 -12 q 119 235 172 119 q 66 505 66 351 q 119 775 66 659 q 267 957 172 892 q 486 1022 361 1022 q 704 957 610 1022 q 851 775 798 892 q 903 505 903 659 q 851 234 903 351 q 704 53 798 118 q 486 -12 610 -12 m 486 20 q 687 81 600 20 q 823 251 774 142 q 872 505 872 360 q 823 759 872 650 q 687 929 774 868 q 486 991 600 991 q 283 930 371 991 q 147 760 196 869 q 98 505 98 651 q 146 252 98 361 q 282 81 195 142 q 486 20 370 20 m 469 1107 l 555 1305 l 591 1305 l 498 1107 l 469 1107 z "},"Ô":{"ha":970,"x_min":66,"x_max":903,"o":"m 486 -12 q 266 54 361 -12 q 119 235 172 119 q 66 505 66 351 q 119 775 66 659 q 267 957 172 892 q 486 1022 361 1022 q 704 957 610 1022 q 851 775 798 892 q 903 505 903 659 q 851 234 903 351 q 704 53 798 118 q 486 -12 610 -12 m 486 20 q 687 81 600 20 q 823 251 774 142 q 872 505 872 360 q 823 759 872 650 q 687 929 774 868 q 486 991 600 991 q 283 930 371 991 q 147 760 196 869 q 98 505 98 651 q 146 252 98 361 q 282 81 195 142 q 486 20 370 20 m 338 1133 l 299 1133 l 299 1134 l 472 1320 l 497 1320 l 671 1134 l 671 1133 l 633 1133 l 485 1291 l 338 1133 z "},"Ō":{"ha":970,"x_min":66,"x_max":903,"o":"m 486 -12 q 266 54 361 -12 q 119 235 172 119 q 66 505 66 351 q 119 775 66 659 q 267 957 172 892 q 486 1022 361 1022 q 704 957 610 1022 q 851 775 798 892 q 903 505 903 659 q 851 234 903 351 q 704 53 798 118 q 486 -12 610 -12 m 486 20 q 687 81 600 20 q 823 251 774 142 q 872 505 872 360 q 823 759 872 650 q 687 929 774 868 q 486 991 600 991 q 283 930 371 991 q 147 760 196 869 q 98 505 98 651 q 146 252 98 361 q 282 81 195 142 q 486 20 370 20 m 644 1241 l 644 1210 l 328 1210 l 328 1241 l 644 1241 z "},"Ŏ":{"ha":970,"x_min":66,"x_max":903,"o":"m 486 -12 q 266 54 361 -12 q 119 235 172 119 q 66 505 66 351 q 119 775 66 659 q 267 957 172 892 q 486 1022 361 1022 q 704 957 610 1022 q 851 775 798 892 q 903 505 903 659 q 851 234 903 351 q 704 53 798 118 q 486 -12 610 -12 m 486 20 q 687 81 600 20 q 823 251 774 142 q 872 505 872 360 q 823 759 872 650 q 687 929 774 868 q 486 991 600 991 q 283 930 371 991 q 147 760 196 869 q 98 505 98 651 q 146 252 98 361 q 282 81 195 142 q 486 20 370 20 m 486 1125 q 396 1149 436 1125 q 332 1214 355 1173 q 308 1303 308 1254 l 339 1303 q 382 1198 339 1241 q 486 1156 425 1156 q 589 1198 546 1156 q 632 1303 632 1241 l 663 1303 q 640 1214 663 1254 q 576 1149 616 1173 q 486 1125 536 1125 z "},"Ő":{"ha":970,"x_min":66,"x_max":903,"o":"m 486 -12 q 266 54 361 -12 q 119 235 172 119 q 66 505 66 351 q 119 775 66 659 q 267 957 172 892 q 486 1022 361 1022 q 704 957 610 1022 q 851 775 798 892 q 903 505 903 659 q 851 234 903 351 q 704 53 798 118 q 486 -12 610 -12 m 486 20 q 687 81 600 20 q 823 251 774 142 q 872 505 872 360 q 823 759 872 650 q 687 929 774 868 q 486 991 600 991 q 283 930 371 991 q 147 760 196 869 q 98 505 98 651 q 146 252 98 361 q 282 81 195 142 q 486 20 370 20 m 390 1107 l 359 1107 l 437 1305 l 473 1305 l 390 1107 m 540 1107 l 509 1107 l 606 1305 l 644 1305 l 540 1107 z "},"Ǒ":{"ha":970,"x_min":66,"x_max":903,"o":"m 486 -12 q 266 54 361 -12 q 119 235 172 119 q 66 505 66 351 q 119 775 66 659 q 267 957 172 892 q 486 1022 361 1022 q 704 957 610 1022 q 851 775 798 892 q 903 505 903 659 q 851 234 903 351 q 704 53 798 118 q 486 -12 610 -12 m 486 20 q 687 81 600 20 q 823 251 774 142 q 872 505 872 360 q 823 759 872 650 q 687 929 774 868 q 486 991 600 991 q 283 930 371 991 q 147 760 196 869 q 98 505 98 651 q 146 252 98 361 q 282 81 195 142 q 486 20 370 20 m 338 1318 l 485 1161 l 633 1318 l 671 1318 l 671 1317 l 497 1132 l 472 1132 l 299 1317 l 299 1318 l 338 1318 z "},"Ǫ":{"ha":970,"x_min":66,"x_max":903,"o":"m 486 -12 q 266 54 361 -12 q 119 235 172 119 q 66 505 66 351 q 119 775 66 659 q 267 957 172 892 q 486 1022 361 1022 q 704 957 610 1022 q 851 775 798 892 q 903 505 903 659 q 851 234 903 351 q 704 53 798 118 q 486 -12 610 -12 m 486 20 q 687 81 600 20 q 823 251 774 142 q 872 505 872 360 q 823 759 872 650 q 687 929 774 868 q 486 991 600 991 q 283 930 371 991 q 147 760 196 869 q 98 505 98 651 q 146 252 98 361 q 282 81 195 142 q 486 20 370 20 m 565 -285 q 472 -256 507 -285 q 437 -175 437 -228 q 461 -97 437 -130 q 525 -38 486 -65 q 612 19 565 -10 q 707 87 659 49 q 794 181 754 126 q 857 315 833 236 q 881 505 881 394 l 903 505 q 880 309 903 391 q 818 170 857 227 q 732 72 779 112 q 640 2 686 32 q 555 -53 593 -27 q 492 -107 516 -79 q 469 -175 469 -136 q 494 -235 469 -216 q 565 -254 520 -254 q 579 -253 572 -254 q 592 -252 585 -252 l 595 -283 q 580 -284 587 -283 q 565 -285 573 -285 z "},"Ǭ":{"ha":970,"x_min":66,"x_max":903,"o":"m 486 -12 q 266 54 361 -12 q 119 235 172 119 q 66 505 66 351 q 119 775 66 659 q 267 957 172 892 q 486 1022 361 1022 q 704 957 610 1022 q 851 775 798 892 q 903 505 903 659 q 851 234 903 351 q 704 53 798 118 q 486 -12 610 -12 m 486 20 q 687 81 600 20 q 823 251 774 142 q 872 505 872 360 q 823 759 872 650 q 687 929 774 868 q 486 991 600 991 q 283 930 371 991 q 147 760 196 869 q 98 505 98 651 q 146 252 98 361 q 282 81 195 142 q 486 20 370 20 m 565 -285 q 472 -256 507 -285 q 437 -175 437 -228 q 461 -97 437 -130 q 525 -38 486 -65 q 612 19 565 -10 q 707 87 659 49 q 794 181 754 126 q 857 315 833 236 q 881 505 881 394 l 903 505 q 880 309 903 391 q 818 170 857 227 q 732 72 779 112 q 640 2 686 32 q 555 -53 593 -27 q 492 -107 516 -79 q 469 -175 469 -136 q 494 -235 469 -216 q 565 -254 520 -254 q 579 -253 572 -254 q 592 -252 585 -252 l 595 -283 q 580 -284 587 -283 q 565 -285 573 -285 m 644 1241 l 644 1210 l 328 1210 l 328 1241 l 644 1241 z "},"Ȍ":{"ha":970,"x_min":66,"x_max":903,"o":"m 486 -12 q 266 54 361 -12 q 119 235 172 119 q 66 505 66 351 q 119 775 66 659 q 267 957 172 892 q 486 1022 361 1022 q 704 957 610 1022 q 851 775 798 892 q 903 505 903 659 q 851 234 903 351 q 704 53 798 118 q 486 -12 610 -12 m 486 20 q 687 81 600 20 q 823 251 774 142 q 872 505 872 360 q 823 759 872 650 q 687 929 774 868 q 486 991 600 991 q 283 930 371 991 q 147 760 196 869 q 98 505 98 651 q 146 252 98 361 q 282 81 195 142 q 486 20 370 20 m 549 1107 l 465 1305 l 502 1305 l 579 1107 l 549 1107 m 398 1107 l 295 1305 l 333 1305 l 429 1107 l 398 1107 z "},"Ȏ":{"ha":970,"x_min":66,"x_max":903,"o":"m 486 -12 q 266 54 361 -12 q 119 235 172 119 q 66 505 66 351 q 119 775 66 659 q 267 957 172 892 q 486 1022 361 1022 q 704 957 610 1022 q 851 775 798 892 q 903 505 903 659 q 851 234 903 351 q 704 53 798 118 q 486 -12 610 -12 m 486 20 q 687 81 600 20 q 823 251 774 142 q 872 505 872 360 q 823 759 872 650 q 687 929 774 868 q 486 991 600 991 q 283 930 371 991 q 147 760 196 869 q 98 505 98 651 q 146 252 98 361 q 282 81 195 142 q 486 20 370 20 m 486 1295 q 576 1274 535 1295 q 640 1216 616 1253 q 663 1133 663 1179 l 633 1133 q 590 1227 633 1189 q 486 1266 547 1266 q 382 1227 425 1266 q 339 1133 339 1189 l 308 1133 q 332 1215 308 1179 q 396 1274 355 1252 q 486 1295 436 1295 z "},"Ȫ":{"ha":970,"x_min":66,"x_max":903,"o":"m 486 -12 q 266 54 361 -12 q 119 235 172 119 q 66 505 66 351 q 119 775 66 659 q 267 957 172 892 q 486 1022 361 1022 q 704 957 610 1022 q 851 775 798 892 q 903 505 903 659 q 851 234 903 351 q 704 53 798 118 q 486 -12 610 -12 m 486 20 q 687 81 600 20 q 823 251 774 142 q 872 505 872 360 q 823 759 872 650 q 687 929 774 868 q 486 991 600 991 q 283 930 371 991 q 147 760 196 869 q 98 505 98 651 q 146 252 98 361 q 282 81 195 142 q 486 20 370 20 m 626 1163 q 603 1173 612 1163 q 593 1196 593 1182 q 603 1218 593 1208 q 626 1227 612 1227 q 648 1218 639 1227 q 657 1196 657 1208 q 648 1173 657 1182 q 626 1163 639 1163 m 352 1163 q 329 1173 338 1163 q 319 1196 319 1182 q 329 1218 319 1208 q 352 1227 338 1227 q 374 1218 365 1227 q 383 1196 383 1208 q 374 1173 383 1182 q 352 1163 365 1163 m 644 1390 l 644 1358 l 328 1358 l 328 1390 l 644 1390 z "},"Ȭ":{"ha":970,"x_min":66,"x_max":903,"o":"m 486 -12 q 266 54 361 -12 q 119 235 172 119 q 66 505 66 351 q 119 775 66 659 q 267 957 172 892 q 486 1022 361 1022 q 704 957 610 1022 q 851 775 798 892 q 903 505 903 659 q 851 234 903 351 q 704 53 798 118 q 486 -12 610 -12 m 486 20 q 687 81 600 20 q 823 251 774 142 q 872 505 872 360 q 823 759 872 650 q 687 929 774 868 q 486 991 600 991 q 283 930 371 991 q 147 760 196 869 q 98 505 98 651 q 146 252 98 361 q 282 81 195 142 q 486 20 370 20 m 573 1139 q 524 1152 545 1139 q 485 1179 503 1164 q 449 1207 467 1195 q 407 1219 431 1219 q 353 1199 374 1219 q 328 1144 332 1179 l 297 1144 q 330 1220 301 1190 q 401 1251 358 1251 q 455 1238 433 1251 q 495 1211 477 1226 q 530 1183 513 1195 q 568 1171 547 1171 q 615 1187 597 1171 q 642 1243 634 1204 l 674 1243 q 639 1167 666 1195 q 573 1139 612 1139 m 644 1390 l 644 1358 l 328 1358 l 328 1390 l 644 1390 z "},"Ȯ":{"ha":970,"x_min":66,"x_max":903,"o":"m 486 -12 q 266 54 361 -12 q 119 235 172 119 q 66 505 66 351 q 119 775 66 659 q 267 957 172 892 q 486 1022 361 1022 q 704 957 610 1022 q 851 775 798 892 q 903 505 903 659 q 851 234 903 351 q 704 53 798 118 q 486 -12 610 -12 m 486 20 q 687 81 600 20 q 823 251 774 142 q 872 505 872 360 q 823 759 872 650 q 687 929 774 868 q 486 991 600 991 q 283 930 371 991 q 147 760 196 869 q 98 505 98 651 q 146 252 98 361 q 282 81 195 142 q 486 20 370 20 m 486 1194 q 463 1203 473 1194 q 454 1226 454 1213 q 463 1248 454 1239 q 486 1257 473 1257 q 508 1248 499 1257 q 517 1226 517 1239 q 508 1203 517 1213 q 486 1194 499 1194 z "},"Ȱ":{"ha":970,"x_min":66,"x_max":903,"o":"m 486 -12 q 266 54 361 -12 q 119 235 172 119 q 66 505 66 351 q 119 775 66 659 q 267 957 172 892 q 486 1022 361 1022 q 704 957 610 1022 q 851 775 798 892 q 903 505 903 659 q 851 234 903 351 q 704 53 798 118 q 486 -12 610 -12 m 486 20 q 687 81 600 20 q 823 251 774 142 q 872 505 872 360 q 823 759 872 650 q 687 929 774 868 q 486 991 600 991 q 283 930 371 991 q 147 760 196 869 q 98 505 98 651 q 146 252 98 361 q 282 81 195 142 q 486 20 370 20 m 486 1163 q 463 1173 473 1163 q 454 1195 454 1182 q 463 1218 454 1208 q 486 1227 473 1227 q 508 1218 499 1227 q 517 1195 517 1208 q 508 1173 517 1182 q 486 1163 499 1163 m 643 1390 l 643 1358 l 328 1358 l 328 1390 l 643 1390 z "},"Ṍ":{"ha":970,"x_min":66,"x_max":903,"o":"m 486 -12 q 266 54 361 -12 q 119 235 172 119 q 66 505 66 351 q 119 775 66 659 q 267 957 172 892 q 486 1022 361 1022 q 704 957 610 1022 q 851 775 798 892 q 903 505 903 659 q 851 234 903 351 q 704 53 798 118 q 486 -12 610 -12 m 486 20 q 687 81 600 20 q 823 251 774 142 q 872 505 872 360 q 823 759 872 650 q 687 929 774 868 q 486 991 600 991 q 283 930 371 991 q 147 760 196 869 q 98 505 98 651 q 146 252 98 361 q 282 81 195 142 q 486 20 370 20 m 573 1139 q 524 1152 545 1139 q 485 1179 503 1164 q 449 1207 467 1195 q 407 1219 431 1219 q 353 1199 374 1219 q 328 1144 332 1179 l 297 1144 q 330 1220 301 1190 q 401 1251 358 1251 q 455 1238 433 1251 q 495 1211 477 1226 q 530 1183 513 1195 q 568 1171 547 1171 q 615 1187 597 1171 q 642 1243 634 1204 l 674 1243 q 639 1167 666 1195 q 573 1139 612 1139 m 465 1330 l 590 1516 l 630 1516 l 498 1330 l 465 1330 z "},"Ṏ":{"ha":970,"x_min":66,"x_max":903,"o":"m 486 -12 q 266 54 361 -12 q 119 235 172 119 q 66 505 66 351 q 119 775 66 659 q 267 957 172 892 q 486 1022 361 1022 q 704 957 610 1022 q 851 775 798 892 q 903 505 903 659 q 851 234 903 351 q 704 53 798 118 q 486 -12 610 -12 m 486 20 q 687 81 600 20 q 823 251 774 142 q 872 505 872 360 q 823 759 872 650 q 687 929 774 868 q 486 991 600 991 q 283 930 371 991 q 147 760 196 869 q 98 505 98 651 q 146 252 98 361 q 282 81 195 142 q 486 20 370 20 m 573 1139 q 524 1152 545 1139 q 485 1179 503 1164 q 449 1207 467 1195 q 407 1219 431 1219 q 353 1199 374 1219 q 328 1144 332 1179 l 297 1144 q 330 1220 301 1190 q 401 1251 358 1251 q 455 1238 433 1251 q 495 1211 477 1226 q 530 1183 513 1195 q 568 1171 547 1171 q 615 1187 597 1171 q 642 1243 634 1204 l 674 1243 q 639 1167 666 1195 q 573 1139 612 1139 m 626 1342 q 604 1351 613 1342 q 594 1374 594 1360 q 604 1397 594 1388 q 627 1406 613 1406 q 649 1396 640 1406 q 658 1374 658 1387 q 649 1352 658 1361 q 626 1342 640 1342 m 352 1342 q 330 1351 339 1342 q 320 1374 320 1360 q 330 1397 320 1388 q 353 1406 339 1406 q 375 1396 366 1406 q 384 1374 384 1387 q 375 1352 384 1361 q 352 1342 366 1342 z "},"Ṑ":{"ha":970,"x_min":66,"x_max":903,"o":"m 486 -12 q 266 54 361 -12 q 119 235 172 119 q 66 505 66 351 q 119 775 66 659 q 267 957 172 892 q 486 1022 361 1022 q 704 957 610 1022 q 851 775 798 892 q 903 505 903 659 q 851 234 903 351 q 704 53 798 118 q 486 -12 610 -12 m 486 20 q 687 81 600 20 q 823 251 774 142 q 872 505 872 360 q 823 759 872 650 q 687 929 774 868 q 486 991 600 991 q 283 930 371 991 q 147 760 196 869 q 98 505 98 651 q 146 252 98 361 q 282 81 195 142 q 486 20 370 20 m 644 1211 l 644 1179 l 328 1179 l 328 1211 l 644 1211 m 473 1330 l 342 1516 l 381 1516 l 507 1330 l 473 1330 z "},"Ṓ":{"ha":970,"x_min":66,"x_max":903,"o":"m 486 -12 q 266 54 361 -12 q 119 235 172 119 q 66 505 66 351 q 119 775 66 659 q 267 957 172 892 q 486 1022 361 1022 q 704 957 610 1022 q 851 775 798 892 q 903 505 903 659 q 851 234 903 351 q 704 53 798 118 q 486 -12 610 -12 m 486 20 q 687 81 600 20 q 823 251 774 142 q 872 505 872 360 q 823 759 872 650 q 687 929 774 868 q 486 991 600 991 q 283 930 371 991 q 147 760 196 869 q 98 505 98 651 q 146 252 98 361 q 282 81 195 142 q 486 20 370 20 m 644 1211 l 644 1179 l 328 1179 l 328 1211 l 644 1211 m 473 1330 l 598 1516 l 637 1516 l 507 1330 l 473 1330 z "},"Ọ":{"ha":970,"x_min":66,"x_max":903,"o":"m 486 -12 q 266 54 361 -12 q 119 235 172 119 q 66 505 66 351 q 119 775 66 659 q 267 957 172 892 q 486 1022 361 1022 q 704 957 610 1022 q 851 775 798 892 q 903 505 903 659 q 851 234 903 351 q 704 53 798 118 q 486 -12 610 -12 m 486 20 q 687 81 600 20 q 823 251 774 142 q 872 505 872 360 q 823 759 872 650 q 687 929 774 868 q 486 991 600 991 q 283 930 371 991 q 147 760 196 869 q 98 505 98 651 q 146 252 98 361 q 282 81 195 142 q 486 20 370 20 m 486 -242 q 463 -233 473 -242 q 454 -210 454 -223 q 463 -188 454 -197 q 486 -178 473 -178 q 508 -188 499 -178 q 517 -210 517 -197 q 508 -233 517 -223 q 486 -242 499 -242 z "},"Ỏ":{"ha":970,"x_min":66,"x_max":903,"o":"m 486 -12 q 266 54 361 -12 q 119 235 172 119 q 66 505 66 351 q 119 775 66 659 q 267 957 172 892 q 486 1022 361 1022 q 704 957 610 1022 q 851 775 798 892 q 903 505 903 659 q 851 234 903 351 q 704 53 798 118 q 486 -12 610 -12 m 486 20 q 687 81 600 20 q 823 251 774 142 q 872 505 872 360 q 823 759 872 650 q 687 929 774 868 q 486 991 600 991 q 283 930 371 991 q 147 760 196 869 q 98 505 98 651 q 146 252 98 361 q 282 81 195 142 q 486 20 370 20 m 500 1107 l 470 1107 l 505 1185 q 521 1254 527 1234 q 466 1275 515 1275 l 395 1275 l 395 1305 l 466 1305 q 520 1296 500 1305 q 548 1269 541 1286 q 551 1228 555 1252 q 533 1175 547 1204 l 500 1107 z "},"Ố":{"ha":970,"x_min":66,"x_max":903,"o":"m 486 -12 q 266 54 361 -12 q 119 235 172 119 q 66 505 66 351 q 119 775 66 659 q 267 957 172 892 q 486 1022 361 1022 q 704 957 610 1022 q 851 775 798 892 q 903 505 903 659 q 851 234 903 351 q 704 53 798 118 q 486 -12 610 -12 m 486 20 q 687 81 600 20 q 823 251 774 142 q 872 505 872 360 q 823 759 872 650 q 687 929 774 868 q 486 991 600 991 q 283 930 371 991 q 147 760 196 869 q 98 505 98 651 q 146 252 98 361 q 282 81 195 142 q 486 20 370 20 m 338 1102 l 299 1102 l 299 1103 l 472 1289 l 497 1289 l 671 1103 l 671 1102 l 633 1102 l 485 1259 l 338 1102 m 588 1314 l 713 1500 l 753 1500 l 622 1314 l 588 1314 z "},"Ồ":{"ha":970,"x_min":66,"x_max":903,"o":"m 486 -12 q 266 54 361 -12 q 119 235 172 119 q 66 505 66 351 q 119 775 66 659 q 267 957 172 892 q 486 1022 361 1022 q 704 957 610 1022 q 851 775 798 892 q 903 505 903 659 q 851 234 903 351 q 704 53 798 118 q 486 -12 610 -12 m 486 20 q 687 81 600 20 q 823 251 774 142 q 872 505 872 360 q 823 759 872 650 q 687 929 774 868 q 486 991 600 991 q 283 930 371 991 q 147 760 196 869 q 98 505 98 651 q 146 252 98 361 q 282 81 195 142 q 486 20 370 20 m 338 1102 l 299 1102 l 299 1103 l 472 1289 l 497 1289 l 671 1103 l 671 1102 l 633 1102 l 485 1259 l 338 1102 m 637 1314 l 507 1500 l 546 1500 l 671 1314 l 637 1314 z "},"Ổ":{"ha":970,"x_min":66,"x_max":903,"o":"m 486 -12 q 266 54 361 -12 q 119 235 172 119 q 66 505 66 351 q 119 775 66 659 q 267 957 172 892 q 486 1022 361 1022 q 704 957 610 1022 q 851 775 798 892 q 903 505 903 659 q 851 234 903 351 q 704 53 798 118 q 486 -12 610 -12 m 486 20 q 687 81 600 20 q 823 251 774 142 q 872 505 872 360 q 823 759 872 650 q 687 929 774 868 q 486 991 600 991 q 283 930 371 991 q 147 760 196 869 q 98 505 98 651 q 146 252 98 361 q 282 81 195 142 q 486 20 370 20 m 338 1102 l 299 1102 l 299 1103 l 472 1289 l 497 1289 l 671 1103 l 671 1102 l 633 1102 l 485 1259 l 338 1102 m 614 1314 l 581 1314 l 625 1379 q 644 1446 653 1423 q 587 1469 635 1469 l 515 1469 l 515 1500 l 587 1500 q 655 1482 632 1500 q 678 1435 678 1465 q 652 1369 677 1406 l 614 1314 z "},"Ỗ":{"ha":970,"x_min":66,"x_max":903,"o":"m 486 -12 q 266 54 361 -12 q 119 235 172 119 q 66 505 66 351 q 119 775 66 659 q 267 957 172 892 q 486 1022 361 1022 q 704 957 610 1022 q 851 775 798 892 q 903 505 903 659 q 851 234 903 351 q 704 53 798 118 q 486 -12 610 -12 m 486 20 q 687 81 600 20 q 823 251 774 142 q 872 505 872 360 q 823 759 872 650 q 687 929 774 868 q 486 991 600 991 q 283 930 371 991 q 147 760 196 869 q 98 505 98 651 q 146 252 98 361 q 282 81 195 142 q 486 20 370 20 m 338 1102 l 300 1102 l 300 1103 l 473 1289 l 498 1289 l 672 1103 l 672 1102 l 633 1102 l 485 1259 l 338 1102 m 573 1362 q 524 1375 545 1362 q 485 1402 503 1387 q 449 1430 467 1418 q 407 1442 431 1442 q 353 1422 374 1442 q 328 1367 332 1402 l 297 1367 q 330 1443 301 1413 q 401 1474 358 1474 q 455 1461 433 1474 q 495 1434 477 1449 q 530 1406 513 1418 q 568 1394 547 1394 q 615 1411 597 1394 q 642 1466 634 1428 l 674 1466 q 639 1390 666 1418 q 573 1362 612 1362 z "},"Ộ":{"ha":970,"x_min":66,"x_max":903,"o":"m 486 -12 q 266 54 361 -12 q 119 235 172 119 q 66 505 66 351 q 119 775 66 659 q 267 957 172 892 q 486 1022 361 1022 q 704 957 610 1022 q 851 775 798 892 q 903 505 903 659 q 851 234 903 351 q 704 53 798 118 q 486 -12 610 -12 m 486 20 q 687 81 600 20 q 823 251 774 142 q 872 505 872 360 q 823 759 872 650 q 687 929 774 868 q 486 991 600 991 q 283 930 371 991 q 147 760 196 869 q 98 505 98 651 q 146 252 98 361 q 282 81 195 142 q 486 20 370 20 m 338 1133 l 299 1133 l 299 1134 l 472 1320 l 497 1320 l 671 1134 l 671 1133 l 633 1133 l 485 1291 l 338 1133 m 486 -242 q 463 -233 473 -242 q 454 -210 454 -223 q 463 -188 454 -197 q 486 -178 473 -178 q 508 -188 499 -178 q 517 -210 517 -197 q 508 -233 517 -223 q 486 -242 499 -242 z "},"Ớ":{"ha":970,"x_min":66,"x_max":903,"o":"m 485 997 l 485 1024 q 555 1022 527 1024 q 614 1017 583 1020 q 692 1013 644 1015 q 820 1010 740 1010 q 872 1063 872 1010 l 872 1168 l 903 1168 l 903 1063 q 882 1001 903 1023 q 820 979 860 979 q 705 982 751 979 q 625 988 659 985 q 559 994 591 991 q 485 997 527 996 m 486 -12 q 266 54 361 -12 q 119 235 172 119 q 66 505 66 351 q 119 775 66 659 q 267 957 172 892 q 486 1022 361 1022 q 704 957 610 1022 q 851 775 798 892 q 903 505 903 659 q 851 234 903 351 q 704 53 798 118 q 486 -12 610 -12 m 486 20 q 687 81 600 20 q 823 251 774 142 q 872 505 872 360 q 823 759 872 650 q 687 929 774 868 q 486 991 600 991 q 283 930 371 991 q 147 760 196 869 q 98 505 98 651 q 146 252 98 361 q 282 81 195 142 q 486 20 370 20 m 469 1107 l 555 1305 l 591 1305 l 498 1107 l 469 1107 z "},"Ờ":{"ha":970,"x_min":66,"x_max":903,"o":"m 485 997 l 485 1024 q 555 1022 527 1024 q 614 1017 583 1020 q 692 1013 644 1015 q 820 1010 740 1010 q 872 1063 872 1010 l 872 1168 l 903 1168 l 903 1063 q 882 1001 903 1023 q 820 979 860 979 q 705 982 751 979 q 625 988 659 985 q 559 994 591 991 q 485 997 527 996 m 486 -12 q 266 54 361 -12 q 119 235 172 119 q 66 505 66 351 q 119 775 66 659 q 267 957 172 892 q 486 1022 361 1022 q 704 957 610 1022 q 851 775 798 892 q 903 505 903 659 q 851 234 903 351 q 704 53 798 118 q 486 -12 610 -12 m 486 20 q 687 81 600 20 q 823 251 774 142 q 872 505 872 360 q 823 759 872 650 q 687 929 774 868 q 486 991 600 991 q 283 930 371 991 q 147 760 196 869 q 98 505 98 651 q 146 252 98 361 q 282 81 195 142 q 486 20 370 20 m 474 1107 l 380 1305 l 419 1305 l 505 1107 l 474 1107 z "},"Ở":{"ha":970,"x_min":66,"x_max":903,"o":"m 485 997 l 485 1024 q 555 1022 527 1024 q 614 1017 583 1020 q 692 1013 644 1015 q 820 1010 740 1010 q 872 1063 872 1010 l 872 1168 l 903 1168 l 903 1063 q 882 1001 903 1023 q 820 979 860 979 q 705 982 751 979 q 625 988 659 985 q 559 994 591 991 q 485 997 527 996 m 486 -12 q 266 54 361 -12 q 119 235 172 119 q 66 505 66 351 q 119 775 66 659 q 267 957 172 892 q 486 1022 361 1022 q 704 957 610 1022 q 851 775 798 892 q 903 505 903 659 q 851 234 903 351 q 704 53 798 118 q 486 -12 610 -12 m 486 20 q 687 81 600 20 q 823 251 774 142 q 872 505 872 360 q 823 759 872 650 q 687 929 774 868 q 486 991 600 991 q 283 930 371 991 q 147 760 196 869 q 98 505 98 651 q 146 252 98 361 q 282 81 195 142 q 486 20 370 20 m 500 1107 l 470 1107 l 505 1185 q 521 1254 527 1234 q 466 1275 515 1275 l 395 1275 l 395 1305 l 466 1305 q 520 1296 500 1305 q 548 1269 541 1286 q 551 1228 555 1252 q 533 1175 547 1204 l 500 1107 z "},"Ỡ":{"ha":970,"x_min":66,"x_max":903,"o":"m 485 997 l 485 1024 q 555 1022 527 1024 q 614 1017 583 1020 q 692 1013 644 1015 q 820 1010 740 1010 q 872 1063 872 1010 l 872 1168 l 903 1168 l 903 1063 q 882 1001 903 1023 q 820 979 860 979 q 705 982 751 979 q 625 988 659 985 q 559 994 591 991 q 485 997 527 996 m 486 -12 q 266 54 361 -12 q 119 235 172 119 q 66 505 66 351 q 119 775 66 659 q 267 957 172 892 q 486 1022 361 1022 q 704 957 610 1022 q 851 775 798 892 q 903 505 903 659 q 851 234 903 351 q 704 53 798 118 q 486 -12 610 -12 m 486 20 q 687 81 600 20 q 823 251 774 142 q 872 505 872 360 q 823 759 872 650 q 687 929 774 868 q 486 991 600 991 q 283 930 371 991 q 147 760 196 869 q 98 505 98 651 q 146 252 98 361 q 282 81 195 142 q 486 20 370 20 m 573 1170 q 524 1182 545 1170 q 485 1210 503 1194 q 449 1238 467 1225 q 407 1250 431 1250 q 353 1230 374 1250 q 328 1175 332 1210 l 297 1175 q 330 1251 301 1221 q 401 1281 358 1281 q 455 1269 433 1281 q 495 1241 477 1257 q 530 1213 513 1225 q 568 1201 547 1201 q 615 1218 597 1201 q 642 1274 634 1235 l 674 1274 q 639 1198 666 1225 q 573 1170 612 1170 z "},"Ợ":{"ha":970,"x_min":66,"x_max":903,"o":"m 485 997 l 485 1024 q 555 1022 527 1024 q 614 1017 583 1020 q 692 1013 644 1015 q 820 1010 740 1010 q 872 1063 872 1010 l 872 1168 l 903 1168 l 903 1063 q 882 1001 903 1023 q 820 979 860 979 q 705 982 751 979 q 625 988 659 985 q 559 994 591 991 q 485 997 527 996 m 486 -12 q 266 54 361 -12 q 119 235 172 119 q 66 505 66 351 q 119 775 66 659 q 267 957 172 892 q 486 1022 361 1022 q 704 957 610 1022 q 851 775 798 892 q 903 505 903 659 q 851 234 903 351 q 704 53 798 118 q 486 -12 610 -12 m 486 20 q 687 81 600 20 q 823 251 774 142 q 872 505 872 360 q 823 759 872 650 q 687 929 774 868 q 486 991 600 991 q 283 930 371 991 q 147 760 196 869 q 98 505 98 651 q 146 252 98 361 q 282 81 195 142 q 486 20 370 20 m 486 -242 q 463 -233 473 -242 q 454 -210 454 -223 q 463 -188 454 -197 q 486 -178 473 -178 q 508 -188 499 -178 q 517 -210 517 -197 q 508 -233 517 -223 q 486 -242 499 -242 z "},"Ǿ":{"ha":970,"x_min":66,"x_max":903,"o":"m 486 -12 q 266 54 361 -12 q 119 235 172 119 q 66 505 66 351 q 119 775 66 659 q 267 957 172 892 q 486 1022 361 1022 q 704 957 610 1022 q 851 775 798 892 q 903 505 903 659 q 851 234 903 351 q 704 53 798 118 q 486 -12 610 -12 m 486 20 q 687 81 600 20 q 823 251 774 142 q 872 505 872 360 q 823 759 872 650 q 687 929 774 868 q 486 991 600 991 q 283 930 371 991 q 147 760 196 869 q 98 505 98 651 q 146 252 98 361 q 282 81 195 142 q 486 20 370 20 m 184 -8 l 157 8 l 788 1019 l 814 1002 l 184 -8 m 469 1107 l 555 1305 l 591 1305 l 498 1107 l 469 1107 z "},"Ο":{"ha":970,"x_min":66,"x_max":903,"o":"m 486 -12 q 266 54 361 -12 q 119 235 172 119 q 66 505 66 351 q 119 775 66 659 q 267 957 172 892 q 486 1022 361 1022 q 704 957 610 1022 q 851 775 798 892 q 903 505 903 659 q 851 234 903 351 q 704 53 798 118 q 486 -12 610 -12 m 486 20 q 687 81 600 20 q 823 251 774 142 q 872 505 872 360 q 823 759 872 650 q 687 929 774 868 q 486 991 600 991 q 283 930 371 991 q 147 760 196 869 q 98 505 98 651 q 146 252 98 361 q 282 81 195 142 q 486 20 370 20 z "},"Ό":{"ha":1007,"x_min":51,"x_max":941,"o":"m 523 -12 q 303 54 398 -12 q 156 235 209 119 q 104 505 104 351 q 157 775 104 659 q 304 957 210 892 q 523 1022 398 1022 q 741 957 647 1022 q 888 775 836 892 q 941 505 941 659 q 888 234 941 351 q 741 53 836 118 q 523 -12 647 -12 m 523 20 q 725 81 637 20 q 861 251 812 142 q 909 505 909 360 q 861 759 909 650 q 725 929 812 868 q 523 991 637 991 q 321 930 408 991 q 184 760 233 869 q 135 505 135 651 q 183 252 135 361 q 319 81 232 142 q 523 20 407 20 m 51 812 l 77 1010 l 111 1010 l 79 812 l 51 812 z "},"Ὀ":{"ha":1113,"x_min":51,"x_max":1046,"o":"m 628 -12 q 409 54 503 -12 q 261 235 314 119 q 209 505 209 351 q 262 775 209 659 q 409 957 315 892 q 628 1022 503 1022 q 846 957 752 1022 q 993 775 941 892 q 1046 505 1046 659 q 993 234 1046 351 q 846 53 941 118 q 628 -12 752 -12 m 628 20 q 830 81 743 20 q 966 251 917 142 q 1015 505 1015 360 q 966 759 1015 650 q 830 929 917 868 q 628 991 743 991 q 426 930 513 991 q 289 760 338 869 q 240 505 240 651 q 289 252 240 361 q 425 81 337 142 q 628 20 512 20 m 83 809 l 73 809 l 73 840 l 83 840 q 148 861 123 840 q 172 912 172 881 q 148 963 172 944 q 83 983 123 983 l 51 983 l 51 1014 l 83 1014 q 170 986 136 1014 q 203 912 203 958 q 170 838 203 867 q 83 809 136 809 z "},"Ὁ":{"ha":1121,"x_min":51,"x_max":1055,"o":"m 637 -12 q 417 54 512 -12 q 270 235 323 119 q 218 505 218 351 q 271 775 218 659 q 418 957 323 892 q 637 1022 512 1022 q 855 957 761 1022 q 1002 775 949 892 q 1055 505 1055 659 q 1002 234 1055 351 q 855 53 949 118 q 637 -12 761 -12 m 637 20 q 839 81 751 20 q 975 251 926 142 q 1023 505 1023 360 q 975 759 1023 650 q 839 929 926 868 q 637 991 751 991 q 435 930 522 991 q 298 760 347 869 q 249 505 249 651 q 297 252 249 361 q 433 81 346 142 q 637 20 521 20 m 171 808 q 84 837 118 808 q 51 911 51 865 q 84 985 51 957 q 171 1013 118 1013 l 203 1013 l 203 981 l 171 981 q 107 962 132 981 q 82 911 82 943 q 107 859 82 880 q 171 839 132 839 l 182 839 l 182 808 l 171 808 z "},"Ὂ":{"ha":1267,"x_min":51,"x_max":1200,"o":"m 783 -12 q 563 54 658 -12 q 416 235 469 119 q 363 505 363 351 q 416 775 363 659 q 564 957 469 892 q 783 1022 658 1022 q 1001 957 907 1022 q 1148 775 1095 892 q 1200 505 1200 659 q 1148 234 1200 351 q 1001 53 1095 118 q 783 -12 907 -12 m 783 20 q 984 81 897 20 q 1120 251 1072 142 q 1169 505 1169 360 q 1120 759 1169 650 q 984 929 1072 868 q 783 991 897 991 q 581 930 668 991 q 444 760 493 869 q 395 505 395 651 q 443 252 395 361 q 579 81 492 142 q 783 20 667 20 m 83 808 l 73 808 l 73 839 l 83 839 q 148 859 123 839 q 172 911 172 880 q 148 962 172 943 q 83 981 123 981 l 51 981 l 51 1013 l 83 1013 q 170 985 136 1013 q 203 911 203 957 q 170 837 203 865 q 83 808 136 808 m 302 812 l 275 812 l 243 1010 l 277 1010 l 302 812 z "},"Ὃ":{"ha":1270,"x_min":51,"x_max":1203,"o":"m 785 -12 q 565 54 660 -12 q 418 235 471 119 q 366 505 366 351 q 418 775 366 659 q 566 957 471 892 q 785 1022 660 1022 q 1003 957 909 1022 q 1150 775 1097 892 q 1202 505 1202 659 q 1150 234 1202 351 q 1003 53 1097 118 q 785 -12 909 -12 m 785 20 q 986 81 899 20 q 1122 251 1074 142 q 1171 505 1171 360 q 1122 759 1171 650 q 986 929 1074 868 q 785 991 899 991 q 583 930 670 991 q 446 760 495 869 q 397 505 397 651 q 445 252 397 361 q 581 81 494 142 q 785 20 669 20 m 171 808 q 84 837 118 808 q 51 911 51 865 q 84 985 51 957 q 171 1013 118 1013 l 203 1013 l 203 981 l 171 981 q 107 962 132 981 q 82 911 82 943 q 107 859 82 880 q 171 839 132 839 l 182 839 l 182 808 l 171 808 m 324 812 l 297 812 l 264 1010 l 298 1010 l 324 812 z "},"Ὄ":{"ha":1263,"x_min":51,"x_max":1196,"o":"m 779 -12 q 559 54 654 -12 q 412 235 465 119 q 359 505 359 351 q 412 775 359 659 q 559 957 465 892 q 779 1022 654 1022 q 997 957 903 1022 q 1144 775 1091 892 q 1196 505 1196 659 q 1144 234 1196 351 q 997 53 1091 118 q 779 -12 903 -12 m 779 20 q 980 81 893 20 q 1116 251 1067 142 q 1165 505 1165 360 q 1116 759 1165 650 q 980 929 1067 868 q 779 991 893 991 q 576 930 664 991 q 440 760 489 869 q 391 505 391 651 q 439 252 391 361 q 575 81 488 142 q 779 20 663 20 m 83 808 l 73 808 l 73 839 l 83 839 q 148 859 123 839 q 172 911 172 880 q 148 962 172 943 q 83 981 123 981 l 51 981 l 51 1013 l 83 1013 q 170 985 136 1013 q 203 911 203 957 q 170 837 203 865 q 83 808 136 808 m 283 812 l 309 1010 l 342 1010 l 311 812 l 283 812 z "},"Ὅ":{"ha":1264,"x_min":51,"x_max":1198,"o":"m 779 -12 q 560 54 654 -12 q 413 235 465 119 q 360 505 360 351 q 413 775 360 659 q 560 957 466 892 q 779 1022 654 1022 q 998 957 903 1022 q 1144 775 1092 892 q 1197 505 1197 659 q 1144 234 1197 351 q 998 53 1092 118 q 779 -12 903 -12 m 779 20 q 981 81 894 20 q 1117 251 1068 142 q 1166 505 1166 360 q 1117 759 1166 650 q 981 929 1068 868 q 779 991 894 991 q 577 930 665 991 q 440 760 490 869 q 391 505 391 651 q 440 252 391 361 q 576 81 488 142 q 779 20 663 20 m 171 808 q 84 837 118 808 q 51 911 51 865 q 84 985 51 957 q 171 1013 118 1013 l 203 1013 l 203 981 l 171 981 q 107 962 132 981 q 82 911 82 943 q 107 859 82 880 q 171 839 132 839 l 182 839 l 182 808 l 171 808 m 285 812 l 311 1010 l 345 1010 l 313 812 l 285 812 z "},"Ὸ":{"ha":970,"x_min":-56,"x_max":903,"o":"m 486 -12 q 266 54 361 -12 q 119 235 172 119 q 66 505 66 351 q 119 775 66 659 q 267 957 172 892 q 486 1022 361 1022 q 704 957 610 1022 q 851 775 798 892 q 903 505 903 659 q 851 234 903 351 q 704 53 798 118 q 486 -12 610 -12 m 486 20 q 687 81 600 20 q 823 251 774 142 q 872 505 872 360 q 823 759 872 650 q 687 929 774 868 q 486 991 600 991 q 283 930 371 991 q 147 760 196 869 q 98 505 98 651 q 146 252 98 361 q 282 81 195 142 q 486 20 370 20 m 4 817 l -24 817 l -56 1015 l -22 1015 l 4 817 z "},"ϴ":{"ha":970,"x_min":66,"x_max":903,"o":"m 883 521 l 883 490 l 87 490 l 87 521 l 883 521 m 486 -12 q 266 54 361 -12 q 119 235 172 119 q 66 505 66 351 q 119 775 66 659 q 267 957 172 892 q 486 1022 361 1022 q 704 957 610 1022 q 851 775 798 892 q 903 505 903 659 q 851 234 903 351 q 704 53 798 118 q 486 -12 610 -12 m 486 20 q 687 81 600 20 q 823 251 774 142 q 872 505 872 360 q 823 759 872 650 q 687 929 774 868 q 486 991 600 991 q 283 930 371 991 q 147 760 196 869 q 98 505 98 651 q 146 252 98 361 q 282 81 195 142 q 486 20 370 20 z "},"Ό":{"ha":1007,"x_min":51,"x_max":941,"o":"m 523 -12 q 303 54 398 -12 q 156 235 209 119 q 104 505 104 351 q 157 775 104 659 q 304 957 210 892 q 523 1022 398 1022 q 741 957 647 1022 q 888 775 836 892 q 941 505 941 659 q 888 234 941 351 q 741 53 836 118 q 523 -12 647 -12 m 523 20 q 725 81 637 20 q 861 251 812 142 q 909 505 909 360 q 861 759 909 650 q 725 929 812 868 q 523 991 637 991 q 321 930 408 991 q 184 760 233 869 q 135 505 135 651 q 183 252 135 361 q 319 81 232 142 q 523 20 407 20 m 51 812 l 77 1010 l 111 1010 l 79 812 l 51 812 z "},"О":{"ha":970,"x_min":66,"x_max":903,"o":"m 486 -12 q 266 54 361 -12 q 119 235 172 119 q 66 505 66 351 q 119 775 66 659 q 267 957 172 892 q 486 1022 361 1022 q 704 957 610 1022 q 851 775 798 892 q 903 505 903 659 q 851 234 903 351 q 704 53 798 118 q 486 -12 610 -12 m 486 20 q 687 81 600 20 q 823 251 774 142 q 872 505 872 360 q 823 759 872 650 q 687 929 774 868 q 486 991 600 991 q 283 930 371 991 q 147 760 196 869 q 98 505 98 651 q 146 252 98 361 q 282 81 195 142 q 486 20 370 20 z "},"Ӧ":{"ha":970,"x_min":66,"x_max":903,"o":"m 486 -12 q 266 54 361 -12 q 119 235 172 119 q 66 505 66 351 q 119 775 66 659 q 267 957 172 892 q 486 1022 361 1022 q 704 957 610 1022 q 851 775 798 892 q 903 505 903 659 q 851 234 903 351 q 704 53 798 118 q 486 -12 610 -12 m 486 20 q 687 81 600 20 q 823 251 774 142 q 872 505 872 360 q 823 759 872 650 q 687 929 774 868 q 486 991 600 991 q 283 930 371 991 q 147 760 196 869 q 98 505 98 651 q 146 252 98 361 q 282 81 195 142 q 486 20 370 20 m 623 1194 q 600 1203 610 1194 q 591 1226 591 1213 q 600 1248 591 1239 q 623 1257 610 1257 q 645 1248 636 1257 q 654 1226 654 1239 q 645 1203 654 1213 q 623 1194 636 1194 m 349 1194 q 326 1203 336 1194 q 317 1226 317 1213 q 326 1248 317 1239 q 349 1257 336 1257 q 371 1248 362 1257 q 380 1226 380 1239 q 371 1203 380 1213 q 349 1194 362 1194 z "},"Ɵ":{"ha":970,"x_min":66,"x_max":903,"o":"m 883 521 l 883 490 l 87 490 l 87 521 l 883 521 m 486 -12 q 266 54 361 -12 q 119 235 172 119 q 66 505 66 351 q 119 775 66 659 q 267 957 172 892 q 486 1022 361 1022 q 704 957 610 1022 q 851 775 798 892 q 903 505 903 659 q 851 234 903 351 q 704 53 798 118 q 486 -12 610 -12 m 486 20 q 687 81 600 20 q 823 251 774 142 q 872 505 872 360 q 823 759 872 650 q 687 929 774 868 q 486 991 600 991 q 283 930 371 991 q 147 760 196 869 q 98 505 98 651 q 146 252 98 361 q 282 81 195 142 q 486 20 370 20 z "},"Ө":{"ha":970,"x_min":66,"x_max":903,"o":"m 883 521 l 883 490 l 87 490 l 87 521 l 883 521 m 486 -12 q 266 54 361 -12 q 119 235 172 119 q 66 505 66 351 q 119 775 66 659 q 267 957 172 892 q 486 1022 361 1022 q 704 957 610 1022 q 851 775 798 892 q 903 505 903 659 q 851 234 903 351 q 704 53 798 118 q 486 -12 610 -12 m 486 20 q 687 81 600 20 q 823 251 774 142 q 872 505 872 360 q 823 759 872 650 q 687 929 774 868 q 486 991 600 991 q 283 930 371 991 q 147 760 196 869 q 98 505 98 651 q 146 252 98 361 q 282 81 195 142 q 486 20 370 20 z "},"Ӫ":{"ha":970,"x_min":66,"x_max":903,"o":"m 883 521 l 883 490 l 87 490 l 87 521 l 883 521 m 486 -12 q 266 54 361 -12 q 119 235 172 119 q 66 505 66 351 q 119 775 66 659 q 267 957 172 892 q 486 1022 361 1022 q 704 957 610 1022 q 851 775 798 892 q 903 505 903 659 q 851 234 903 351 q 704 53 798 118 q 486 -12 610 -12 m 486 20 q 687 81 600 20 q 823 251 774 142 q 872 505 872 360 q 823 759 872 650 q 687 929 774 868 q 486 991 600 991 q 283 930 371 991 q 147 760 196 869 q 98 505 98 651 q 146 252 98 361 q 282 81 195 142 q 486 20 370 20 m 623 1194 q 600 1203 610 1194 q 591 1226 591 1213 q 600 1248 591 1239 q 623 1257 610 1257 q 645 1248 636 1257 q 654 1226 654 1239 q 645 1203 654 1213 q 623 1194 636 1194 m 349 1194 q 326 1203 336 1194 q 317 1226 317 1213 q 326 1248 317 1239 q 349 1257 336 1257 q 371 1248 362 1257 q 380 1226 380 1239 q 371 1203 380 1213 q 349 1194 362 1194 z "},"Œ":{"ha":1253,"x_min":66,"x_max":1192,"o":"m 486 0 q 266 64 361 0 q 119 241 172 127 q 66 505 66 355 q 119 769 66 655 q 267 947 172 883 q 486 1010 361 1010 l 609 1010 l 609 978 l 486 978 q 283 920 371 979 q 147 754 196 861 q 98 505 98 647 q 146 258 98 365 q 282 91 195 151 q 486 31 370 31 l 609 31 l 609 0 l 486 0 m 593 0 l 593 1010 l 1188 1010 l 1188 979 l 624 979 l 624 529 l 1141 529 l 1141 498 l 624 498 l 624 31 l 1192 31 l 1192 0 l 593 0 z "},"P":{"ha":781,"x_min":123,"x_max":735,"o":"m 123 0 l 123 1010 l 446 1010 q 595 974 530 1010 q 698 872 661 938 q 735 720 735 807 q 698 570 735 635 q 596 468 661 505 q 446 432 531 432 l 140 432 l 140 463 l 446 463 q 579 495 522 463 q 671 586 637 528 q 704 720 704 644 q 671 856 704 798 q 579 947 637 914 q 446 979 522 979 l 155 979 l 155 0 l 123 0 z "},"Ṕ":{"ha":781,"x_min":123,"x_max":735,"o":"m 123 0 l 123 1010 l 446 1010 q 595 974 530 1010 q 698 872 661 938 q 735 720 735 807 q 698 570 735 635 q 596 468 661 505 q 446 432 531 432 l 140 432 l 140 463 l 446 463 q 579 495 522 463 q 671 586 637 528 q 704 720 704 644 q 671 856 704 798 q 579 947 637 914 q 446 979 522 979 l 155 979 l 155 0 l 123 0 m 382 1107 l 469 1305 l 505 1305 l 412 1107 l 382 1107 z "},"Ṗ":{"ha":781,"x_min":123,"x_max":735,"o":"m 123 0 l 123 1010 l 446 1010 q 595 974 530 1010 q 698 872 661 938 q 735 720 735 807 q 698 570 735 635 q 596 468 661 505 q 446 432 531 432 l 140 432 l 140 463 l 446 463 q 579 495 522 463 q 671 586 637 528 q 704 720 704 644 q 671 856 704 798 q 579 947 637 914 q 446 979 522 979 l 155 979 l 155 0 l 123 0 m 399 1194 q 376 1203 386 1194 q 367 1226 367 1213 q 376 1248 367 1239 q 399 1257 386 1257 q 421 1248 412 1257 q 431 1226 431 1239 q 421 1203 431 1213 q 399 1194 412 1194 z "},"Ҏ":{"ha":777,"x_min":118,"x_max":730,"o":"m 529 624 l 688 381 l 662 363 l 502 608 l 529 624 m 118 0 l 118 1010 l 441 1010 q 590 974 525 1010 q 692 872 655 938 q 730 720 730 807 q 693 570 730 635 q 591 468 656 505 q 441 432 526 432 l 134 432 l 134 463 l 441 463 q 574 495 516 463 q 665 586 632 528 q 699 720 699 644 q 665 856 699 798 q 574 947 632 914 q 441 979 516 979 l 149 979 l 149 0 l 118 0 z "},"Ƥ":{"ha":889,"x_min":24,"x_max":844,"o":"m 24 758 l 24 868 q 59 974 24 937 q 157 1010 93 1010 l 232 1010 l 232 979 l 160 979 q 81 952 106 979 q 56 868 56 925 l 56 758 l 24 758 m 232 0 l 232 1010 l 555 1010 q 704 974 639 1010 q 806 872 769 938 q 844 720 844 807 q 807 570 844 635 q 705 468 770 505 q 555 432 640 432 l 248 432 l 248 463 l 555 463 q 688 495 630 463 q 780 586 747 528 q 812 720 812 644 q 780 856 812 798 q 688 947 747 914 q 555 979 630 979 l 263 979 l 263 0 l 232 0 z "},"Ρ":{"ha":781,"x_min":123,"x_max":735,"o":"m 123 0 l 123 1010 l 446 1010 q 595 974 530 1010 q 698 872 661 938 q 735 720 735 807 q 698 570 735 635 q 596 468 661 505 q 446 432 531 432 l 140 432 l 140 463 l 446 463 q 579 495 522 463 q 671 586 637 528 q 704 720 704 644 q 671 856 704 798 q 579 947 637 914 q 446 979 522 979 l 155 979 l 155 0 l 123 0 z "},"Ῥ":{"ha":988,"x_min":51,"x_max":943,"o":"m 331 0 l 331 1010 l 654 1010 q 803 974 738 1010 q 905 872 868 938 q 943 720 943 807 q 906 570 943 635 q 804 468 869 505 q 654 432 739 432 l 347 432 l 347 463 l 654 463 q 787 495 729 463 q 878 586 845 528 q 911 720 911 644 q 878 856 911 798 q 787 947 845 914 q 654 979 729 979 l 362 979 l 362 0 l 331 0 m 171 808 q 84 837 118 808 q 51 911 51 865 q 84 985 51 957 q 171 1013 118 1013 l 203 1013 l 203 981 l 171 981 q 107 962 132 981 q 82 911 82 943 q 107 859 82 880 q 171 839 132 839 l 182 839 l 182 808 l 171 808 z "},"Q":{"ha":970,"x_min":66,"x_max":903,"o":"m 525 316 l 564 316 l 727 99 l 734 91 l 873 -95 l 834 -95 l 707 75 l 700 83 l 525 316 m 486 -12 q 266 54 361 -12 q 119 235 172 119 q 66 505 66 351 q 119 775 66 659 q 267 957 172 892 q 486 1022 361 1022 q 704 957 610 1022 q 851 775 798 892 q 903 505 903 659 q 851 234 903 351 q 704 53 798 118 q 486 -12 610 -12 m 486 20 q 687 81 600 20 q 823 251 774 142 q 872 505 872 360 q 823 759 872 650 q 687 929 774 868 q 486 991 600 991 q 283 930 371 991 q 147 760 196 869 q 98 505 98 651 q 146 252 98 361 q 282 81 195 142 q 486 20 370 20 z "},"Ɋ":{"ha":966,"x_min":66,"x_max":985,"o":"m 842 1010 l 842 0 l 811 0 l 811 259 l 807 259 q 681 56 764 125 q 480 -14 597 -14 q 313 24 389 -14 q 181 131 237 62 q 96 295 126 199 q 66 505 66 390 q 97 716 66 621 q 183 880 127 811 q 315 987 239 949 q 486 1024 392 1024 q 683 955 602 1024 q 807 750 764 886 l 811 750 l 811 1010 l 842 1010 m 486 18 q 662 76 588 18 q 774 243 735 134 q 814 505 814 353 q 774 765 814 656 q 660 934 734 875 q 486 993 587 993 q 283 931 370 993 q 146 760 195 869 q 98 505 98 650 q 146 250 98 359 q 283 79 195 140 q 486 18 370 18 m 936 -283 q 842 -251 873 -283 q 811 -149 811 -218 l 811 0 l 842 0 l 842 -149 q 864 -229 842 -205 q 936 -252 886 -252 q 958 -252 945 -252 q 985 -252 972 -252 l 985 -283 q 959 -283 973 -283 q 936 -283 945 -283 z "},"R":{"ha":814,"x_min":123,"x_max":753,"o":"m 123 0 l 123 1010 l 446 1010 q 595 975 530 1010 q 698 873 661 939 q 735 722 735 808 q 698 572 735 636 q 596 471 661 507 q 446 435 531 435 l 140 435 l 140 467 l 446 467 q 579 498 522 467 q 671 588 637 530 q 704 722 704 645 q 671 857 704 800 q 579 947 637 915 q 446 979 522 979 l 155 979 l 155 0 l 123 0 m 718 0 l 473 460 l 509 460 l 753 0 l 718 0 z "},"Ŕ":{"ha":814,"x_min":123,"x_max":753,"o":"m 123 0 l 123 1010 l 446 1010 q 595 975 530 1010 q 698 873 661 939 q 735 722 735 808 q 698 572 735 636 q 596 471 661 507 q 446 435 531 435 l 140 435 l 140 467 l 446 467 q 579 498 522 467 q 671 588 637 530 q 704 722 704 645 q 671 857 704 800 q 579 947 637 915 q 446 979 522 979 l 155 979 l 155 0 l 123 0 m 718 0 l 473 460 l 509 460 l 753 0 l 718 0 m 392 1107 l 478 1305 l 514 1305 l 421 1107 l 392 1107 z "},"Ŗ":{"ha":814,"x_min":123,"x_max":753,"o":"m 123 0 l 123 1010 l 446 1010 q 595 975 530 1010 q 698 873 661 939 q 735 722 735 808 q 698 572 735 636 q 596 471 661 507 q 446 435 531 435 l 140 435 l 140 467 l 446 467 q 579 498 522 467 q 671 588 637 530 q 704 722 704 645 q 671 857 704 800 q 579 947 637 915 q 446 979 522 979 l 155 979 l 155 0 l 123 0 m 718 0 l 473 460 l 509 460 l 753 0 l 718 0 m 328 -335 l 393 -80 l 427 -80 l 353 -335 l 328 -335 z "},"Ř":{"ha":814,"x_min":123,"x_max":753,"o":"m 123 0 l 123 1010 l 446 1010 q 595 975 530 1010 q 698 873 661 939 q 735 722 735 808 q 698 572 735 636 q 596 471 661 507 q 446 435 531 435 l 140 435 l 140 467 l 446 467 q 579 498 522 467 q 671 588 637 530 q 704 722 704 645 q 671 857 704 800 q 579 947 637 915 q 446 979 522 979 l 155 979 l 155 0 l 123 0 m 718 0 l 473 460 l 509 460 l 753 0 l 718 0 m 262 1318 l 408 1161 l 556 1318 l 595 1318 l 595 1317 l 420 1132 l 395 1132 l 222 1317 l 222 1318 l 262 1318 z "},"Ȑ":{"ha":814,"x_min":123,"x_max":753,"o":"m 123 0 l 123 1010 l 446 1010 q 595 975 530 1010 q 698 873 661 939 q 735 722 735 808 q 698 572 735 636 q 596 471 661 507 q 446 435 531 435 l 140 435 l 140 467 l 446 467 q 579 498 522 467 q 671 588 637 530 q 704 722 704 645 q 671 857 704 800 q 579 947 637 915 q 446 979 522 979 l 155 979 l 155 0 l 123 0 m 718 0 l 473 460 l 509 460 l 753 0 l 718 0 m 472 1107 l 388 1305 l 425 1305 l 503 1107 l 472 1107 m 321 1107 l 218 1305 l 256 1305 l 352 1107 l 321 1107 z "},"Ȓ":{"ha":814,"x_min":123,"x_max":753,"o":"m 123 0 l 123 1010 l 446 1010 q 595 975 530 1010 q 698 873 661 939 q 735 722 735 808 q 698 572 735 636 q 596 471 661 507 q 446 435 531 435 l 140 435 l 140 467 l 446 467 q 579 498 522 467 q 671 588 637 530 q 704 722 704 645 q 671 857 704 800 q 579 947 637 915 q 446 979 522 979 l 155 979 l 155 0 l 123 0 m 718 0 l 473 460 l 509 460 l 753 0 l 718 0 m 408 1295 q 498 1274 458 1295 q 563 1216 539 1253 q 586 1133 586 1179 l 555 1133 q 512 1227 555 1189 q 408 1266 469 1266 q 305 1227 348 1266 q 262 1133 262 1189 l 231 1133 q 254 1215 231 1179 q 318 1274 278 1252 q 408 1295 359 1295 z "},"Ṙ":{"ha":814,"x_min":123,"x_max":753,"o":"m 123 0 l 123 1010 l 446 1010 q 595 975 530 1010 q 698 873 661 939 q 735 722 735 808 q 698 572 735 636 q 596 471 661 507 q 446 435 531 435 l 140 435 l 140 467 l 446 467 q 579 498 522 467 q 671 588 637 530 q 704 722 704 645 q 671 857 704 800 q 579 947 637 915 q 446 979 522 979 l 155 979 l 155 0 l 123 0 m 718 0 l 473 460 l 509 460 l 753 0 l 718 0 m 409 1194 q 386 1203 395 1194 q 376 1226 376 1213 q 386 1248 376 1239 q 409 1257 395 1257 q 431 1248 422 1257 q 440 1226 440 1239 q 431 1203 440 1213 q 409 1194 422 1194 z "},"Ṛ":{"ha":814,"x_min":123,"x_max":753,"o":"m 123 0 l 123 1010 l 446 1010 q 595 975 530 1010 q 698 873 661 939 q 735 722 735 808 q 698 572 735 636 q 596 471 661 507 q 446 435 531 435 l 140 435 l 140 467 l 446 467 q 579 498 522 467 q 671 588 637 530 q 704 722 704 645 q 671 857 704 800 q 579 947 637 915 q 446 979 522 979 l 155 979 l 155 0 l 123 0 m 718 0 l 473 460 l 509 460 l 753 0 l 718 0 m 412 -242 q 389 -233 399 -242 q 380 -210 380 -223 q 389 -188 380 -197 q 412 -178 399 -178 q 434 -188 425 -178 q 444 -210 444 -197 q 434 -233 444 -223 q 412 -242 425 -242 z "},"Ṝ":{"ha":814,"x_min":123,"x_max":753,"o":"m 123 0 l 123 1010 l 446 1010 q 595 975 530 1010 q 698 873 661 939 q 735 722 735 808 q 698 572 735 636 q 596 471 661 507 q 446 435 531 435 l 140 435 l 140 467 l 446 467 q 579 498 522 467 q 671 588 637 530 q 704 722 704 645 q 671 857 704 800 q 579 947 637 915 q 446 979 522 979 l 155 979 l 155 0 l 123 0 m 718 0 l 473 460 l 509 460 l 753 0 l 718 0 m 412 -242 q 389 -233 399 -242 q 380 -210 380 -223 q 389 -188 380 -197 q 412 -178 399 -178 q 434 -188 425 -178 q 444 -210 444 -197 q 434 -233 444 -223 q 412 -242 425 -242 m 566 1241 l 566 1210 l 251 1210 l 251 1241 l 566 1241 z "},"Ṟ":{"ha":814,"x_min":123,"x_max":753,"o":"m 123 0 l 123 1010 l 446 1010 q 595 975 530 1010 q 698 873 661 939 q 735 722 735 808 q 698 572 735 636 q 596 471 661 507 q 446 435 531 435 l 140 435 l 140 467 l 446 467 q 579 498 522 467 q 671 588 637 530 q 704 722 704 645 q 671 857 704 800 q 579 947 637 915 q 446 979 522 979 l 155 979 l 155 0 l 123 0 m 718 0 l 473 460 l 509 460 l 753 0 l 718 0 m 570 -195 l 570 -226 l 254 -226 l 254 -195 l 570 -195 z "},"℟":{"ha":788,"x_min":119,"x_max":749,"o":"m 632 1122 l 159 -222 l 127 -216 l 591 1103 l 362 1190 l 374 1218 l 632 1122 m 119 0 l 119 1010 l 442 1010 q 591 975 526 1010 q 694 873 656 939 q 731 722 731 808 q 694 572 731 636 q 592 471 657 507 q 442 435 527 435 l 136 435 l 136 467 l 442 467 q 575 498 517 467 q 667 588 633 530 q 700 722 700 645 q 667 857 700 800 q 575 947 633 915 q 442 979 517 979 l 151 979 l 151 0 l 119 0 m 713 0 l 469 460 l 505 460 l 749 0 l 713 0 z "},"℞":{"ha":743,"x_min":123,"x_max":764,"o":"m 123 1010 l 420 1010 q 570 975 505 1010 q 672 874 635 939 q 709 722 709 809 q 672 572 709 636 q 570 471 635 507 q 420 435 505 435 l 411 435 l 140 435 l 140 468 l 420 468 q 554 499 496 468 q 645 588 612 530 q 678 722 678 645 q 645 857 678 800 q 554 946 612 914 q 420 978 496 978 l 156 978 l 156 0 l 123 0 l 123 1010 m 724 0 l 388 460 l 426 460 l 764 0 l 724 0 m 427 0 l 388 0 l 724 461 l 764 461 l 427 0 z "},"Ɍ":{"ha":793,"x_min":-12,"x_max":754,"o":"m 136 435 l -12 435 l -12 468 l 136 468 l 136 435 m 125 0 l 125 1010 l 448 1010 q 597 975 532 1010 q 699 873 662 939 q 736 722 736 808 q 700 572 736 636 q 597 471 663 507 q 448 435 532 435 l 141 435 l 141 467 l 448 467 q 581 498 523 467 q 672 588 639 530 q 705 722 705 645 q 672 857 705 800 q 581 947 639 915 q 448 979 523 979 l 156 979 l 156 0 l 125 0 m 719 0 l 475 460 l 510 460 l 754 0 l 719 0 z "},"S":{"ha":783,"x_min":73,"x_max":709,"o":"m 388 -15 q 227 17 296 -15 q 118 106 158 49 q 73 237 78 163 l 104 237 q 145 122 109 172 q 243 44 181 72 q 388 16 305 16 q 541 46 475 16 q 642 131 606 77 q 678 256 678 185 q 654 352 678 311 q 580 426 631 393 q 448 483 530 458 l 334 518 q 155 616 214 555 q 96 765 96 677 q 135 899 96 840 q 242 991 174 958 q 396 1025 310 1025 q 548 991 483 1025 q 652 896 614 956 q 696 758 691 836 l 665 758 q 585 928 657 861 q 396 994 513 994 q 258 965 319 994 q 162 883 197 935 q 127 765 127 831 q 151 674 127 715 q 222 602 174 633 q 340 548 269 570 l 456 513 q 569 467 521 492 q 648 411 616 442 q 694 341 679 380 q 709 256 709 303 q 669 116 709 178 q 556 20 629 55 q 388 -15 484 -15 z "},"Ś":{"ha":783,"x_min":73,"x_max":709,"o":"m 388 -15 q 227 17 296 -15 q 118 106 158 49 q 73 237 78 163 l 104 237 q 145 122 109 172 q 243 44 181 72 q 388 16 305 16 q 541 46 475 16 q 642 131 606 77 q 678 256 678 185 q 654 352 678 311 q 580 426 631 393 q 448 483 530 458 l 334 518 q 155 616 214 555 q 96 765 96 677 q 135 899 96 840 q 242 991 174 958 q 396 1025 310 1025 q 548 991 483 1025 q 652 896 614 956 q 696 758 691 836 l 665 758 q 585 928 657 861 q 396 994 513 994 q 258 965 319 994 q 162 883 197 935 q 127 765 127 831 q 151 674 127 715 q 222 602 174 633 q 340 548 269 570 l 456 513 q 569 467 521 492 q 648 411 616 442 q 694 341 679 380 q 709 256 709 303 q 669 116 709 178 q 556 20 629 55 q 388 -15 484 -15 m 376 1107 l 462 1305 l 498 1305 l 405 1107 l 376 1107 z "},"Ŝ":{"ha":783,"x_min":73,"x_max":709,"o":"m 388 -15 q 227 17 296 -15 q 118 106 158 49 q 73 237 78 163 l 104 237 q 145 122 109 172 q 243 44 181 72 q 388 16 305 16 q 541 46 475 16 q 642 131 606 77 q 678 256 678 185 q 654 352 678 311 q 580 426 631 393 q 448 483 530 458 l 334 518 q 155 616 214 555 q 96 765 96 677 q 135 899 96 840 q 242 991 174 958 q 396 1025 310 1025 q 548 991 483 1025 q 652 896 614 956 q 696 758 691 836 l 665 758 q 585 928 657 861 q 396 994 513 994 q 258 965 319 994 q 162 883 197 935 q 127 765 127 831 q 151 674 127 715 q 222 602 174 633 q 340 548 269 570 l 456 513 q 569 467 521 492 q 648 411 616 442 q 694 341 679 380 q 709 256 709 303 q 669 116 709 178 q 556 20 629 55 q 388 -15 484 -15 m 245 1133 l 205 1133 l 205 1134 l 378 1320 l 404 1320 l 578 1134 l 578 1133 l 539 1133 l 391 1291 l 245 1133 z "},"Ş":{"ha":783,"x_min":73,"x_max":709,"o":"m 388 -15 q 227 17 296 -15 q 118 106 158 49 q 73 237 78 163 l 104 237 q 145 122 109 172 q 243 44 181 72 q 388 16 305 16 q 541 46 475 16 q 642 131 606 77 q 678 256 678 185 q 654 352 678 311 q 580 426 631 393 q 448 483 530 458 l 334 518 q 155 616 214 555 q 96 765 96 677 q 135 899 96 840 q 242 991 174 958 q 396 1025 310 1025 q 548 991 483 1025 q 652 896 614 956 q 696 758 691 836 l 665 758 q 585 928 657 861 q 396 994 513 994 q 258 965 319 994 q 162 883 197 935 q 127 765 127 831 q 151 674 127 715 q 222 602 174 633 q 340 548 269 570 l 456 513 q 569 467 521 492 q 648 411 616 442 q 694 341 679 380 q 709 256 709 303 q 669 116 709 178 q 556 20 629 55 q 388 -15 484 -15 m 330 -283 l 330 -252 l 396 -252 q 464 -232 439 -252 q 488 -177 488 -212 q 464 -122 488 -142 q 391 -101 439 -101 l 351 -101 l 378 12 l 408 12 l 408 0 l 391 -70 q 485 -100 451 -71 q 519 -177 519 -128 q 486 -255 519 -226 q 396 -283 452 -283 l 330 -283 z "}}}
